Space-Mono-Bold-Italic.ufo
<glyph name="exclam" format="1">
  <advance width="612"/>
  <unicode hex="0021"/>
  <outline>
    <contour>
      <point x="322" y="700" type="line"/>
      <point x="218" y="218" type="line"/>
      <point x="350" y="218" type="line"/>
      <point x="454" y="700" type="line"/>
    </contour>
    <contour>
      <point x="356" y="81" type="curve" smooth="yes"/>
      <point x="356" y="134"/>
      <point x="313" y="176"/>
      <point x="261" y="176" type="curve" smooth="yes"/>
      <point x="209" y="176"/>
      <point x="166" y="134"/>
      <point x="166" y="81" type="curve" smooth="yes"/>
      <point x="166" y="28"/>
      <point x="209" y="-14"/>
      <point x="261" y="-14" type="curve" smooth="yes"/>
      <point x="313" y="-14"/>
      <point x="356" y="28"/>
    </contour>
  </outline>
</glyph>
<glyph name="quotedbl" format="1">
  <advance width="612"/>
  <unicode hex="0022"/>
  <outline>
    <contour>
      <point x="163" y="420" type="line"/>
      <point x="239" y="405" type="line"/>
      <point x="265" y="526" type="line"/>
      <point x="311" y="538"/>
      <point x="339" y="578"/>
      <point x="339" y="620" type="curve" smooth="yes"/>
      <point x="339" y="672"/>
      <point x="297" y="714"/>
      <point x="245" y="714" type="curve" smooth="yes"/>
      <point x="193" y="714"/>
      <point x="150" y="672"/>
      <point x="150" y="620" type="curve" smooth="yes"/>
      <point x="150" y="589"/>
      <point x="166" y="560"/>
      <point x="190" y="542" type="curve"/>
    </contour>
    <contour>
      <point x="388" y="420" type="line"/>
      <point x="464" y="405" type="line"/>
      <point x="490" y="526" type="line"/>
      <point x="536" y="538"/>
      <point x="564" y="578"/>
      <point x="564" y="620" type="curve" smooth="yes"/>
      <point x="564" y="672"/>
      <point x="522" y="714"/>
      <point x="470" y="714" type="curve" smooth="yes"/>
      <point x="418" y="714"/>
      <point x="375" y="672"/>
      <point x="375" y="620" type="curve" smooth="yes"/>
      <point x="375" y="589"/>
      <point x="391" y="560"/>
      <point x="415" y="542" type="curve"/>
    </contour>
  </outline>
</glyph>
<glyph name="dollar" format="1">
  <advance width="612"/>
  <unicode hex="0024"/>
  <outline>
    <contour>
      <point x="413" y="672" type="line"/>
      <point x="317" y="672" type="line"/>
      <point x="304" y="610" type="line"/>
      <point x="188" y="598"/>
      <point x="119" y="527"/>
      <point x="119" y="446" type="curve" smooth="yes"/>
      <point x="119" y="364"/>
      <point x="179" y="330"/>
      <point x="241" y="318" type="curve"/>
      <point x="217" y="205" type="line"/>
      <point x="193" y="216"/>
      <point x="181" y="235"/>
      <point x="181" y="255" type="curve" smooth="yes"/>
      <point x="181" y="262"/>
      <point x="182" y="268"/>
      <point x="183" y="273" type="curve" smooth="yes"/>
      <point x="186" y="287" type="line"/>
      <point x="72" y="287" type="line"/>
      <point x="68" y="267" type="line" smooth="yes"/>
      <point x="66" y="256"/>
      <point x="65" y="246"/>
      <point x="65" y="235" type="curve" smooth="yes"/>
      <point x="65" y="168"/>
      <point x="110" y="111"/>
      <point x="194" y="93" type="curve"/>
      <point x="180" y="28" type="line"/>
      <point x="276" y="28" type="line"/>
      <point x="289" y="89" type="line"/>
      <point x="395" y="99"/>
      <point x="483" y="154"/>
      <point x="483" y="273" type="curve" smooth="yes"/>
      <point x="483" y="344"/>
      <point x="434" y="383"/>
      <point x="355" y="398" type="curve"/>
      <point x="375" y="493" type="line"/>
      <point x="396" y="482"/>
      <point x="404" y="464"/>
      <point x="401" y="446" type="curve" smooth="yes"/>
      <point x="399" y="436" type="line"/>
      <point x="513" y="436" type="line"/>
      <point x="515" y="446" type="line" smooth="yes"/>
      <point x="517" y="458"/>
      <point x="518" y="466"/>
      <point x="518" y="475" type="curve" smooth="yes"/>
      <point x="518" y="537"/>
      <point x="475" y="589"/>
      <point x="399" y="606" type="curve"/>
    </contour>
    <contour>
      <point x="365" y="255" type="curve" smooth="yes"/>
      <point x="365" y="224"/>
      <point x="347" y="206"/>
      <point x="312" y="199" type="curve"/>
      <point x="334" y="300" type="line"/>
      <point x="358" y="289"/>
      <point x="365" y="274"/>
    </contour>
    <contour>
      <point x="237" y="457" type="curve" smooth="yes"/>
      <point x="237" y="481"/>
      <point x="255" y="495"/>
      <point x="280" y="500" type="curve"/>
      <point x="263" y="418" type="line"/>
      <point x="243" y="427"/>
      <point x="237" y="440"/>
    </contour>
  </outline>
</glyph>
<glyph name="percent" format="1">
  <advance width="612"/>
  <unicode hex="0025"/>
  <outline>
    <contour>
      <point x="362" y="583" type="curve" smooth="yes"/>
      <point x="362" y="670"/>
      <point x="298" y="712"/>
      <point x="231" y="712" type="curve" smooth="yes"/>
      <point x="114" y="712"/>
      <point x="48" y="630"/>
      <point x="48" y="537" type="curve" smooth="yes"/>
      <point x="48" y="454"/>
      <point x="112" y="412"/>
      <point x="190" y="412" type="curve" smooth="yes"/>
      <point x="274" y="412"/>
      <point x="362" y="482"/>
    </contour>
    <contour>
      <point x="196" y="496" type="curve" smooth="yes"/>
      <point x="163" y="496"/>
      <point x="140" y="513"/>
      <point x="140" y="548" type="curve" smooth="yes"/>
      <point x="140" y="589"/>
      <point x="172" y="628"/>
      <point x="214" y="628" type="curve" smooth="yes"/>
      <point x="248" y="628"/>
      <point x="270" y="610"/>
      <point x="270" y="574" type="curve" smooth="yes"/>
      <point x="270" y="529"/>
      <point x="236" y="496"/>
    </contour>
    <contour>
      <point x="561" y="159" type="curve" smooth="yes"/>
      <point x="561" y="246"/>
      <point x="497" y="288"/>
      <point x="430" y="288" type="curve" smooth="yes"/>
      <point x="313" y="288"/>
      <point x="247" y="206"/>
      <point x="247" y="113" type="curve" smooth="yes"/>
      <point x="247" y="30"/>
      <point x="311" y="-12"/>
      <point x="389" y="-12" type="curve" smooth="yes"/>
      <point x="473" y="-12"/>
      <point x="561" y="58"/>
    </contour>
    <contour>
      <point x="395" y="72" type="curve" smooth="yes"/>
      <point x="362" y="72"/>
      <point x="339" y="89"/>
      <point x="339" y="124" type="curve" smooth="yes"/>
      <point x="339" y="165"/>
      <point x="371" y="204"/>
      <point x="413" y="204" type="curve" smooth="yes"/>
      <point x="447" y="204"/>
      <point x="469" y="186"/>
      <point x="469" y="150" type="curve" smooth="yes"/>
      <point x="469" y="105"/>
      <point x="435" y="72"/>
    </contour>
    <component base="fraction" xOffset="5"/>
  </outline>
</glyph>
<glyph name="ampersand" format="1">
  <advance width="612"/>
  <unicode hex="0026"/>
  <outline>
    <contour>
      <point x="318" y="120" type="line"/>
      <point x="214" y="120" type="line" smooth="yes"/>
      <point x="168" y="120"/>
      <point x="134" y="142"/>
      <point x="134" y="188" type="curve" smooth="yes"/>
      <point x="134" y="254"/>
      <point x="188" y="294"/>
      <point x="250" y="294" type="curve" smooth="yes"/>
      <point x="355" y="294" type="line"/>
    </contour>
    <contour>
      <point x="398" y="496" type="line"/>
      <point x="380" y="414" type="line"/>
      <point x="278" y="414" type="line" smooth="yes"/>
      <point x="232" y="414"/>
      <point x="196" y="434"/>
      <point x="196" y="478" type="curve" smooth="yes"/>
      <point x="196" y="548"/>
      <point x="249" y="580"/>
      <point x="310" y="580" type="curve" smooth="yes"/>
      <point x="418" y="580" type="line"/>
      <point x="418" y="700" type="line"/>
      <point x="314" y="700" type="line" smooth="yes"/>
      <point x="160" y="700"/>
      <point x="71" y="610"/>
      <point x="71" y="488" type="curve" smooth="yes"/>
      <point x="71" y="416"/>
      <point x="114" y="380"/>
      <point x="162" y="360" type="curve"/>
      <point x="162" y="342" type="line"/>
      <point x="62" y="322"/>
      <point x="2" y="248"/>
      <point x="2" y="150" type="curve" smooth="yes"/>
      <point x="2" y="58"/>
      <point x="70" y="0"/>
      <point x="176" y="0" type="curve" smooth="yes"/>
      <point x="418" y="0" type="line"/>
      <point x="479" y="288" type="line"/>
      <point x="586" y="288" type="line"/>
      <point x="586" y="414" type="line"/>
      <point x="506" y="414" type="line"/>
      <point x="524" y="496" type="line"/>
    </contour>
  </outline>
</glyph>
<glyph name="quotesingle" format="1">
  <advance width="612"/>
  <unicode hex="0027"/>
  <outline>
    <contour>
      <point x="273" y="420" type="line"/>
      <point x="349" y="405" type="line"/>
      <point x="375" y="526" type="line"/>
      <point x="421" y="538"/>
      <point x="449" y="578"/>
      <point x="449" y="620" type="curve" smooth="yes"/>
      <point x="449" y="672"/>
      <point x="407" y="714"/>
      <point x="355" y="714" type="curve" smooth="yes"/>
      <point x="303" y="714"/>
      <point x="260" y="672"/>
      <point x="260" y="620" type="curve" smooth="yes"/>
      <point x="260" y="589"/>
      <point x="276" y="560"/>
      <point x="300" y="542" type="curve"/>
    </contour>
  </outline>
</glyph>
<glyph name="parenright" format="1">
  <advance width="612"/>
  <unicode hex="0029"/>
  <outline>
    <contour>
      <point x="224" y="730" type="line" smooth="yes"/>
      <point x="305" y="730"/>
      <point x="408" y="694"/>
      <point x="408" y="551" type="curve" smooth="yes"/>
      <point x="408" y="528"/>
      <point x="405" y="501"/>
      <point x="399" y="472" type="curve" smooth="yes"/>
      <point x="348" y="228" type="line" smooth="yes"/>
      <point x="311" y="50"/>
      <point x="220" y="-30"/>
      <point x="58" y="-30" type="curve" smooth="yes"/>
      <point x="0" y="-30" type="line"/>
      <point x="0" y="-156" type="line"/>
      <point x="44" y="-156" type="line" smooth="yes"/>
      <point x="266" y="-156"/>
      <point x="417" y="-58"/>
      <point x="473" y="206" type="curve" smooth="yes"/>
      <point x="528" y="464" type="line" smooth="yes"/>
      <point x="536" y="501"/>
      <point x="540" y="535"/>
      <point x="540" y="567" type="curve" smooth="yes"/>
      <point x="540" y="751"/>
      <point x="417" y="856"/>
      <point x="257" y="856" type="curve" smooth="yes"/>
      <point x="176" y="856" type="line"/>
      <point x="176" y="730" type="line"/>
    </contour>
  </outline>
</glyph>
<glyph name="asterisk" format="1">
  <advance width="612"/>
  <unicode hex="002A"/>
  <outline>
    <contour>
      <point x="481" y="168" type="line"/>
      <point x="425" y="254" type="line"/>
      <point x="359" y="302" type="line"/>
      <point x="369" y="316" type="line"/>
      <point x="435" y="274" type="line"/>
      <point x="539" y="251" type="line"/>
      <point x="559" y="345" type="line"/>
      <point x="455" y="367" type="line"/>
      <point x="378" y="355" type="line"/>
      <point x="374" y="372" type="line"/>
      <point x="453" y="389" type="line"/>
      <point x="540" y="445" type="line"/>
      <point x="488" y="525" type="line"/>
      <point x="402" y="469" type="line"/>
      <point x="354" y="403" type="line"/>
      <point x="340" y="413" type="line"/>
      <point x="382" y="479" type="line"/>
      <point x="405" y="583" type="line"/>
      <point x="311" y="603" type="line"/>
      <point x="289" y="499" type="line"/>
      <point x="301" y="422" type="line"/>
      <point x="284" y="418" type="line"/>
      <point x="267" y="497" type="line"/>
      <point x="211" y="584" type="line"/>
      <point x="131" y="532" type="line"/>
      <point x="187" y="446" type="line"/>
      <point x="253" y="398" type="line"/>
      <point x="243" y="384" type="line"/>
      <point x="177" y="426" type="line"/>
      <point x="73" y="449" type="line"/>
      <point x="53" y="355" type="line"/>
      <point x="157" y="333" type="line"/>
      <point x="234" y="345" type="line"/>
      <point x="238" y="328" type="line"/>
      <point x="159" y="311" type="line"/>
      <point x="72" y="255" type="line"/>
      <point x="124" y="175" type="line"/>
      <point x="210" y="231" type="line"/>
      <point x="258" y="297" type="line"/>
      <point x="272" y="287" type="line"/>
      <point x="230" y="221" type="line"/>
      <point x="207" y="117" type="line"/>
      <point x="301" y="97" type="line"/>
      <point x="323" y="201" type="line"/>
      <point x="311" y="278" type="line"/>
      <point x="328" y="282" type="line"/>
      <point x="345" y="203" type="line"/>
      <point x="401" y="116" type="line"/>
    </contour>
  </outline>
</glyph>
<glyph name="plus" format="1">
  <advance width="612"/>
  <unicode hex="002B"/>
  <outline>
    <contour>
      <point x="96" y="293" type="line"/>
      <point x="236" y="293" type="line"/>
      <point x="204" y="141" type="line"/>
      <point x="318" y="141" type="line"/>
      <point x="350" y="293" type="line"/>
      <point x="514" y="293" type="line"/>
      <point x="514" y="407" type="line"/>
      <point x="375" y="407" type="line"/>
      <point x="407" y="559" type="line"/>
      <point x="293" y="559" type="line"/>
      <point x="261" y="407" type="line"/>
      <point x="96" y="407" type="line"/>
    </contour>
  </outline>
</glyph>
<glyph name="period" format="1">
  <advance width="612"/>
  <unicode hex="002E"/>
  <outline>
    <contour>
      <point x="401" y="81" type="curve"/>
      <point x="401" y="134"/>
      <point x="358" y="176"/>
      <point x="306" y="176" type="curve" smooth="yes"/>
      <point x="254" y="176"/>
      <point x="211" y="134"/>
      <point x="211" y="81" type="curve" smooth="yes"/>
      <point x="211" y="28"/>
      <point x="254" y="-14"/>
      <point x="306" y="-14" type="curve" smooth="yes"/>
      <point x="358" y="-14"/>
      <point x="401" y="28"/>
    </contour>
  </outline>
</glyph>
<glyph name="zero" format="1">
  <advance width="612"/>
  <unicode hex="0030"/>
  <outline>
    <contour>
      <point x="223" y="350" type="curve" smooth="yes"/>
      <point x="223" y="305"/>
      <point x="262" y="266"/>
      <point x="307" y="266" type="curve" smooth="yes"/>
      <point x="352" y="266"/>
      <point x="391" y="305"/>
      <point x="391" y="350" type="curve" smooth="yes"/>
      <point x="391" y="395"/>
      <point x="352" y="434"/>
      <point x="307" y="434" type="curve" smooth="yes"/>
      <point x="262" y="434"/>
      <point x="223" y="395"/>
    </contour>
    <contour>
      <point x="32" y="272" type="line" smooth="yes"/>
      <point x="27" y="249"/>
      <point x="25" y="227"/>
      <point x="25" y="205" type="curve" smooth="yes"/>
      <point x="25" y="82"/>
      <point x="103" y="-14"/>
      <point x="237" y="-14" type="curve" smooth="yes"/>
      <point x="407" y="-14"/>
      <point x="507" y="76"/>
      <point x="548" y="272" type="curve" smooth="yes"/>
      <point x="581" y="428" type="line" smooth="yes"/>
      <point x="586" y="451"/>
      <point x="588" y="473"/>
      <point x="588" y="495" type="curve" smooth="yes"/>
      <point x="588" y="618"/>
      <point x="510" y="714"/>
      <point x="376" y="714" type="curve" smooth="yes"/>
      <point x="206" y="714"/>
      <point x="106" y="624"/>
      <point x="65" y="428" type="curve" smooth="yes"/>
    </contour>
    <contour>
      <point x="257" y="106" type="curve" smooth="yes"/>
      <point x="189" y="106"/>
      <point x="156" y="148"/>
      <point x="156" y="213" type="curve" smooth="yes"/>
      <point x="156" y="229"/>
      <point x="158" y="246"/>
      <point x="162" y="264" type="curve" smooth="yes"/>
      <point x="201" y="444" type="line" smooth="yes"/>
      <point x="220" y="532"/>
      <point x="268" y="594"/>
      <point x="356" y="594" type="curve" smooth="yes"/>
      <point x="424" y="594"/>
      <point x="457" y="552"/>
      <point x="457" y="487" type="curve" smooth="yes"/>
      <point x="457" y="471"/>
      <point x="455" y="454"/>
      <point x="451" y="436" type="curve" smooth="yes"/>
      <point x="412" y="256" type="line" smooth="yes"/>
      <point x="393" y="168"/>
      <point x="345" y="106"/>
    </contour>
  </outline>
</glyph>
<glyph name="three" format="1">
  <advance width="612"/>
  <unicode hex="0033"/>
  <outline>
    <contour>
      <point x="244" y="300" type="line"/>
      <point x="244" y="508" type="line"/>
      <point x="453" y="556" type="line"/>
      <point x="453" y="574" type="line"/>
      <point x="133" y="574" type="line"/>
      <point x="133" y="700" type="line"/>
      <point x="561" y="700" type="line"/>
      <point x="561" y="480" type="line"/>
      <point x="342" y="426" type="line"/>
      <point x="342" y="408" type="line"/>
      <point x="365" y="408" type="line" smooth="yes"/>
      <point x="452" y="408"/>
      <point x="536" y="349"/>
      <point x="536" y="232" type="curve" smooth="yes"/>
      <point x="536" y="86"/>
      <point x="426" y="-14"/>
      <point x="254" y="-14" type="curve" smooth="yes"/>
      <point x="116" y="-14"/>
      <point x="24" y="70"/>
      <point x="24" y="188" type="curve" smooth="yes"/>
      <point x="24" y="205"/>
      <point x="26" y="223"/>
      <point x="30" y="241" type="curve" smooth="yes"/>
      <point x="35" y="266" type="line"/>
      <point x="167" y="266" type="line"/>
      <point x="163" y="245" type="line" smooth="yes"/>
      <point x="160" y="229"/>
      <point x="159" y="221"/>
      <point x="159" y="210" type="curve" smooth="yes"/>
      <point x="159" y="151"/>
      <point x="197" y="112"/>
      <point x="268" y="112" type="curve" smooth="yes"/>
      <point x="344" y="112"/>
      <point x="399" y="150"/>
      <point x="399" y="218" type="curve" smooth="yes"/>
      <point x="399" y="268"/>
      <point x="362" y="300"/>
      <point x="304" y="300" type="curve" smooth="yes"/>
    </contour>
  </outline>
</glyph>
<glyph name="five" format="1">
  <advance width="612"/>
  <unicode hex="0035"/>
  <outline>
    <contour>
      <point x="49" y="312" type="line"/>
      <point x="131" y="700" type="line"/>
      <point x="579" y="700" type="line"/>
      <point x="579" y="574" type="line"/>
      <point x="237" y="574" type="line"/>
      <point x="196" y="384" type="line"/>
      <point x="214" y="384" type="line"/>
      <point x="243" y="442"/>
      <point x="293" y="480"/>
      <point x="379" y="480" type="curve" smooth="yes"/>
      <point x="485" y="480"/>
      <point x="559" y="404"/>
      <point x="559" y="281" type="curve" smooth="yes"/>
      <point x="559" y="120"/>
      <point x="449" y="-14"/>
      <point x="251" y="-14" type="curve" smooth="yes"/>
      <point x="107" y="-14"/>
      <point x="13" y="64"/>
      <point x="13" y="177" type="curve" smooth="yes"/>
      <point x="13" y="191"/>
      <point x="15" y="207"/>
      <point x="18" y="222" type="curve" smooth="yes"/>
      <point x="23" y="246" type="line"/>
      <point x="155" y="246" type="line"/>
      <point x="152" y="232" type="line" smooth="yes"/>
      <point x="149" y="219"/>
      <point x="148" y="213"/>
      <point x="148" y="203" type="curve" smooth="yes"/>
      <point x="148" y="150"/>
      <point x="187" y="112"/>
      <point x="271" y="112" type="curve" smooth="yes"/>
      <point x="360" y="112"/>
      <point x="422" y="174"/>
      <point x="422" y="256" type="curve" smooth="yes"/>
      <point x="422" y="326"/>
      <point x="386" y="354"/>
      <point x="338" y="354" type="curve" smooth="yes"/>
      <point x="300" y="354"/>
      <point x="277" y="334"/>
      <point x="265" y="312" type="curve"/>
    </contour>
  </outline>
</glyph>
<glyph name="eight" format="1">
  <advance width="612"/>
  <unicode hex="0038"/>
  <outline>
    <contour>
      <point x="242" y="-14" type="curve"/>
      <point x="430" y="-14"/>
      <point x="531" y="84"/>
      <point x="531" y="212" type="curve" smooth="yes"/>
      <point x="531" y="290"/>
      <point x="490" y="334"/>
      <point x="437" y="354" type="curve"/>
      <point x="437" y="372" type="line"/>
      <point x="522" y="390"/>
      <point x="585" y="448"/>
      <point x="585" y="540" type="curve" smooth="yes"/>
      <point x="585" y="660"/>
      <point x="478" y="714"/>
      <point x="369" y="714" type="curve" smooth="yes"/>
      <point x="216" y="714"/>
      <point x="101" y="630"/>
      <point x="101" y="500" type="curve" smooth="yes"/>
      <point x="101" y="424"/>
      <point x="144" y="390"/>
      <point x="179" y="372" type="curve"/>
      <point x="179" y="354" type="line"/>
      <point x="78" y="336"/>
      <point x="11" y="268"/>
      <point x="11" y="169" type="curve" smooth="yes"/>
      <point x="11" y="70"/>
      <point x="91" y="-13"/>
    </contour>
    <contour>
      <point x="256" y="112" type="curve"/>
      <point x="188" y="112"/>
      <point x="150" y="146"/>
      <point x="150" y="190" type="curve" smooth="yes"/>
      <point x="150" y="264"/>
      <point x="215" y="300"/>
      <point x="288" y="300" type="curve" smooth="yes"/>
      <point x="363" y="300"/>
      <point x="400" y="263"/>
      <point x="400" y="219" type="curve" smooth="yes"/>
      <point x="400" y="146"/>
      <point x="336" y="112"/>
    </contour>
    <contour>
      <point x="354" y="588" type="curve" smooth="yes"/>
      <point x="410" y="588"/>
      <point x="446" y="560"/>
      <point x="446" y="517" type="curve" smooth="yes"/>
      <point x="446" y="459"/>
      <point x="387" y="426"/>
      <point x="322" y="426" type="curve" smooth="yes"/>
      <point x="268" y="426"/>
      <point x="232" y="455"/>
      <point x="232" y="494" type="curve" smooth="yes"/>
      <point x="232" y="558"/>
      <point x="290" y="588"/>
    </contour>
  </outline>
</glyph>
<glyph name="semicolon" format="1">
  <advance width="612"/>
  <unicode hex="003B"/>
  <outline>
    <contour>
      <point x="420" y="415" type="curve" smooth="yes"/>
      <point x="420" y="468"/>
      <point x="377" y="510"/>
      <point x="325" y="510" type="curve" smooth="yes"/>
      <point x="273" y="510"/>
      <point x="230" y="468"/>
      <point x="230" y="415" type="curve" smooth="yes"/>
      <point x="230" y="362"/>
      <point x="273" y="320"/>
      <point x="325" y="320" type="curve" smooth="yes"/>
      <point x="377" y="320"/>
      <point x="420" y="362"/>
    </contour>
    <contour>
      <point x="164" y="82" type="curve" smooth="yes"/>
      <point x="164" y="22"/>
      <point x="211" y="-8"/>
      <point x="256" y="-8" type="curve"/>
      <point x="253" y="-25" type="line" smooth="yes"/>
      <point x="249" y="-45"/>
      <point x="238" y="-53"/>
      <point x="216" y="-53" type="curve" smooth="yes"/>
      <point x="140" y="-53" type="line"/>
      <point x="140" y="-131" type="line"/>
      <point x="222" y="-131" type="line" smooth="yes"/>
      <point x="276" y="-131"/>
      <point x="316" y="-108"/>
      <point x="327" y="-58" type="curve" smooth="yes"/>
      <point x="352" y="61" type="line" smooth="yes"/>
      <point x="353" y="68"/>
      <point x="354" y="75"/>
      <point x="354" y="81" type="curve" smooth="yes"/>
      <point x="354" y="134"/>
      <point x="311" y="176"/>
      <point x="259" y="176" type="curve" smooth="yes"/>
      <point x="207" y="176"/>
      <point x="164" y="136"/>
    </contour>
  </outline>
</glyph>
<glyph name="less" format="1">
  <advance width="612"/>
  <unicode hex="003C"/>
  <outline>
    <contour>
      <point x="468" y="130" type="line"/>
      <point x="468" y="250" type="line"/>
      <point x="173" y="334" type="line"/>
      <point x="173" y="351" type="line"/>
      <point x="561" y="449" type="line"/>
      <point x="561" y="570" type="line"/>
      <point x="95" y="448" type="line"/>
      <point x="95" y="240" type="line"/>
    </contour>
  </outline>
</glyph>
<glyph name="question" format="1">
  <advance width="612"/>
  <unicode hex="003F"/>
  <outline>
    <contour>
      <point x="312" y="390" type="line" smooth="yes"/>
      <point x="254" y="390"/>
      <point x="213" y="354"/>
      <point x="201" y="298" type="curve" smooth="yes"/>
      <point x="184" y="218" type="line"/>
      <point x="310" y="218" type="line"/>
      <point x="316" y="244" type="line" smooth="yes"/>
      <point x="320" y="264"/>
      <point x="332" y="275"/>
      <point x="354" y="275" type="curve" smooth="yes"/>
      <point x="494" y="275"/>
      <point x="582" y="400"/>
      <point x="582" y="520" type="curve" smooth="yes"/>
      <point x="582" y="626"/>
      <point x="498" y="714"/>
      <point x="370" y="714" type="curve" smooth="yes"/>
      <point x="212" y="714"/>
      <point x="119" y="620"/>
      <point x="90" y="482" type="curve" smooth="yes"/>
      <point x="80" y="434" type="line"/>
      <point x="212" y="434" type="line"/>
      <point x="219" y="470" type="line" smooth="yes"/>
      <point x="231" y="534"/>
      <point x="280" y="588"/>
      <point x="354" y="588" type="curve" smooth="yes"/>
      <point x="414" y="588"/>
      <point x="447" y="552"/>
      <point x="447" y="508" type="curve" smooth="yes"/>
      <point x="447" y="442"/>
      <point x="404" y="390"/>
      <point x="334" y="390" type="curve" smooth="yes"/>
    </contour>
    <contour>
      <point x="324" y="81" type="curve" smooth="yes"/>
      <point x="324" y="134"/>
      <point x="281" y="176"/>
      <point x="229" y="176" type="curve" smooth="yes"/>
      <point x="177" y="176"/>
      <point x="134" y="134"/>
      <point x="134" y="81" type="curve" smooth="yes"/>
      <point x="134" y="28"/>
      <point x="177" y="-14"/>
      <point x="229" y="-14" type="curve" smooth="yes"/>
      <point x="281" y="-14"/>
      <point x="324" y="28"/>
    </contour>
  </outline>
</glyph>
<glyph name="B" format="1">
  <advance width="612"/>
  <unicode hex="0042"/>
  <outline>
    <contour>
      <point x="2" y="0" type="line"/>
      <point x="274" y="0" type="line" smooth="yes"/>
      <point x="418" y="0"/>
      <point x="522" y="93"/>
      <point x="522" y="210" type="curve" smooth="yes"/>
      <point x="522" y="284"/>
      <point x="485" y="324"/>
      <point x="432" y="340" type="curve"/>
      <point x="432" y="358" type="line"/>
      <point x="519" y="379"/>
      <point x="591" y="437"/>
      <point x="591" y="537" type="curve" smooth="yes"/>
      <point x="591" y="628"/>
      <point x="530" y="700"/>
      <point x="396" y="700" type="curve" smooth="yes"/>
      <point x="97" y="700" type="line"/>
      <point x="97" y="574" type="line"/>
      <point x="163" y="574" type="line"/>
      <point x="68" y="126" type="line"/>
      <point x="2" y="126" type="line"/>
    </contour>
    <contour>
      <point x="232" y="288" type="line"/>
      <point x="318" y="288" type="line" smooth="yes"/>
      <point x="367" y="288"/>
      <point x="398" y="268"/>
      <point x="398" y="219" type="curve" smooth="yes"/>
      <point x="398" y="159"/>
      <point x="349" y="126"/>
      <point x="284" y="126" type="curve" smooth="yes"/>
      <point x="198" y="126" type="line"/>
    </contour>
    <contour>
      <point x="293" y="574" type="line"/>
      <point x="379" y="574" type="line" smooth="yes"/>
      <point x="428" y="574"/>
      <point x="458" y="551"/>
      <point x="458" y="507" type="curve" smooth="yes"/>
      <point x="458" y="446"/>
      <point x="414" y="414"/>
      <point x="345" y="414" type="curve" smooth="yes"/>
      <point x="259" y="414" type="line"/>
    </contour>
  </outline>
</glyph>
<glyph name="C" format="1">
  <advance width="612"/>
  <unicode hex="0043"/>
  <outline>
    <contour>
      <point x="255" y="106" type="curve" smooth="yes"/>
      <point x="182" y="106"/>
      <point x="153" y="145"/>
      <point x="153" y="205" type="curve" smooth="yes"/>
      <point x="153" y="222"/>
      <point x="156" y="242"/>
      <point x="160" y="262" type="curve" smooth="yes"/>
      <point x="197" y="438" type="line" smooth="yes"/>
      <point x="215" y="522"/>
      <point x="270" y="594"/>
      <point x="358" y="594" type="curve" smooth="yes"/>
      <point x="433" y="594"/>
      <point x="459" y="552"/>
      <point x="459" y="500" type="curve" smooth="yes"/>
      <point x="459" y="485"/>
      <point x="457" y="470"/>
      <point x="453" y="454" type="curve" smooth="yes"/>
      <point x="449" y="436" type="line"/>
      <point x="581" y="436" type="line"/>
      <point x="585" y="454" type="line" smooth="yes"/>
      <point x="589" y="474"/>
      <point x="592" y="492"/>
      <point x="592" y="511" type="curve" smooth="yes"/>
      <point x="592" y="624"/>
      <point x="513" y="714"/>
      <point x="379" y="714" type="curve" smooth="yes"/>
      <point x="211" y="714"/>
      <point x="104" y="620"/>
      <point x="63" y="428" type="curve" smooth="yes"/>
      <point x="30" y="272" type="line" smooth="yes"/>
      <point x="24" y="242"/>
      <point x="21" y="219"/>
      <point x="21" y="195" type="curve" smooth="yes"/>
      <point x="21" y="63"/>
      <point x="107" y="-14"/>
      <point x="233" y="-14" type="curve" smooth="yes"/>
      <point x="417" y="-14"/>
      <point x="502" y="73"/>
      <point x="540" y="246" type="curve" smooth="yes"/>
      <point x="544" y="264" type="line"/>
      <point x="412" y="264" type="line"/>
      <point x="408" y="246" type="line" smooth="yes"/>
      <point x="392" y="176"/>
      <point x="355" y="106"/>
    </contour>
  </outline>
</glyph>
<glyph name="G" format="1">
  <advance width="612"/>
  <unicode hex="0047"/>
  <outline>
    <contour>
      <point x="252" y="228" type="line"/>
      <point x="406" y="228" type="line"/>
      <point x="391" y="158"/>
      <point x="339" y="112"/>
      <point x="261" y="112" type="curve" smooth="yes"/>
      <point x="197" y="112"/>
      <point x="157" y="148"/>
      <point x="157" y="220" type="curve" smooth="yes"/>
      <point x="157" y="236"/>
      <point x="158" y="250"/>
      <point x="163" y="274" type="curve" smooth="yes"/>
      <point x="195" y="422" type="line" smooth="yes"/>
      <point x="221" y="544"/>
      <point x="284" y="588"/>
      <point x="358" y="588" type="curve" smooth="yes"/>
      <point x="424" y="588"/>
      <point x="460" y="554"/>
      <point x="460" y="499" type="curve" smooth="yes"/>
      <point x="460" y="487"/>
      <point x="459" y="476"/>
      <point x="455" y="460" type="curve" smooth="yes"/>
      <point x="452" y="448" type="line"/>
      <point x="584" y="448" type="line"/>
      <point x="587" y="460" type="line" smooth="yes"/>
      <point x="591" y="477"/>
      <point x="594" y="499"/>
      <point x="594" y="518" type="curve" smooth="yes"/>
      <point x="594" y="625"/>
      <point x="516" y="714"/>
      <point x="382" y="714" type="curve" smooth="yes"/>
      <point x="214" y="714"/>
      <point x="106" y="624"/>
      <point x="65" y="432" type="curve" smooth="yes"/>
      <point x="30" y="268" type="line" smooth="yes"/>
      <point x="23" y="235"/>
      <point x="20" y="208"/>
      <point x="20" y="182" type="curve" smooth="yes"/>
      <point x="20" y="54"/>
      <point x="95" y="-14"/>
      <point x="200" y="-14" type="curve" smooth="yes"/>
      <point x="290" y="-14"/>
      <point x="342" y="26"/>
      <point x="368" y="78" type="curve"/>
      <point x="386" y="78" type="line"/>
      <point x="369" y="0" type="line"/>
      <point x="489" y="0" type="line"/>
      <point x="561" y="342" type="line"/>
      <point x="561" y="354" type="line"/>
      <point x="252" y="354" type="line"/>
    </contour>
  </outline>
</glyph>
<glyph name="J" format="1">
  <advance width="612"/>
  <unicode hex="004A"/>
  <outline>
    <contour>
      <point x="554" y="576" type="line"/>
      <point x="621" y="576" type="line"/>
      <point x="621" y="700" type="line"/>
      <point x="347" y="700" type="line"/>
      <point x="347" y="576" type="line"/>
      <point x="422" y="576" type="line"/>
      <point x="344" y="210" type="line" smooth="yes"/>
      <point x="331" y="146"/>
      <point x="290" y="110"/>
      <point x="233" y="110" type="curve" smooth="yes"/>
      <point x="182" y="110"/>
      <point x="155" y="136"/>
      <point x="155" y="181" type="curve" smooth="yes"/>
      <point x="155" y="190"/>
      <point x="156" y="201"/>
      <point x="158" y="210" type="curve" smooth="yes"/>
      <point x="172" y="276" type="line"/>
      <point x="40" y="276" type="line"/>
      <point x="30" y="229" type="line" smooth="yes"/>
      <point x="25" y="207"/>
      <point x="23" y="186"/>
      <point x="23" y="167" type="curve" smooth="yes"/>
      <point x="23" y="51"/>
      <point x="104" y="-14"/>
      <point x="215" y="-14" type="curve" smooth="yes"/>
      <point x="363" y="-14"/>
      <point x="442" y="52"/>
      <point x="476" y="210" type="curve" smooth="yes"/>
    </contour>
  </outline>
</glyph>
<glyph name="O" format="1">
  <advance width="612"/>
  <unicode hex="004F"/>
  <outline>
    <contour>
      <point x="32" y="272" type="line" smooth="yes"/>
      <point x="27" y="249"/>
      <point x="25" y="226"/>
      <point x="25" y="204" type="curve" smooth="yes"/>
      <point x="25" y="80"/>
      <point x="104" y="-14"/>
      <point x="245" y="-14" type="curve" smooth="yes"/>
      <point x="413" y="-14"/>
      <point x="507" y="76"/>
      <point x="548" y="272" type="curve" smooth="yes"/>
      <point x="581" y="428" type="line" smooth="yes"/>
      <point x="586" y="451"/>
      <point x="588" y="474"/>
      <point x="588" y="496" type="curve" smooth="yes"/>
      <point x="588" y="620"/>
      <point x="509" y="714"/>
      <point x="368" y="714" type="curve" smooth="yes"/>
      <point x="200" y="714"/>
      <point x="106" y="624"/>
      <point x="65" y="428" type="curve" smooth="yes"/>
    </contour>
    <contour>
      <point x="257" y="106" type="curve" smooth="yes"/>
      <point x="193" y="106"/>
      <point x="156" y="147"/>
      <point x="156" y="214" type="curve" smooth="yes"/>
      <point x="156" y="229"/>
      <point x="158" y="246"/>
      <point x="162" y="264" type="curve" smooth="yes"/>
      <point x="199" y="436" type="line" smooth="yes"/>
      <point x="218" y="524"/>
      <point x="265" y="594"/>
      <point x="356" y="594" type="curve" smooth="yes"/>
      <point x="420" y="594"/>
      <point x="457" y="553"/>
      <point x="457" y="486" type="curve" smooth="yes"/>
      <point x="457" y="471"/>
      <point x="455" y="457"/>
      <point x="451" y="436" type="curve" smooth="yes"/>
      <point x="414" y="264" type="line" smooth="yes"/>
      <point x="395" y="176"/>
      <point x="348" y="106"/>
    </contour>
  </outline>
</glyph>
<glyph name="P" format="1">
  <advance width="612"/>
  <unicode hex="0050"/>
  <outline>
    <contour>
      <point x="324" y="264" type="line" smooth="yes"/>
      <point x="484" y="264"/>
      <point x="590" y="364"/>
      <point x="590" y="514" type="curve" smooth="yes"/>
      <point x="590" y="620"/>
      <point x="516" y="700"/>
      <point x="398" y="700" type="curve" smooth="yes"/>
      <point x="148" y="700" type="line"/>
      <point x="0" y="0" type="line"/>
      <point x="131" y="0" type="line"/>
      <point x="187" y="264" type="line"/>
    </contour>
    <contour>
      <point x="253" y="574" type="line"/>
      <point x="370" y="574" type="line" smooth="yes"/>
      <point x="420" y="574"/>
      <point x="455" y="547"/>
      <point x="455" y="498" type="curve" smooth="yes"/>
      <point x="455" y="435"/>
      <point x="403" y="390"/>
      <point x="336" y="390" type="curve" smooth="yes"/>
      <point x="214" y="390" type="line"/>
    </contour>
  </outline>
</glyph>
<glyph name="Q" format="1">
  <advance width="612"/>
  <unicode hex="0051"/>
  <outline>
    <contour>
      <point x="32" y="272" type="line" smooth="yes"/>
      <point x="27" y="249"/>
      <point x="25" y="226"/>
      <point x="25" y="204" type="curve" smooth="yes"/>
      <point x="25" y="109"/>
      <point x="70" y="32"/>
      <point x="154" y="1" type="curve"/>
      <point x="140" y="-60" type="line" smooth="yes"/>
      <point x="138" y="-70"/>
      <point x="136" y="-80"/>
      <point x="136" y="-90" type="curve" smooth="yes"/>
      <point x="136" y="-139"/>
      <point x="174" y="-174"/>
      <point x="230" y="-174" type="curve" smooth="yes"/>
      <point x="349" y="-174" type="line"/>
      <point x="349" y="-54" type="line"/>
      <point x="293" y="-54" type="line" smooth="yes"/>
      <point x="279" y="-54"/>
      <point x="271" y="-47"/>
      <point x="271" y="-35" type="curve" smooth="yes"/>
      <point x="271" y="-32"/>
      <point x="271" y="-31"/>
      <point x="272" y="-26" type="curve" smooth="yes"/>
      <point x="275" y="-13" type="line"/>
      <point x="424" y="-2"/>
      <point x="509" y="88"/>
      <point x="548" y="272" type="curve" smooth="yes"/>
      <point x="581" y="428" type="line" smooth="yes"/>
      <point x="586" y="451"/>
      <point x="588" y="474"/>
      <point x="588" y="496" type="curve" smooth="yes"/>
      <point x="588" y="620"/>
      <point x="509" y="714"/>
      <point x="368" y="714" type="curve" smooth="yes"/>
      <point x="200" y="714"/>
      <point x="106" y="624"/>
      <point x="65" y="428" type="curve" smooth="yes"/>
    </contour>
    <contour>
      <point x="257" y="106" type="curve" smooth="yes"/>
      <point x="193" y="106"/>
      <point x="156" y="147"/>
      <point x="156" y="214" type="curve" smooth="yes"/>
      <point x="156" y="229"/>
      <point x="158" y="246"/>
      <point x="162" y="264" type="curve" smooth="yes"/>
      <point x="199" y="436" type="line" smooth="yes"/>
      <point x="218" y="524"/>
      <point x="265" y="594"/>
      <point x="356" y="594" type="curve" smooth="yes"/>
      <point x="420" y="594"/>
      <point x="457" y="553"/>
      <point x="457" y="486" type="curve" smooth="yes"/>
      <point x="457" y="471"/>
      <point x="455" y="457"/>
      <point x="451" y="436" type="curve" smooth="yes"/>
      <point x="414" y="264" type="line" smooth="yes"/>
      <point x="395" y="176"/>
      <point x="348" y="106"/>
    </contour>
  </outline>
</glyph>
<glyph name="R" format="1">
  <advance width="612"/>
  <unicode hex="0052"/>
  <outline>
    <contour>
      <point x="516" y="242" type="line" smooth="yes"/>
      <point x="517" y="247"/>
      <point x="518" y="254"/>
      <point x="518" y="262" type="curve" smooth="yes"/>
      <point x="518" y="298"/>
      <point x="497" y="323"/>
      <point x="458" y="327" type="curve"/>
      <point x="458" y="345" type="line"/>
      <point x="549" y="375"/>
      <point x="594" y="435"/>
      <point x="594" y="532" type="curve" smooth="yes"/>
      <point x="594" y="624"/>
      <point x="526" y="700"/>
      <point x="394" y="700" type="curve" smooth="yes"/>
      <point x="148" y="700" type="line"/>
      <point x="0" y="0" type="line"/>
      <point x="131" y="0" type="line"/>
      <point x="187" y="264" type="line"/>
      <point x="332" y="264" type="line" smooth="yes"/>
      <point x="363" y="264"/>
      <point x="377" y="249"/>
      <point x="377" y="226" type="curve" smooth="yes"/>
      <point x="377" y="221"/>
      <point x="376" y="215"/>
      <point x="375" y="210" type="curve" smooth="yes"/>
      <point x="330" y="0" type="line"/>
      <point x="464" y="0" type="line"/>
    </contour>
    <contour>
      <point x="253" y="574" type="line"/>
      <point x="372" y="574" type="line" smooth="yes"/>
      <point x="428" y="574"/>
      <point x="455" y="544"/>
      <point x="455" y="494" type="curve" smooth="yes"/>
      <point x="455" y="431"/>
      <point x="404" y="390"/>
      <point x="334" y="390" type="curve" smooth="yes"/>
      <point x="214" y="390" type="line"/>
    </contour>
  </outline>
</glyph>
<glyph name="S" format="1">
  <advance width="612"/>
  <unicode hex="0053"/>
  <outline>
    <contour>
      <point x="454" y="462" type="line"/>
      <point x="586" y="462" type="line"/>
      <point x="590" y="480" type="line" smooth="yes"/>
      <point x="594" y="499"/>
      <point x="595" y="512"/>
      <point x="595" y="527" type="curve" smooth="yes"/>
      <point x="595" y="634"/>
      <point x="507" y="714"/>
      <point x="358" y="714" type="curve" smooth="yes"/>
      <point x="183" y="714"/>
      <point x="87" y="620"/>
      <point x="87" y="494" type="curve" smooth="yes"/>
      <point x="87" y="371"/>
      <point x="180" y="318"/>
      <point x="273" y="304" type="curve" smooth="yes"/>
      <point x="371" y="289"/>
      <point x="410" y="263"/>
      <point x="410" y="213" type="curve" smooth="yes"/>
      <point x="410" y="149"/>
      <point x="357" y="110"/>
      <point x="270" y="110" type="curve" smooth="yes"/>
      <point x="189" y="110"/>
      <point x="148" y="149"/>
      <point x="148" y="212" type="curve" smooth="yes"/>
      <point x="148" y="228"/>
      <point x="149" y="241"/>
      <point x="152" y="255" type="curve" smooth="yes"/>
      <point x="156" y="272" type="line"/>
      <point x="24" y="272" type="line"/>
      <point x="19" y="249" type="line" smooth="yes"/>
      <point x="15" y="231"/>
      <point x="14" y="213"/>
      <point x="14" y="196" type="curve" smooth="yes"/>
      <point x="14" y="80"/>
      <point x="93" y="-14"/>
      <point x="262" y="-14" type="curve" smooth="yes"/>
      <point x="438" y="-14"/>
      <point x="550" y="80"/>
      <point x="550" y="231" type="curve" smooth="yes"/>
      <point x="550" y="345"/>
      <point x="474" y="400"/>
      <point x="350" y="420" type="curve" smooth="yes"/>
      <point x="262" y="434"/>
      <point x="225" y="459"/>
      <point x="225" y="506" type="curve" smooth="yes"/>
      <point x="225" y="563"/>
      <point x="284" y="590"/>
      <point x="346" y="590" type="curve" smooth="yes"/>
      <point x="423" y="590"/>
      <point x="460" y="554"/>
      <point x="460" y="502" type="curve" smooth="yes"/>
      <point x="460" y="493"/>
      <point x="459" y="485"/>
      <point x="457" y="475" type="curve" smooth="yes"/>
    </contour>
  </outline>
</glyph>
<glyph name="bracketleft" format="1">
  <advance width="612"/>
  <unicode hex="005B"/>
  <outline>
    <contour>
      <point x="158" y="-39" type="line" smooth="yes"/>
      <point x="156" y="-48"/>
      <point x="154" y="-60"/>
      <point x="154" y="-70" type="curve" smooth="yes"/>
      <point x="154" y="-125"/>
      <point x="192" y="-156"/>
      <point x="252" y="-156" type="curve" smooth="yes"/>
      <point x="385" y="-156" type="line"/>
      <point x="385" y="-36" type="line"/>
      <point x="313" y="-36" type="line" smooth="yes"/>
      <point x="297" y="-36"/>
      <point x="290" y="-28"/>
      <point x="290" y="-16" type="curve" smooth="yes"/>
      <point x="290" y="-16"/>
      <point x="290" y="-11"/>
      <point x="291" y="-6" type="curve" smooth="yes"/>
      <point x="442" y="706" type="line" smooth="yes"/>
      <point x="446" y="725"/>
      <point x="457" y="736"/>
      <point x="476" y="736" type="curve" smooth="yes"/>
      <point x="569" y="736" type="line"/>
      <point x="569" y="856" type="line"/>
      <point x="450" y="856" type="line" smooth="yes"/>
      <point x="390" y="856"/>
      <point x="339" y="814"/>
      <point x="326" y="754" type="curve" smooth="yes"/>
    </contour>
  </outline>
</glyph>
<glyph name="backslash" format="1">
  <advance width="612"/>
  <unicode hex="005C"/>
  <outline>
    <contour>
      <point x="315" y="825" type="line"/>
      <point x="196" y="813" type="line"/>
      <point x="296" y="-125" type="line"/>
      <point x="416" y="-113" type="line"/>
    </contour>
  </outline>
</glyph>
<glyph name="asciicircum" format="1">
  <advance width="612"/>
  <unicode hex="005E"/>
  <outline>
    <contour>
      <point x="77" y="424" type="line"/>
      <point x="216" y="424" type="line"/>
      <point x="352" y="634" type="line"/>
      <point x="370" y="634" type="line"/>
      <point x="434" y="424" type="line"/>
      <point x="560" y="424" type="line"/>
      <point x="470" y="700" type="line"/>
      <point x="268" y="700" type="line"/>
      <point x="77" y="436" type="line"/>
    </contour>
  </outline>
</glyph>
<glyph name="grave" format="1">
  <advance width="612"/>
  <unicode hex="0060"/>
  <outline>
    <contour>
      <point x="383" y="706" type="line"/>
      <point x="249" y="706" type="line"/>
      <point x="333" y="570" type="line"/>
      <point x="435" y="570" type="line"/>
    </contour>
  </outline>
</glyph>
<glyph name="b" format="1">
  <advance width="612"/>
  <unicode hex="0062"/>
  <outline>
    <contour>
      <point x="170" y="714" type="line"/>
      <point x="20" y="0" type="line"/>
      <point x="145" y="0" type="line"/>
      <point x="160" y="72" type="line"/>
      <point x="178" y="72" type="line"/>
      <point x="187" y="26"/>
      <point x="216" y="-14"/>
      <point x="304" y="-14" type="curve" smooth="yes"/>
      <point x="454" y="-14"/>
      <point x="577" y="114"/>
      <point x="577" y="320" type="curve" smooth="yes"/>
      <point x="577" y="434"/>
      <point x="512" y="510"/>
      <point x="410" y="510" type="curve" smooth="yes"/>
      <point x="340" y="510"/>
      <point x="287" y="480"/>
      <point x="253" y="424" type="curve"/>
      <point x="235" y="424" type="line"/>
      <point x="297" y="714" type="line"/>
    </contour>
    <contour>
      <point x="288" y="106" type="curve"/>
      <point x="228" y="106"/>
      <point x="193" y="144"/>
      <point x="193" y="208" type="curve" smooth="yes"/>
      <point x="193" y="310"/>
      <point x="252" y="390"/>
      <point x="344" y="390" type="curve" smooth="yes"/>
      <point x="406" y="390"/>
      <point x="446" y="350"/>
      <point x="446" y="288" type="curve" smooth="yes"/>
      <point x="446" y="190"/>
      <point x="384" y="108"/>
    </contour>
  </outline>
</glyph>
<glyph name="c" format="1">
  <advance width="612"/>
  <unicode hex="0063"/>
  <outline>
    <contour>
      <point x="417" y="213" type="line"/>
      <point x="393" y="146"/>
      <point x="349" y="106"/>
      <point x="266" y="106" type="curve" smooth="yes"/>
      <point x="205" y="106"/>
      <point x="160" y="141"/>
      <point x="160" y="217" type="curve" smooth="yes"/>
      <point x="160" y="312"/>
      <point x="231" y="390"/>
      <point x="327" y="390" type="curve" smooth="yes"/>
      <point x="403" y="390"/>
      <point x="435" y="350"/>
      <point x="435" y="283" type="curve"/>
      <point x="563" y="308" type="line"/>
      <point x="563" y="418"/>
      <point x="489" y="510"/>
      <point x="345" y="510" type="curve" smooth="yes"/>
      <point x="149" y="510"/>
      <point x="30" y="374"/>
      <point x="30" y="208" type="curve" smooth="yes"/>
      <point x="30" y="62"/>
      <point x="125" y="-14"/>
      <point x="243" y="-14" type="curve" smooth="yes"/>
      <point x="403" y="-14"/>
      <point x="497" y="64"/>
      <point x="534" y="182" type="curve"/>
    </contour>
  </outline>
</glyph>
<glyph name="g" format="1">
  <advance width="612"/>
  <unicode hex="0067"/>
  <outline>
    <contour>
      <point x="358" y="-50" type="line" smooth="yes"/>
      <point x="354" y="-69"/>
      <point x="344" y="-80"/>
      <point x="325" y="-80" type="curve" smooth="yes"/>
      <point x="67" y="-80" type="line"/>
      <point x="67" y="-200" type="line"/>
      <point x="375" y="-200" type="line" smooth="yes"/>
      <point x="420" y="-200"/>
      <point x="459" y="-167"/>
      <point x="469" y="-122" type="curve" smooth="yes"/>
      <point x="600" y="496" type="line"/>
      <point x="474" y="496" type="line"/>
      <point x="459" y="424" type="line"/>
      <point x="441" y="424" type="line"/>
      <point x="430" y="476"/>
      <point x="390" y="510"/>
      <point x="309" y="510" type="curve" smooth="yes"/>
      <point x="120" y="510"/>
      <point x="22" y="346"/>
      <point x="22" y="180" type="curve" smooth="yes"/>
      <point x="22" y="50"/>
      <point x="98" y="-14"/>
      <point x="194" y="-14" type="curve" smooth="yes"/>
      <point x="294" y="-14"/>
      <point x="338" y="28"/>
      <point x="366" y="72" type="curve"/>
      <point x="384" y="72" type="line"/>
    </contour>
    <contour>
      <point x="259" y="106" type="curve" smooth="yes"/>
      <point x="195" y="106"/>
      <point x="152" y="142"/>
      <point x="152" y="212" type="curve" smooth="yes"/>
      <point x="152" y="304"/>
      <point x="218" y="390"/>
      <point x="319" y="390" type="curve" smooth="yes"/>
      <point x="386" y="390"/>
      <point x="426" y="352"/>
      <point x="426" y="288" type="curve" smooth="yes"/>
      <point x="426" y="192"/>
      <point x="355" y="106"/>
    </contour>
  </outline>
</glyph>
<glyph name="k" format="1">
  <advance width="612"/>
  <unicode hex="006B"/>
  <outline>
    <contour>
      <point x="150" y="0" type="line"/>
      <point x="191" y="194" type="line"/>
      <point x="214" y="194" type="line"/>
      <point x="304" y="46" type="line"/>
      <point x="327" y="7"/>
      <point x="363" y="-14"/>
      <point x="405" y="-14" type="curve" smooth="yes"/>
      <point x="434" y="-14"/>
      <point x="466" y="-5"/>
      <point x="499" y="20" type="curve" smooth="yes"/>
      <point x="544" y="54" type="line"/>
      <point x="483" y="142" type="line"/>
      <point x="428" y="104" type="line"/>
      <point x="416" y="104" type="line"/>
      <point x="336" y="236" type="line"/>
      <point x="336" y="254" type="line"/>
      <point x="520" y="426" type="line"/>
      <point x="442" y="510" type="line"/>
      <point x="241" y="314" type="line"/>
      <point x="217" y="314" type="line"/>
      <point x="302" y="714" type="line"/>
      <point x="176" y="714" type="line"/>
      <point x="24" y="0" type="line"/>
    </contour>
  </outline>
</glyph>
<glyph name="l" format="1">
  <advance width="612"/>
  <unicode hex="006C"/>
  <outline>
    <contour>
      <point x="373" y="12" type="curve"/>
      <point x="518" y="110" type="line"/>
      <point x="455" y="204" type="line"/>
      <point x="321" y="112" type="line"/>
      <point x="311" y="119" type="line"/>
      <point x="420" y="574" type="line" smooth="yes"/>
      <point x="423" y="588"/>
      <point x="424" y="598"/>
      <point x="424" y="609" type="curve" smooth="yes"/>
      <point x="424" y="674"/>
      <point x="374" y="714"/>
      <point x="315" y="714" type="curve" smooth="yes"/>
      <point x="288" y="714"/>
      <point x="259" y="706"/>
      <point x="233" y="688" type="curve" smooth="yes"/>
      <point x="88" y="590" type="line"/>
      <point x="151" y="496" type="line"/>
      <point x="285" y="588" type="line"/>
      <point x="295" y="581" type="line"/>
      <point x="186" y="126" type="line" smooth="yes"/>
      <point x="183" y="113"/>
      <point x="182" y="102"/>
      <point x="182" y="91" type="curve" smooth="yes"/>
      <point x="182" y="26"/>
      <point x="232" y="-14"/>
      <point x="291" y="-14" type="curve" smooth="yes"/>
      <point x="318" y="-14"/>
      <point x="347" y="-6"/>
    </contour>
  </outline>
</glyph>
<glyph name="m" format="1">
  <advance width="612"/>
  <unicode hex="006D"/>
  <outline>
    <contour>
      <point x="385" y="130" type="line" smooth="yes"/>
      <point x="382" y="115"/>
      <point x="381" y="107"/>
      <point x="381" y="96" type="curve" smooth="yes"/>
      <point x="381" y="27"/>
      <point x="431" y="-14"/>
      <point x="489" y="-14" type="curve" smooth="yes"/>
      <point x="515" y="-14"/>
      <point x="544" y="-6"/>
      <point x="570" y="12" type="curve" smooth="yes"/>
      <point x="615" y="42" type="line"/>
      <point x="552" y="136" type="line"/>
      <point x="518" y="112" type="line"/>
      <point x="508" y="119" type="line"/>
      <point x="567" y="392" type="line" smooth="yes"/>
      <point x="569" y="403"/>
      <point x="570" y="409"/>
      <point x="570" y="418" type="curve" smooth="yes"/>
      <point x="570" y="469"/>
      <point x="538" y="510"/>
      <point x="483" y="510" type="curve" smooth="yes"/>
      <point x="435" y="510"/>
      <point x="405" y="484"/>
      <point x="391" y="448" type="curve"/>
      <point x="373" y="448" type="line"/>
      <point x="366" y="482"/>
      <point x="345" y="510"/>
      <point x="301" y="510" type="curve" smooth="yes"/>
      <point x="264" y="510"/>
      <point x="231" y="489"/>
      <point x="221" y="448" type="curve"/>
      <point x="203" y="448" type="line"/>
      <point x="213" y="496" type="line"/>
      <point x="87" y="496" type="line"/>
      <point x="-18" y="0" type="line"/>
      <point x="107" y="0" type="line"/>
      <point x="183" y="354" type="line" smooth="yes"/>
      <point x="188" y="378"/>
      <point x="201" y="390"/>
      <point x="219" y="390" type="curve" smooth="yes"/>
      <point x="235" y="390"/>
      <point x="245" y="380"/>
      <point x="245" y="362" type="curve" smooth="yes"/>
      <point x="245" y="358"/>
      <point x="244" y="353"/>
      <point x="243" y="348" type="curve" smooth="yes"/>
      <point x="169" y="0" type="line"/>
      <point x="295" y="0" type="line"/>
      <point x="371" y="354" type="line" smooth="yes"/>
      <point x="375" y="374"/>
      <point x="385" y="390"/>
      <point x="406" y="390" type="curve" smooth="yes"/>
      <point x="424" y="390"/>
      <point x="433" y="380"/>
      <point x="433" y="362" type="curve" smooth="yes"/>
      <point x="433" y="358"/>
      <point x="432" y="352"/>
      <point x="431" y="348" type="curve" smooth="yes"/>
    </contour>
  </outline>
</glyph>
<glyph name="w" format="1">
  <advance width="612"/>
  <unicode hex="0077"/>
  <outline>
    <contour>
      <point x="194" y="496" type="line"/>
      <point x="89" y="496" type="line"/>
      <point x="32" y="0" type="line"/>
      <point x="228" y="0" type="line"/>
      <point x="343" y="436" type="line"/>
      <point x="361" y="436" type="line"/>
      <point x="302" y="0" type="line"/>
      <point x="503" y="0" type="line"/>
      <point x="636" y="483" type="line"/>
      <point x="533" y="508" type="line"/>
      <point x="432" y="126" type="line"/>
      <point x="420" y="72" type="line"/>
      <point x="402" y="72" type="line"/>
      <point x="412" y="120" type="line"/>
      <point x="464" y="496" type="line"/>
      <point x="264" y="496" type="line"/>
      <point x="163" y="120" type="line"/>
      <point x="152" y="72" type="line"/>
      <point x="134" y="72" type="line"/>
      <point x="145" y="126" type="line"/>
    </contour>
  </outline>
</glyph>
<glyph name="x" format="1">
  <advance width="612"/>
  <unicode hex="0078"/>
  <outline>
    <contour>
      <point x="557" y="415" type="line"/>
      <point x="472" y="504" type="line"/>
      <point x="314" y="356" type="line"/>
      <point x="282" y="432" type="line" smooth="yes"/>
      <point x="259" y="485"/>
      <point x="224" y="510"/>
      <point x="174" y="510" type="curve" smooth="yes"/>
      <point x="125" y="510"/>
      <point x="86" y="486"/>
      <point x="58" y="442" type="curve" smooth="yes"/>
      <point x="10" y="368" type="line"/>
      <point x="106" y="306" type="line"/>
      <point x="154" y="383" type="line"/>
      <point x="166" y="383" type="line"/>
      <point x="216" y="264" type="line"/>
      <point x="16" y="77" type="line"/>
      <point x="101" y="-12" type="line"/>
      <point x="266" y="143" type="line"/>
      <point x="299" y="66" type="line" smooth="yes"/>
      <point x="322" y="11"/>
      <point x="356" y="-14"/>
      <point x="411" y="-14" type="curve" smooth="yes"/>
      <point x="468" y="-14"/>
      <point x="510" y="15"/>
      <point x="536" y="68" type="curve" smooth="yes"/>
      <point x="568" y="132" type="line"/>
      <point x="468" y="184" type="line"/>
      <point x="429" y="112" type="line"/>
      <point x="417" y="112" type="line"/>
      <point x="365" y="235" type="line"/>
    </contour>
  </outline>
</glyph>
<glyph name="y" format="1">
  <advance width="612"/>
  <unicode hex="0079"/>
  <outline>
    <contour>
      <point x="264" y="374" type="line" smooth="yes"/>
      <point x="266" y="385"/>
      <point x="267" y="395"/>
      <point x="267" y="404" type="curve" smooth="yes"/>
      <point x="267" y="470"/>
      <point x="216" y="510"/>
      <point x="157" y="510" type="curve" smooth="yes"/>
      <point x="131" y="510"/>
      <point x="103" y="502"/>
      <point x="78" y="485" type="curve" smooth="yes"/>
      <point x="5" y="436" type="line"/>
      <point x="68" y="342" type="line"/>
      <point x="128" y="384" type="line"/>
      <point x="138" y="377" type="line"/>
      <point x="99" y="192" type="line" smooth="yes"/>
      <point x="95" y="174"/>
      <point x="93" y="156"/>
      <point x="93" y="140" type="curve" smooth="yes"/>
      <point x="93" y="42"/>
      <point x="159" y="-14"/>
      <point x="238" y="-14" type="curve" smooth="yes"/>
      <point x="306" y="-14"/>
      <point x="350" y="12"/>
      <point x="379" y="72" type="curve"/>
      <point x="397" y="72" type="line"/>
      <point x="371" y="-50" type="line" smooth="yes"/>
      <point x="367" y="-69"/>
      <point x="357" y="-80"/>
      <point x="338" y="-80" type="curve" smooth="yes"/>
      <point x="99" y="-80" type="line"/>
      <point x="99" y="-200" type="line"/>
      <point x="389" y="-200" type="line" smooth="yes"/>
      <point x="434" y="-200"/>
      <point x="473" y="-167"/>
      <point x="482" y="-122" type="curve" smooth="yes"/>
      <point x="613" y="496" type="line"/>
      <point x="487" y="496" type="line"/>
      <point x="432" y="236" type="line" smooth="yes"/>
      <point x="413" y="148"/>
      <point x="378" y="100"/>
      <point x="306" y="100" type="curve" smooth="yes"/>
      <point x="256" y="100"/>
      <point x="224" y="127"/>
      <point x="224" y="177" type="curve" smooth="yes"/>
      <point x="224" y="187"/>
      <point x="226" y="199"/>
      <point x="228" y="208" type="curve" smooth="yes"/>
    </contour>
  </outline>
</glyph>
<glyph name="z" format="1">
  <advance width="612"/>
  <unicode hex="007A"/>
  <outline>
    <contour>
      <point x="162" y="120" type="line"/>
      <point x="162" y="138" type="line"/>
      <point x="534" y="302" type="line"/>
      <point x="534" y="496" type="line"/>
      <point x="123" y="496" type="line"/>
      <point x="123" y="380" type="line"/>
      <point x="414" y="380" type="line"/>
      <point x="414" y="362" type="line"/>
      <point x="40" y="197" type="line"/>
      <point x="40" y="0" type="line"/>
      <point x="469" y="0" type="line"/>
      <point x="469" y="120" type="line"/>
    </contour>
  </outline>
</glyph>
<glyph name="braceleft" format="1">
  <advance width="612"/>
  <unicode hex="007B"/>
  <outline>
    <contour>
      <point x="173" y="-39" type="line" smooth="yes"/>
      <point x="171" y="-49"/>
      <point x="169" y="-60"/>
      <point x="169" y="-70" type="curve" smooth="yes"/>
      <point x="169" y="-125"/>
      <point x="207" y="-156"/>
      <point x="267" y="-156" type="curve" smooth="yes"/>
      <point x="400" y="-156" type="line"/>
      <point x="400" y="-36" type="line"/>
      <point x="328" y="-36" type="line" smooth="yes"/>
      <point x="312" y="-36"/>
      <point x="305" y="-28"/>
      <point x="305" y="-16" type="curve" smooth="yes"/>
      <point x="305" y="-13"/>
      <point x="305" y="-12"/>
      <point x="306" y="-6" type="curve" smooth="yes"/>
      <point x="363" y="263" type="line" smooth="yes"/>
      <point x="364" y="269"/>
      <point x="365" y="275"/>
      <point x="365" y="281" type="curve" smooth="yes"/>
      <point x="365" y="315"/>
      <point x="342" y="341"/>
      <point x="302" y="341" type="curve" smooth="yes"/>
      <point x="296" y="341" type="line"/>
      <point x="296" y="359" type="line"/>
      <point x="305" y="359" type="line" smooth="yes"/>
      <point x="352" y="359"/>
      <point x="390" y="392"/>
      <point x="400" y="437" type="curve" smooth="yes"/>
      <point x="457" y="706" type="line" smooth="yes"/>
      <point x="461" y="725"/>
      <point x="472" y="736"/>
      <point x="491" y="736" type="curve" smooth="yes"/>
      <point x="584" y="736" type="line"/>
      <point x="584" y="856" type="line"/>
      <point x="465" y="856" type="line" smooth="yes"/>
      <point x="405" y="856"/>
      <point x="354" y="814"/>
      <point x="341" y="754" type="curve" smooth="yes"/>
      <point x="277" y="451" type="line"/>
      <point x="273" y="432"/>
      <point x="263" y="422"/>
      <point x="244" y="422" type="curve" smooth="yes"/>
      <point x="162" y="422" type="line"/>
      <point x="162" y="278" type="line"/>
      <point x="212" y="278" type="line" smooth="yes"/>
      <point x="228" y="278"/>
      <point x="235" y="270"/>
      <point x="235" y="258" type="curve" smooth="yes"/>
      <point x="235" y="256"/>
      <point x="235" y="255"/>
      <point x="234" y="249" type="curve" smooth="yes"/>
    </contour>
  </outline>
</glyph>
<glyph name="asciitilde" format="1">
  <advance width="612"/>
  <unicode hex="007E"/>
  <outline>
    <contour>
      <point x="335" y="376" type="curve" smooth="yes"/>
      <point x="321" y="398"/>
      <point x="295" y="417"/>
      <point x="249" y="417" type="curve" smooth="yes"/>
      <point x="213" y="417"/>
      <point x="183" y="400"/>
      <point x="160" y="382" type="curve" smooth="yes"/>
      <point x="39" y="290" type="line"/>
      <point x="109" y="197" type="line"/>
      <point x="195" y="260" type="line" smooth="yes"/>
      <point x="208" y="270"/>
      <point x="221" y="279"/>
      <point x="234" y="279" type="curve" smooth="yes"/>
      <point x="253" y="279"/>
      <point x="260" y="270"/>
      <point x="276" y="244" type="curve" smooth="yes"/>
      <point x="290" y="222"/>
      <point x="316" y="203"/>
      <point x="362" y="203" type="curve" smooth="yes"/>
      <point x="398" y="203"/>
      <point x="428" y="220"/>
      <point x="451" y="238" type="curve" smooth="yes"/>
      <point x="572" y="330" type="line"/>
      <point x="502" y="423" type="line"/>
      <point x="416" y="360" type="line" smooth="yes"/>
      <point x="403" y="350"/>
      <point x="390" y="341"/>
      <point x="377" y="341" type="curve" smooth="yes"/>
      <point x="358" y="341"/>
      <point x="351" y="350"/>
    </contour>
  </outline>
</glyph>
<glyph name="exclamdown" format="1">
  <advance width="612"/>
  <unicode hex="00A1"/>
  <outline>
    <contour>
      <point x="266" y="-200" type="line"/>
      <point x="370" y="282" type="line"/>
      <point x="238" y="282" type="line"/>
      <point x="134" y="-200" type="line"/>
    </contour>
    <contour>
      <point x="232" y="419" type="curve" smooth="yes"/>
      <point x="232" y="366"/>
      <point x="275" y="324"/>
      <point x="327" y="324" type="curve" smooth="yes"/>
      <point x="379" y="324"/>
      <point x="422" y="366"/>
      <point x="422" y="419" type="curve" smooth="yes"/>
      <point x="422" y="472"/>
      <point x="379" y="514"/>
      <point x="327" y="514" type="curve" smooth="yes"/>
      <point x="275" y="514"/>
      <point x="232" y="472"/>
    </contour>
  </outline>
</glyph>
<glyph name="cent" format="1">
  <advance width="612"/>
  <unicode hex="00A2"/>
  <outline>
    <contour>
      <point x="195" y="28" type="line"/>
      <point x="291" y="28" type="line"/>
      <point x="304" y="89" type="line"/>
      <point x="425" y="103"/>
      <point x="502" y="180"/>
      <point x="540" y="278" type="curve"/>
      <point x="434" y="304" type="line"/>
      <point x="418" y="269"/>
      <point x="389" y="220"/>
      <point x="328" y="203" type="curve"/>
      <point x="391" y="498" type="line"/>
      <point x="443" y="484"/>
      <point x="451" y="441"/>
      <point x="451" y="396" type="curve"/>
      <point x="569" y="422" type="line"/>
      <point x="569" y="503"/>
      <point x="529" y="586"/>
      <point x="414" y="606" type="curve"/>
      <point x="428" y="672" type="line"/>
      <point x="332" y="672" type="line"/>
      <point x="318" y="608" type="line"/>
      <point x="159" y="590"/>
      <point x="47" y="462"/>
      <point x="47" y="300" type="curve" smooth="yes"/>
      <point x="47" y="187"/>
      <point x="107" y="111"/>
      <point x="208" y="92" type="curve"/>
    </contour>
    <contour>
      <point x="164" y="315" type="curve" smooth="yes"/>
      <point x="164" y="402"/>
      <point x="212" y="475"/>
      <point x="294" y="496" type="curve"/>
      <point x="232" y="203" type="line"/>
      <point x="183" y="219"/>
      <point x="164" y="262"/>
    </contour>
  </outline>
</glyph>
<glyph name="brokenbar" format="1">
  <advance width="612"/>
  <unicode hex="00A6"/>
  <outline>
    <contour>
      <point x="237" y="290" type="line"/>
      <point x="142" y="-156" type="line"/>
      <point x="262" y="-156" type="line"/>
      <point x="357" y="290" type="line"/>
    </contour>
    <contour>
      <point x="382" y="410" type="line"/>
      <point x="477" y="856" type="line"/>
      <point x="357" y="856" type="line"/>
      <point x="262" y="410" type="line"/>
    </contour>
  </outline>
</glyph>
<glyph name="section" format="1">
  <advance width="612"/>
  <unicode hex="00A7"/>
  <outline>
    <contour>
      <point x="398" y="594" type="line"/>
      <point x="488" y="594" type="line"/>
      <point x="489" y="600" type="line" smooth="yes"/>
      <point x="490" y="607"/>
      <point x="491" y="614"/>
      <point x="491" y="621" type="curve" smooth="yes"/>
      <point x="491" y="673"/>
      <point x="448" y="714"/>
      <point x="372" y="714" type="curve" smooth="yes"/>
      <point x="287" y="714"/>
      <point x="225" y="665"/>
      <point x="225" y="587" type="curve" smooth="yes"/>
      <point x="225" y="576"/>
      <point x="229" y="557"/>
      <point x="236" y="547" type="curve"/>
      <point x="211" y="526"/>
      <point x="198" y="505"/>
      <point x="198" y="472" type="curve" smooth="yes"/>
      <point x="198" y="417"/>
      <point x="243" y="385"/>
      <point x="292" y="376" type="curve" smooth="yes"/>
      <point x="338" y="367"/>
      <point x="347" y="352"/>
      <point x="347" y="339" type="curve" smooth="yes"/>
      <point x="347" y="312"/>
      <point x="324" y="302"/>
      <point x="296" y="302" type="curve" smooth="yes"/>
      <point x="268" y="302"/>
      <point x="250" y="314"/>
      <point x="250" y="337" type="curve" smooth="yes"/>
      <point x="250" y="338"/>
      <point x="250" y="341"/>
      <point x="251" y="347" type="curve" smooth="yes"/>
      <point x="252" y="353" type="line"/>
      <point x="162" y="353" type="line"/>
      <point x="161" y="348" type="line" smooth="yes"/>
      <point x="159" y="337"/>
      <point x="158" y="329"/>
      <point x="158" y="321" type="curve" smooth="yes"/>
      <point x="158" y="261"/>
      <point x="204" y="218"/>
      <point x="286" y="218" type="curve" smooth="yes"/>
      <point x="370" y="218"/>
      <point x="440" y="258"/>
      <point x="440" y="361" type="curve" smooth="yes"/>
      <point x="440" y="372"/>
      <point x="437" y="383"/>
      <point x="434" y="390" type="curve"/>
      <point x="456" y="409"/>
      <point x="471" y="439"/>
      <point x="471" y="472" type="curve" smooth="yes"/>
      <point x="471" y="522"/>
      <point x="439" y="556"/>
      <point x="380" y="566" type="curve" smooth="yes"/>
      <point x="338" y="573"/>
      <point x="321" y="585"/>
      <point x="321" y="602" type="curve" smooth="yes"/>
      <point x="321" y="622"/>
      <point x="341" y="630"/>
      <point x="361" y="630" type="curve" smooth="yes"/>
      <point x="391" y="630"/>
      <point x="402" y="616"/>
      <point x="399" y="598" type="curve" smooth="yes"/>
    </contour>
    <contour>
      <point x="335" y="450" type="line" smooth="yes"/>
      <point x="302" y="459"/>
      <point x="294" y="469"/>
      <point x="294" y="480" type="curve" smooth="yes"/>
      <point x="294" y="488"/>
      <point x="297" y="495"/>
      <point x="301" y="499" type="curve"/>
      <point x="335" y="491" type="line" smooth="yes"/>
      <point x="365" y="484"/>
      <point x="374" y="475"/>
      <point x="374" y="461" type="curve" smooth="yes"/>
      <point x="374" y="453"/>
      <point x="373" y="447"/>
      <point x="369" y="441" type="curve"/>
    </contour>
  </outline>
</glyph>
<glyph name="dieresis" format="1">
  <advance width="612"/>
  <unicode hex="00A8"/>
  <outline>
    <contour>
      <point x="282" y="643" type="curve" smooth="yes"/>
      <point x="282" y="696"/>
      <point x="239" y="738"/>
      <point x="187" y="738" type="curve" smooth="yes"/>
      <point x="135" y="738"/>
      <point x="92" y="696"/>
      <point x="92" y="643" type="curve" smooth="yes"/>
      <point x="92" y="590"/>
      <point x="135" y="548"/>
      <point x="187" y="548" type="curve" smooth="yes"/>
      <point x="239" y="548"/>
      <point x="282" y="590"/>
    </contour>
    <contour>
      <point x="520" y="643" type="curve" smooth="yes"/>
      <point x="520" y="696"/>
      <point x="477" y="738"/>
      <point x="425" y="738" type="curve" smooth="yes"/>
      <point x="373" y="738"/>
      <point x="330" y="696"/>
      <point x="330" y="643" type="curve" smooth="yes"/>
      <point x="330" y="590"/>
      <point x="373" y="548"/>
      <point x="425" y="548" type="curve" smooth="yes"/>
      <point x="477" y="548"/>
      <point x="520" y="590"/>
    </contour>
  </outline>
</glyph>
<glyph name="ordfeminine" format="1">
  <advance width="612"/>
  <unicode hex="00AA"/>
  <outline>
    <contour>
      <point x="381" y="446" type="line"/>
      <point x="381" y="424"/>
      <point x="394" y="412"/>
      <point x="414" y="412" type="curve" smooth="yes"/>
      <point x="501" y="412" type="line"/>
      <point x="501" y="490" type="line"/>
      <point x="485" y="490" type="line" smooth="yes"/>
      <point x="474" y="490"/>
      <point x="471" y="497"/>
      <point x="473" y="507" type="curve" smooth="yes"/>
      <point x="514" y="700" type="line"/>
      <point x="430" y="700" type="line"/>
      <point x="424" y="672" type="line"/>
      <point x="415" y="672" type="line"/>
      <point x="404" y="692"/>
      <point x="384" y="706"/>
      <point x="343" y="706" type="curve" smooth="yes"/>
      <point x="238" y="706"/>
      <point x="181" y="621"/>
      <point x="181" y="530" type="curve" smooth="yes"/>
      <point x="181" y="450"/>
      <point x="230" y="406"/>
      <point x="292" y="406" type="curve" smooth="yes"/>
      <point x="332" y="406"/>
      <point x="358" y="422"/>
      <point x="372" y="446" type="curve"/>
    </contour>
    <contour>
      <point x="322" y="484" type="curve" smooth="yes"/>
      <point x="292" y="484"/>
      <point x="267" y="500"/>
      <point x="267" y="542" type="curve" smooth="yes"/>
      <point x="267" y="592"/>
      <point x="302" y="628"/>
      <point x="347" y="628" type="curve" smooth="yes"/>
      <point x="384" y="628"/>
      <point x="403" y="606"/>
      <point x="403" y="576" type="curve" smooth="yes"/>
      <point x="403" y="525"/>
      <point x="374" y="484"/>
    </contour>
  </outline>
</glyph>
<glyph name="twosuperior" format="1">
  <advance width="612"/>
  <unicode hex="00B2"/>
  <outline>
    <contour>
      <point x="263" y="484" type="line"/>
      <point x="266" y="500"/>
      <point x="282" y="506"/>
      <point x="337" y="520" type="curve" smooth="yes"/>
      <point x="400" y="536"/>
      <point x="431" y="568"/>
      <point x="431" y="618" type="curve" smooth="yes"/>
      <point x="431" y="673"/>
      <point x="390" y="706"/>
      <point x="331" y="706" type="curve" smooth="yes"/>
      <point x="262" y="706"/>
      <point x="221" y="669"/>
      <point x="210" y="604" type="curve" smooth="yes"/>
      <point x="209" y="598" type="line"/>
      <point x="287" y="598" type="line"/>
      <point x="289" y="622"/>
      <point x="303" y="634"/>
      <point x="323" y="634" type="curve" smooth="yes"/>
      <point x="338" y="634"/>
      <point x="350" y="625"/>
      <point x="350" y="611" type="curve" smooth="yes"/>
      <point x="350" y="590"/>
      <point x="332" y="583"/>
      <point x="292" y="574" type="curve" smooth="yes"/>
      <point x="231" y="560"/>
      <point x="196" y="538"/>
      <point x="183" y="478" type="curve" smooth="yes"/>
      <point x="169" y="412" type="line"/>
      <point x="390" y="412" type="line"/>
      <point x="390" y="484" type="line"/>
    </contour>
  </outline>
</glyph>
<glyph name="threesuperior" format="1">
  <advance width="612"/>
  <unicode hex="00B3"/>
  <outline>
    <contour>
      <point x="264" y="512" type="line"/>
      <point x="260" y="490"/>
      <point x="274" y="478"/>
      <point x="294" y="478" type="curve" smooth="yes"/>
      <point x="318" y="478"/>
      <point x="328" y="493"/>
      <point x="328" y="510" type="curve" smooth="yes"/>
      <point x="328" y="525"/>
      <point x="317" y="536"/>
      <point x="298" y="536" type="curve" smooth="yes"/>
      <point x="287" y="536" type="line"/>
      <point x="287" y="608" type="line"/>
      <point x="338" y="621" type="line"/>
      <point x="338" y="630" type="line"/>
      <point x="230" y="630" type="line"/>
      <point x="230" y="700" type="line"/>
      <point x="410" y="700" type="line"/>
      <point x="410" y="598" type="line"/>
      <point x="358" y="585" type="line"/>
      <point x="358" y="576" type="line"/>
      <point x="386" y="570"/>
      <point x="405" y="546"/>
      <point x="405" y="512" type="curve" smooth="yes"/>
      <point x="405" y="450"/>
      <point x="361" y="406"/>
      <point x="289" y="406" type="curve" smooth="yes"/>
      <point x="224" y="406"/>
      <point x="187" y="442"/>
      <point x="187" y="492" type="curve" smooth="yes"/>
      <point x="187" y="498"/>
      <point x="188" y="507"/>
      <point x="189" y="512" type="curve"/>
    </contour>
  </outline>
</glyph>
<glyph name="acute" format="1">
  <advance width="612"/>
  <unicode hex="00B4"/>
  <outline>
    <contour>
      <point x="475" y="706" type="line"/>
      <point x="345" y="706" type="line"/>
      <point x="264" y="570" type="line"/>
      <point x="366" y="570" type="line"/>
      <point x="475" y="694" type="line"/>
    </contour>
  </outline>
</glyph>
<glyph name="cedilla" format="1">
  <advance width="612"/>
  <unicode hex="00B8"/>
  <outline>
    <contour>
      <point x="235" y="0" type="line"/>
      <point x="202" y="-92" type="line"/>
      <point x="202" y="-104" type="line"/>
      <point x="299" y="-104" type="line"/>
      <point x="303" y="-96"/>
      <point x="309" y="-90"/>
      <point x="320" y="-90" type="curve" smooth="yes"/>
      <point x="331" y="-90"/>
      <point x="338" y="-97"/>
      <point x="338" y="-109" type="curve" smooth="yes"/>
      <point x="338" y="-128"/>
      <point x="321" y="-138"/>
      <point x="298" y="-138" type="curve" smooth="yes"/>
      <point x="277" y="-138"/>
      <point x="260" y="-132"/>
      <point x="247" y="-123" type="curve"/>
      <point x="210" y="-192" type="line"/>
      <point x="230" y="-204"/>
      <point x="258" y="-212"/>
      <point x="303" y="-212" type="curve" smooth="yes"/>
      <point x="380" y="-212"/>
      <point x="424" y="-170"/>
      <point x="424" y="-102" type="curve" smooth="yes"/>
      <point x="424" y="-52"/>
      <point x="396" y="-24"/>
      <point x="357" y="-24" type="curve" smooth="yes"/>
      <point x="332" y="-24"/>
      <point x="316" y="-34"/>
      <point x="306" y="-46" type="curve"/>
      <point x="294" y="-46" type="line"/>
      <point x="314" y="0" type="line"/>
    </contour>
  </outline>
</glyph>
<glyph name="onesuperior" format="1">
  <advance width="612"/>
  <unicode hex="00B9"/>
  <outline>
    <contour>
      <point x="181" y="484" type="line"/>
      <point x="181" y="412" type="line"/>
      <point x="409" y="412" type="line"/>
      <point x="409" y="484" type="line"/>
      <point x="345" y="484" type="line"/>
      <point x="391" y="700" type="line"/>
      <point x="289" y="700" type="line"/>
      <point x="207" y="642" type="line"/>
      <point x="207" y="560" type="line"/>
      <point x="213" y="560" type="line"/>
      <point x="289" y="616" type="line"/>
      <point x="295" y="616" type="line"/>
      <point x="267" y="484" type="line"/>
    </contour>
  </outline>
</glyph>
<glyph name="questiondown" format="1">
  <advance width="612"/>
  <unicode hex="00BF"/>
  <outline>
    <contour>
      <point x="274" y="110" type="line" smooth="yes"/>
      <point x="332" y="110"/>
      <point x="373" y="146"/>
      <point x="385" y="202" type="curve" smooth="yes"/>
      <point x="402" y="282" type="line"/>
      <point x="276" y="282" type="line"/>
      <point x="270" y="256" type="line" smooth="yes"/>
      <point x="266" y="236"/>
      <point x="254" y="225"/>
      <point x="232" y="225" type="curve" smooth="yes"/>
      <point x="92" y="225"/>
      <point x="4" y="100"/>
      <point x="4" y="-20" type="curve" smooth="yes"/>
      <point x="4" y="-126"/>
      <point x="88" y="-214"/>
      <point x="216" y="-214" type="curve" smooth="yes"/>
      <point x="374" y="-214"/>
      <point x="467" y="-120"/>
      <point x="496" y="18" type="curve" smooth="yes"/>
      <point x="506" y="66" type="line"/>
      <point x="374" y="66" type="line"/>
      <point x="367" y="30" type="line" smooth="yes"/>
      <point x="355" y="-34"/>
      <point x="306" y="-88"/>
      <point x="232" y="-88" type="curve" smooth="yes"/>
      <point x="172" y="-88"/>
      <point x="139" y="-52"/>
      <point x="139" y="-8" type="curve" smooth="yes"/>
      <point x="139" y="58"/>
      <point x="182" y="110"/>
      <point x="252" y="110" type="curve" smooth="yes"/>
    </contour>
    <contour>
      <point x="262" y="419" type="curve" smooth="yes"/>
      <point x="262" y="366"/>
      <point x="305" y="324"/>
      <point x="357" y="324" type="curve" smooth="yes"/>
      <point x="409" y="324"/>
      <point x="452" y="366"/>
      <point x="452" y="419" type="curve" smooth="yes"/>
      <point x="452" y="472"/>
      <point x="409" y="514"/>
      <point x="357" y="514" type="curve" smooth="yes"/>
      <point x="305" y="514"/>
      <point x="262" y="472"/>
    </contour>
  </outline>
</glyph>
<glyph name="Ccedilla" format="1">
  <advance width="612"/>
  <unicode hex="00C7"/>
  <outline>
    <contour>
      <point x="255" y="106" type="curve" smooth="yes"/>
      <point x="182" y="106"/>
      <point x="153" y="145"/>
      <point x="153" y="205" type="curve" smooth="yes"/>
      <point x="153" y="222"/>
      <point x="156" y="242"/>
      <point x="160" y="262" type="curve" smooth="yes"/>
      <point x="197" y="438" type="line" smooth="yes"/>
      <point x="215" y="522"/>
      <point x="270" y="594"/>
      <point x="358" y="594" type="curve" smooth="yes"/>
      <point x="433" y="594"/>
      <point x="459" y="552"/>
      <point x="459" y="500" type="curve" smooth="yes"/>
      <point x="459" y="485"/>
      <point x="457" y="470"/>
      <point x="453" y="454" type="curve" smooth="yes"/>
      <point x="449" y="436" type="line"/>
      <point x="581" y="436" type="line"/>
      <point x="585" y="454" type="line" smooth="yes"/>
      <point x="589" y="474"/>
      <point x="592" y="492"/>
      <point x="592" y="511" type="curve" smooth="yes"/>
      <point x="592" y="624"/>
      <point x="513" y="714"/>
      <point x="379" y="714" type="curve" smooth="yes"/>
      <point x="211" y="714"/>
      <point x="104" y="620"/>
      <point x="63" y="428" type="curve" smooth="yes"/>
      <point x="30" y="272" type="line" smooth="yes"/>
      <point x="24" y="242"/>
      <point x="21" y="219"/>
      <point x="21" y="195" type="curve" smooth="yes"/>
      <point x="21" y="80"/>
      <point x="85" y="7"/>
      <point x="184" y="-10" type="curve"/>
      <point x="155" y="-92" type="line"/>
      <point x="155" y="-104" type="line"/>
      <point x="252" y="-104" type="line"/>
      <point x="256" y="-96"/>
      <point x="262" y="-90"/>
      <point x="273" y="-90" type="curve" smooth="yes"/>
      <point x="284" y="-90"/>
      <point x="291" y="-97"/>
      <point x="291" y="-109" type="curve" smooth="yes"/>
      <point x="291" y="-128"/>
      <point x="274" y="-138"/>
      <point x="251" y="-138" type="curve" smooth="yes"/>
      <point x="230" y="-138"/>
      <point x="213" y="-132"/>
      <point x="200" y="-123" type="curve"/>
      <point x="163" y="-192" type="line"/>
      <point x="183" y="-204"/>
      <point x="211" y="-212"/>
      <point x="256" y="-212" type="curve" smooth="yes"/>
      <point x="333" y="-212"/>
      <point x="377" y="-170"/>
      <point x="377" y="-102" type="curve" smooth="yes"/>
      <point x="377" y="-52"/>
      <point x="349" y="-24"/>
      <point x="310" y="-24" type="curve" smooth="yes"/>
      <point x="285" y="-24"/>
      <point x="269" y="-34"/>
      <point x="259" y="-46" type="curve"/>
      <point x="247" y="-46" type="line"/>
      <point x="261" y="-13" type="line"/>
      <point x="426" y="-5"/>
      <point x="504" y="82"/>
      <point x="540" y="246" type="curve" smooth="yes"/>
      <point x="544" y="264" type="line"/>
      <point x="412" y="264" type="line"/>
      <point x="408" y="246" type="line" smooth="yes"/>
      <point x="392" y="176"/>
      <point x="355" y="106"/>
    </contour>
  </outline>
</glyph>
<glyph name="Thorn" format="1">
  <advance width="612"/>
  <unicode hex="00DE"/>
  <outline>
    <contour>
      <point x="301" y="132" type="line" smooth="yes"/>
      <point x="476" y="132"/>
      <point x="568" y="254"/>
      <point x="568" y="398" type="curve" smooth="yes"/>
      <point x="568" y="490"/>
      <point x="498" y="568"/>
      <point x="388" y="568" type="curve" smooth="yes"/>
      <point x="252" y="568" type="line"/>
      <point x="280" y="700" type="line"/>
      <point x="148" y="700" type="line"/>
      <point x="0" y="0" type="line"/>
      <point x="131" y="0" type="line"/>
      <point x="159" y="132" type="line"/>
    </contour>
    <contour>
      <point x="225" y="442" type="line"/>
      <point x="350" y="442" type="line" smooth="yes"/>
      <point x="402" y="442"/>
      <point x="433" y="416"/>
      <point x="433" y="370" type="curve" smooth="yes"/>
      <point x="433" y="304"/>
      <point x="379" y="258"/>
      <point x="315" y="258" type="curve" smooth="yes"/>
      <point x="186" y="258" type="line"/>
    </contour>
  </outline>
</glyph>
<glyph name="ae" format="1">
  <advance width="612"/>
  <unicode hex="00E6"/>
  <outline>
    <contour>
      <point x="195" y="188" type="curve" smooth="yes"/>
      <point x="207" y="188" type="line"/>
      <point x="189" y="106" type="line"/>
      <point x="177" y="106" type="line" smooth="yes"/>
      <point x="158" y="106"/>
      <point x="139" y="117"/>
      <point x="139" y="141" type="curve" smooth="yes"/>
      <point x="139" y="169"/>
      <point x="160" y="188"/>
    </contour>
    <contour>
      <point x="424" y="308" type="curve"/>
      <point x="358" y="308" type="line"/>
      <point x="375" y="386" type="line"/>
      <point x="407" y="381"/>
      <point x="427" y="361"/>
      <point x="427" y="329" type="curve" smooth="yes"/>
      <point x="427" y="322"/>
      <point x="426" y="315"/>
    </contour>
    <contour>
      <point x="310" y="510" type="curve" smooth="yes"/>
      <point x="200" y="510"/>
      <point x="128" y="470"/>
      <point x="82" y="406" type="curve"/>
      <point x="164" y="336" type="line"/>
      <point x="183" y="366"/>
      <point x="213" y="386"/>
      <point x="249" y="386" type="curve"/>
      <point x="232" y="308" type="line"/>
      <point x="222" y="308" type="line" smooth="yes"/>
      <point x="88" y="308"/>
      <point x="10" y="235"/>
      <point x="10" y="131" type="curve" smooth="yes"/>
      <point x="10" y="24"/>
      <point x="99" y="-14"/>
      <point x="208" y="-14" type="curve" smooth="yes"/>
      <point x="237" y="-14" type="line" smooth="yes"/>
      <point x="350" y="-14"/>
      <point x="430" y="16"/>
      <point x="485" y="88" type="curve"/>
      <point x="397" y="152" type="line"/>
      <point x="379" y="124"/>
      <point x="348" y="110"/>
      <point x="316" y="110" type="curve"/>
      <point x="333" y="188" type="line"/>
      <point x="525" y="188" type="line"/>
      <point x="537" y="243" type="line" smooth="yes"/>
      <point x="542" y="268"/>
      <point x="544" y="288"/>
      <point x="544" y="309" type="curve" smooth="yes"/>
      <point x="544" y="422"/>
      <point x="473" y="510"/>
    </contour>
  </outline>
</glyph>
<glyph name="ccedilla" format="1">
  <advance width="612"/>
  <unicode hex="00E7"/>
  <outline>
    <contour>
      <point x="417" y="213" type="line"/>
      <point x="393" y="146"/>
      <point x="349" y="106"/>
      <point x="266" y="106" type="curve" smooth="yes"/>
      <point x="205" y="106"/>
      <point x="160" y="141"/>
      <point x="160" y="217" type="curve" smooth="yes"/>
      <point x="160" y="312"/>
      <point x="231" y="390"/>
      <point x="327" y="390" type="curve" smooth="yes"/>
      <point x="403" y="390"/>
      <point x="435" y="350"/>
      <point x="435" y="283" type="curve"/>
      <point x="563" y="308" type="line"/>
      <point x="563" y="418"/>
      <point x="489" y="510"/>
      <point x="345" y="510" type="curve" smooth="yes"/>
      <point x="149" y="510"/>
      <point x="30" y="374"/>
      <point x="30" y="208" type="curve" smooth="yes"/>
      <point x="30" y="86"/>
      <point x="95" y="13"/>
      <point x="185" y="-7" type="curve"/>
      <point x="155" y="-92" type="line"/>
      <point x="155" y="-104" type="line"/>
      <point x="252" y="-104" type="line"/>
      <point x="256" y="-96"/>
      <point x="262" y="-90"/>
      <point x="273" y="-90" type="curve" smooth="yes"/>
      <point x="284" y="-90"/>
      <point x="291" y="-97"/>
      <point x="291" y="-109" type="curve" smooth="yes"/>
      <point x="291" y="-128"/>
      <point x="274" y="-138"/>
      <point x="251" y="-138" type="curve" smooth="yes"/>
      <point x="230" y="-138"/>
      <point x="213" y="-132"/>
      <point x="200" y="-123" type="curve"/>
      <point x="163" y="-192" type="line"/>
      <point x="183" y="-204"/>
      <point x="211" y="-212"/>
      <point x="256" y="-212" type="curve" smooth="yes"/>
      <point x="333" y="-212"/>
      <point x="377" y="-170"/>
      <point x="377" y="-102" type="curve" smooth="yes"/>
      <point x="377" y="-52"/>
      <point x="349" y="-24"/>
      <point x="310" y="-24" type="curve" smooth="yes"/>
      <point x="285" y="-24"/>
      <point x="269" y="-34"/>
      <point x="259" y="-46" type="curve"/>
      <point x="247" y="-46" type="line"/>
      <point x="261" y="-13" type="line"/>
      <point x="410" y="-8"/>
      <point x="498" y="68"/>
      <point x="534" y="182" type="curve"/>
    </contour>
  </outline>
</glyph>
<glyph name="divide" format="1">
  <advance width="612"/>
  <unicode hex="00F7"/>
  <outline>
    <contour>
      <point x="97" y="293" type="line"/>
      <point x="515" y="293" type="line"/>
      <point x="515" y="407" type="line"/>
      <point x="97" y="407" type="line"/>
    </contour>
    <contour>
      <point x="356" y="159" type="curve" smooth="yes"/>
      <point x="356" y="207"/>
      <point x="317" y="245"/>
      <point x="270" y="245" type="curve" smooth="yes"/>
      <point x="223" y="245"/>
      <point x="184" y="207"/>
      <point x="184" y="159" type="curve" smooth="yes"/>
      <point x="184" y="111"/>
      <point x="223" y="73"/>
      <point x="270" y="73" type="curve" smooth="yes"/>
      <point x="317" y="73"/>
      <point x="356" y="111"/>
    </contour>
    <contour>
      <point x="428" y="541" type="curve" smooth="yes"/>
      <point x="428" y="589"/>
      <point x="389" y="627"/>
      <point x="342" y="627" type="curve" smooth="yes"/>
      <point x="295" y="627"/>
      <point x="256" y="589"/>
      <point x="256" y="541" type="curve" smooth="yes"/>
      <point x="256" y="493"/>
      <point x="295" y="455"/>
      <point x="342" y="455" type="curve" smooth="yes"/>
      <point x="389" y="455"/>
      <point x="428" y="493"/>
    </contour>
  </outline>
</glyph>
<glyph name="oslash" format="1">
  <advance width="612"/>
  <unicode hex="00F8"/>
  <outline>
    <contour>
      <point x="558" y="310" type="curve" smooth="yes"/>
      <point x="558" y="379"/>
      <point x="528" y="435"/>
      <point x="478" y="470" type="curve"/>
      <point x="502" y="515" type="line"/>
      <point x="408" y="565" type="line"/>
      <point x="377" y="507" type="line"/>
      <point x="365" y="509"/>
      <point x="354" y="510"/>
      <point x="342" y="510" type="curve" smooth="yes"/>
      <point x="168" y="510"/>
      <point x="33" y="390"/>
      <point x="33" y="184" type="curve" smooth="yes"/>
      <point x="33" y="111"/>
      <point x="65" y="56"/>
      <point x="115" y="23" type="curve"/>
      <point x="93" y="-18" type="line"/>
      <point x="184" y="-73" type="line"/>
      <point x="216" y="-12" type="line"/>
      <point x="226" y="-13"/>
      <point x="236" y="-14"/>
      <point x="246" y="-14" type="curve" smooth="yes"/>
      <point x="452" y="-14"/>
      <point x="558" y="123"/>
    </contour>
    <contour>
      <point x="162" y="208" type="curve" smooth="yes"/>
      <point x="162" y="299"/>
      <point x="224" y="384"/>
      <point x="314" y="391" type="curve"/>
      <point x="179" y="142" type="line"/>
      <point x="168" y="159"/>
      <point x="162" y="181"/>
    </contour>
    <contour>
      <point x="429" y="287" type="curve" smooth="yes"/>
      <point x="429" y="194"/>
      <point x="369" y="114"/>
      <point x="280" y="105" type="curve"/>
      <point x="413" y="350" type="line"/>
      <point x="423" y="334"/>
      <point x="429" y="313"/>
    </contour>
  </outline>
</glyph>
<glyph name="Aogonek" format="1">
  <advance width="612"/>
  <unicode hex="0104"/>
  <outline>
    <contour>
      <point x="521" y="0" type="line"/>
      <point x="504" y="700" type="line"/>
      <point x="260" y="700" type="line"/>
      <point x="-48" y="0" type="line"/>
      <point x="93" y="0" type="line"/>
      <point x="157" y="150" type="line"/>
      <point x="388" y="150" type="line"/>
      <point x="390" y="0" type="line"/>
      <point x="361" y="-66" type="line" smooth="yes"/>
      <point x="354" y="-82"/>
      <point x="351" y="-96"/>
      <point x="351" y="-109" type="curve" smooth="yes"/>
      <point x="351" y="-147"/>
      <point x="379" y="-170"/>
      <point x="421" y="-170" type="curve" smooth="yes"/>
      <point x="503" y="-170" type="line"/>
      <point x="503" y="-86" type="line"/>
      <point x="466" y="-86" type="line" smooth="yes"/>
      <point x="453" y="-86"/>
      <point x="447" y="-80"/>
      <point x="447" y="-70" type="curve" smooth="yes"/>
      <point x="447" y="-65"/>
      <point x="448" y="-61"/>
      <point x="450" y="-56" type="curve" smooth="yes"/>
      <point x="475" y="0" type="line"/>
    </contour>
    <contour>
      <point x="363" y="634" type="line"/>
      <point x="381" y="634" type="line"/>
      <point x="386" y="276" type="line"/>
      <point x="210" y="276" type="line"/>
    </contour>
  </outline>
</glyph>
<glyph name="dcaron" format="1">
  <advance width="612"/>
  <unicode hex="010F"/>
  <outline>
    <contour>
      <point x="215" y="66" type="curve"/>
      <point x="233" y="66" type="line"/>
      <point x="244" y="16"/>
      <point x="284" y="-14"/>
      <point x="332" y="-14" type="curve" smooth="yes"/>
      <point x="357" y="-14"/>
      <point x="385" y="-6"/>
      <point x="411" y="12" type="curve" smooth="yes"/>
      <point x="485" y="62" type="line"/>
      <point x="422" y="156" type="line"/>
      <point x="359" y="112" type="line"/>
      <point x="349" y="119" type="line"/>
      <point x="474" y="714" type="line"/>
      <point x="348" y="714" type="line"/>
      <point x="293" y="454" type="line"/>
      <point x="275" y="454" type="line"/>
      <point x="270" y="488"/>
      <point x="240" y="510"/>
      <point x="194" y="510" type="curve" smooth="yes"/>
      <point x="108" y="510"/>
      <point x="42" y="441"/>
      <point x="17" y="330" type="curve" smooth="yes"/>
      <point x="-4" y="235" type="line" smooth="yes"/>
      <point x="-14" y="191"/>
      <point x="-16" y="152"/>
      <point x="-16" y="119" type="curve" smooth="yes"/>
      <point x="-16" y="30"/>
      <point x="38" y="-14"/>
      <point x="98" y="-14" type="curve" smooth="yes"/>
      <point x="152" y="-14"/>
      <point x="192" y="4"/>
    </contour>
    <contour>
      <point x="655" y="602" type="line" smooth="yes"/>
      <point x="657" y="612"/>
      <point x="657" y="616"/>
      <point x="657" y="623" type="curve" smooth="yes"/>
      <point x="657" y="669"/>
      <point x="623" y="700"/>
      <point x="578" y="700" type="curve" smooth="yes"/>
      <point x="525" y="700"/>
      <point x="483" y="661"/>
      <point x="483" y="607" type="curve" smooth="yes"/>
      <point x="483" y="565"/>
      <point x="517" y="526"/>
      <point x="560" y="526" type="curve"/>
      <point x="558" y="514" type="line" smooth="yes"/>
      <point x="554" y="495"/>
      <point x="543" y="484"/>
      <point x="524" y="484" type="curve" smooth="yes"/>
      <point x="471" y="484" type="line"/>
      <point x="471" y="406" type="line"/>
      <point x="523" y="406" type="line" smooth="yes"/>
      <point x="574" y="406"/>
      <point x="619" y="435"/>
      <point x="632" y="496" type="curve" smooth="yes"/>
    </contour>
    <contour>
      <point x="218" y="390" type="curve" smooth="yes"/>
      <point x="250" y="390"/>
      <point x="265" y="368"/>
      <point x="265" y="336" type="curve" smooth="yes"/>
      <point x="265" y="326"/>
      <point x="264" y="314"/>
      <point x="261" y="302" type="curve" smooth="yes"/>
      <point x="238" y="194" type="line" smooth="yes"/>
      <point x="226" y="140"/>
      <point x="204" y="106"/>
      <point x="160" y="106" type="curve" smooth="yes"/>
      <point x="130" y="106"/>
      <point x="111" y="126"/>
      <point x="111" y="169" type="curve" smooth="yes"/>
      <point x="111" y="183"/>
      <point x="113" y="200"/>
      <point x="117" y="218" type="curve" smooth="yes"/>
      <point x="129" y="276" type="line" smooth="yes"/>
      <point x="144" y="348"/>
      <point x="170" y="390"/>
    </contour>
  </outline>
</glyph>
<glyph name="dcroat" format="1">
  <advance width="612"/>
  <unicode hex="0111"/>
  <outline>
    <contour>
      <point x="544" y="424" type="line"/>
      <point x="568" y="538" type="line"/>
      <point x="640" y="538" type="line"/>
      <point x="640" y="652" type="line"/>
      <point x="593" y="652" type="line"/>
      <point x="606" y="714" type="line"/>
      <point x="479" y="714" type="line"/>
      <point x="466" y="652" type="line"/>
      <point x="271" y="652" type="line"/>
      <point x="271" y="538" type="line"/>
      <point x="442" y="538" type="line"/>
      <point x="418" y="424" type="line"/>
      <point x="400" y="424" type="line"/>
      <point x="387" y="474"/>
      <point x="341" y="510"/>
      <point x="271" y="510" type="curve" smooth="yes"/>
      <point x="105" y="510"/>
      <point x="6" y="368"/>
      <point x="6" y="190" type="curve" smooth="yes"/>
      <point x="6" y="74"/>
      <point x="85" y="-14"/>
      <point x="188" y="-14" type="curve" smooth="yes"/>
      <point x="274" y="-14"/>
      <point x="311" y="22"/>
      <point x="335" y="66" type="curve"/>
      <point x="353" y="66" type="line"/>
      <point x="364" y="16"/>
      <point x="408" y="-14"/>
      <point x="459" y="-14" type="curve" smooth="yes"/>
      <point x="486" y="-14"/>
      <point x="515" y="-6"/>
      <point x="541" y="12" type="curve" smooth="yes"/>
      <point x="606" y="56" type="line"/>
      <point x="543" y="150" type="line"/>
      <point x="489" y="112" type="line"/>
      <point x="479" y="119" type="line"/>
    </contour>
    <contour>
      <point x="237" y="106" type="curve" smooth="yes"/>
      <point x="169" y="106"/>
      <point x="137" y="156"/>
      <point x="137" y="212" type="curve" smooth="yes"/>
      <point x="137" y="308"/>
      <point x="191" y="390"/>
      <point x="287" y="390" type="curve" smooth="yes"/>
      <point x="347" y="390"/>
      <point x="386" y="346"/>
      <point x="386" y="284" type="curve" smooth="yes"/>
      <point x="386" y="188"/>
      <point x="333" y="106"/>
    </contour>
  </outline>
</glyph>
<glyph name="eogonek" format="1">
  <advance width="612"/>
  <unicode hex="0119"/>
  <outline>
    <contour>
      <point x="529" y="207" type="line"/>
      <point x="540" y="258" type="line" smooth="yes"/>
      <point x="545" y="284"/>
      <point x="547" y="299"/>
      <point x="547" y="315" type="curve" smooth="yes"/>
      <point x="547" y="413"/>
      <point x="482" y="510"/>
      <point x="343" y="510" type="curve" smooth="yes"/>
      <point x="147" y="510"/>
      <point x="36" y="362"/>
      <point x="36" y="180" type="curve" smooth="yes"/>
      <point x="36" y="76"/>
      <point x="107" y="2"/>
      <point x="211" y="-11" type="curve"/>
      <point x="196" y="-23" type="line" smooth="yes"/>
      <point x="169" y="-45"/>
      <point x="157" y="-72"/>
      <point x="157" y="-97" type="curve" smooth="yes"/>
      <point x="157" y="-136"/>
      <point x="186" y="-170"/>
      <point x="234" y="-170" type="curve" smooth="yes"/>
      <point x="344" y="-170" type="line"/>
      <point x="344" y="-86" type="line"/>
      <point x="295" y="-86" type="line" smooth="yes"/>
      <point x="284" y="-86"/>
      <point x="278" y="-79"/>
      <point x="278" y="-72" type="curve" smooth="yes"/>
      <point x="278" y="-67"/>
      <point x="281" y="-62"/>
      <point x="286" y="-58" type="curve" smooth="yes"/>
      <point x="408" y="27" type="line" smooth="yes"/>
      <point x="442" y="51"/>
      <point x="466" y="75"/>
      <point x="481" y="100" type="curve"/>
      <point x="381" y="163" type="line"/>
      <point x="361" y="133"/>
      <point x="325" y="106"/>
      <point x="263" y="106" type="curve" smooth="yes"/>
      <point x="204" y="106"/>
      <point x="163" y="142"/>
      <point x="163" y="190" type="curve" smooth="yes"/>
      <point x="163" y="196"/>
      <point x="164" y="203"/>
      <point x="165" y="207" type="curve"/>
    </contour>
    <contour>
      <point x="323" y="396" type="curve" smooth="yes"/>
      <point x="394" y="396"/>
      <point x="424" y="366"/>
      <point x="424" y="315" type="curve"/>
      <point x="190" y="315" type="line"/>
      <point x="212" y="360"/>
      <point x="261" y="396"/>
    </contour>
  </outline>
</glyph>
<glyph name="Hbar" format="1">
  <advance width="612"/>
  <unicode hex="0126"/>
  <outline>
    <contour>
      <point x="50" y="496" type="line"/>
      <point x="105" y="496" type="line"/>
      <point x="0" y="0" type="line"/>
      <point x="131" y="0" type="line"/>
      <point x="192" y="288" type="line"/>
      <point x="386" y="288" type="line"/>
      <point x="325" y="0" type="line"/>
      <point x="457" y="0" type="line"/>
      <point x="562" y="496" type="line"/>
      <point x="643" y="496" type="line"/>
      <point x="643" y="616" type="line"/>
      <point x="588" y="616" type="line"/>
      <point x="606" y="700" type="line"/>
      <point x="474" y="700" type="line"/>
      <point x="456" y="616" type="line"/>
      <point x="262" y="616" type="line"/>
      <point x="280" y="700" type="line"/>
      <point x="148" y="700" type="line"/>
      <point x="130" y="616" type="line"/>
      <point x="50" y="616" type="line"/>
    </contour>
    <contour>
      <point x="219" y="414" type="line"/>
      <point x="236" y="496" type="line"/>
      <point x="430" y="496" type="line"/>
      <point x="413" y="414" type="line"/>
    </contour>
  </outline>
</glyph>
<glyph name="Iogonek" format="1">
  <advance width="612"/>
  <unicode hex="012E"/>
  <outline>
    <contour>
      <point x="125" y="574" type="line"/>
      <point x="287" y="574" type="line"/>
      <point x="192" y="126" type="line"/>
      <point x="30" y="126" type="line"/>
      <point x="30" y="0" type="line"/>
      <point x="400" y="0" type="line"/>
      <point x="371" y="-66" type="line" smooth="yes"/>
      <point x="364" y="-82"/>
      <point x="361" y="-96"/>
      <point x="361" y="-109" type="curve" smooth="yes"/>
      <point x="361" y="-147"/>
      <point x="389" y="-170"/>
      <point x="431" y="-170" type="curve" smooth="yes"/>
      <point x="513" y="-170" type="line"/>
      <point x="513" y="-86" type="line"/>
      <point x="476" y="-86" type="line" smooth="yes"/>
      <point x="463" y="-86"/>
      <point x="457" y="-80"/>
      <point x="457" y="-70" type="curve" smooth="yes"/>
      <point x="457" y="-64"/>
      <point x="458" y="-61"/>
      <point x="460" y="-56" type="curve" smooth="yes"/>
      <point x="486" y="0" type="line"/>
      <point x="486" y="126" type="line"/>
      <point x="324" y="126" type="line"/>
      <point x="419" y="574" type="line"/>
      <point x="581" y="574" type="line"/>
      <point x="581" y="700" type="line"/>
      <point x="125" y="700" type="line"/>
    </contour>
  </outline>
</glyph>
<glyph name="iogonek" format="1">
  <advance width="612"/>
  <unicode hex="012F"/>
  <outline>
    <contour>
      <point x="228" y="-170" type="curve"/>
      <point x="352" y="-170" type="line"/>
      <point x="352" y="-86" type="line"/>
      <point x="289" y="-86" type="line" smooth="yes"/>
      <point x="278" y="-86"/>
      <point x="272" y="-80"/>
      <point x="272" y="-72" type="curve" smooth="yes"/>
      <point x="272" y="-66"/>
      <point x="274" y="-62"/>
      <point x="280" y="-58" type="curve" smooth="yes"/>
      <point x="525" y="110" type="line"/>
      <point x="462" y="204" type="line"/>
      <point x="328" y="112" type="line"/>
      <point x="318" y="119" type="line"/>
      <point x="378" y="370" type="line" smooth="yes"/>
      <point x="381" y="382"/>
      <point x="382" y="394"/>
      <point x="382" y="405" type="curve" smooth="yes"/>
      <point x="382" y="470"/>
      <point x="332" y="510"/>
      <point x="273" y="510" type="curve" smooth="yes"/>
      <point x="246" y="510"/>
      <point x="217" y="502"/>
      <point x="191" y="484" type="curve" smooth="yes"/>
      <point x="46" y="386" type="line"/>
      <point x="109" y="292" type="line"/>
      <point x="243" y="384" type="line"/>
      <point x="253" y="377" type="line"/>
      <point x="193" y="126" type="line" smooth="yes"/>
      <point x="190" y="114"/>
      <point x="189" y="102"/>
      <point x="189" y="91" type="curve" smooth="yes"/>
      <point x="189" y="53"/>
      <point x="205" y="24"/>
      <point x="230" y="6" type="curve"/>
      <point x="190" y="-23" type="line" smooth="yes"/>
      <point x="162" y="-44"/>
      <point x="149" y="-70"/>
      <point x="149" y="-95" type="curve" smooth="yes"/>
      <point x="149" y="-135"/>
      <point x="180" y="-170"/>
    </contour>
    <contour>
      <point x="467" y="643" type="curve" smooth="yes"/>
      <point x="467" y="696"/>
      <point x="424" y="738"/>
      <point x="372" y="738" type="curve" smooth="yes"/>
      <point x="320" y="738"/>
      <point x="277" y="696"/>
      <point x="277" y="643" type="curve" smooth="yes"/>
      <point x="277" y="590"/>
      <point x="320" y="548"/>
      <point x="372" y="548" type="curve" smooth="yes"/>
      <point x="424" y="548"/>
      <point x="467" y="590"/>
    </contour>
  </outline>
</glyph>
<glyph name="dotlessi" format="1">
  <advance width="612"/>
  <unicode hex="0131"/>
  <outline>
    <contour>
      <point x="380" y="12" type="curve"/>
      <point x="525" y="110" type="line"/>
      <point x="462" y="204" type="line"/>
      <point x="328" y="112" type="line"/>
      <point x="318" y="119" type="line"/>
      <point x="378" y="370" type="line" smooth="yes"/>
      <point x="381" y="382"/>
      <point x="382" y="394"/>
      <point x="382" y="405" type="curve" smooth="yes"/>
      <point x="382" y="470"/>
      <point x="332" y="510"/>
      <point x="273" y="510" type="curve" smooth="yes"/>
      <point x="246" y="510"/>
      <point x="217" y="502"/>
      <point x="191" y="484" type="curve" smooth="yes"/>
      <point x="46" y="386" type="line"/>
      <point x="109" y="292" type="line"/>
      <point x="243" y="384" type="line"/>
      <point x="253" y="377" type="line"/>
      <point x="193" y="126" type="line" smooth="yes"/>
      <point x="190" y="114"/>
      <point x="189" y="102"/>
      <point x="189" y="91" type="curve" smooth="yes"/>
      <point x="189" y="26"/>
      <point x="239" y="-14"/>
      <point x="298" y="-14" type="curve" smooth="yes"/>
      <point x="325" y="-14"/>
      <point x="354" y="-6"/>
    </contour>
  </outline>
</glyph>
<glyph name="ij" format="1">
  <advance width="612"/>
  <unicode hex="0133"/>
  <outline>
    <contour>
      <point x="650" y="643" type="curve" smooth="yes"/>
      <point x="650" y="696"/>
      <point x="607" y="738"/>
      <point x="555" y="738" type="curve" smooth="yes"/>
      <point x="503" y="738"/>
      <point x="460" y="696"/>
      <point x="460" y="643" type="curve" smooth="yes"/>
      <point x="460" y="590"/>
      <point x="503" y="548"/>
      <point x="555" y="548" type="curve" smooth="yes"/>
      <point x="607" y="548"/>
      <point x="650" y="590"/>
    </contour>
    <contour>
      <point x="328" y="643" type="curve" smooth="yes"/>
      <point x="328" y="696"/>
      <point x="285" y="738"/>
      <point x="233" y="738" type="curve" smooth="yes"/>
      <point x="181" y="738"/>
      <point x="138" y="696"/>
      <point x="138" y="643" type="curve" smooth="yes"/>
      <point x="138" y="590"/>
      <point x="181" y="548"/>
      <point x="233" y="548" type="curve" smooth="yes"/>
      <point x="285" y="548"/>
      <point x="328" y="590"/>
    </contour>
    <contour>
      <point x="243" y="374" type="line" smooth="yes"/>
      <point x="245" y="384"/>
      <point x="246" y="393"/>
      <point x="246" y="404" type="curve" smooth="yes"/>
      <point x="246" y="470"/>
      <point x="195" y="510"/>
      <point x="136" y="510" type="curve" smooth="yes"/>
      <point x="110" y="510"/>
      <point x="82" y="502"/>
      <point x="57" y="485" type="curve" smooth="yes"/>
      <point x="-16" y="436" type="line"/>
      <point x="47" y="342" type="line"/>
      <point x="107" y="384" type="line"/>
      <point x="117" y="377" type="line"/>
      <point x="78" y="192" type="line" smooth="yes"/>
      <point x="74" y="173"/>
      <point x="72" y="156"/>
      <point x="72" y="140" type="curve" smooth="yes"/>
      <point x="72" y="42"/>
      <point x="138" y="-14"/>
      <point x="217" y="-14" type="curve" smooth="yes"/>
      <point x="285" y="-14"/>
      <point x="329" y="12"/>
      <point x="358" y="72" type="curve"/>
      <point x="376" y="72" type="line"/>
      <point x="350" y="-50" type="line" smooth="yes"/>
      <point x="346" y="-69"/>
      <point x="336" y="-80"/>
      <point x="317" y="-80" type="curve" smooth="yes"/>
      <point x="132" y="-80" type="line"/>
      <point x="132" y="-200" type="line"/>
      <point x="368" y="-200" type="line" smooth="yes"/>
      <point x="413" y="-200"/>
      <point x="452" y="-167"/>
      <point x="461" y="-122" type="curve" smooth="yes"/>
      <point x="592" y="496" type="line"/>
      <point x="466" y="496" type="line"/>
      <point x="411" y="236" type="line" smooth="yes"/>
      <point x="392" y="148"/>
      <point x="357" y="100"/>
      <point x="285" y="100" type="curve" smooth="yes"/>
      <point x="235" y="100"/>
      <point x="203" y="127"/>
      <point x="203" y="177" type="curve" smooth="yes"/>
      <point x="203" y="187"/>
      <point x="205" y="198"/>
      <point x="207" y="208" type="curve" smooth="yes"/>
    </contour>
  </outline>
</glyph>
<glyph name="uni0137" format="1">
  <advance width="612"/>
  <unicode hex="0137"/>
  <outline>
    <contour>
      <point x="165" y="-134" type="curve" smooth="yes"/>
      <point x="165" y="-192"/>
      <point x="210" y="-218"/>
      <point x="253" y="-218" type="curve"/>
      <point x="250" y="-237" type="line" smooth="yes"/>
      <point x="247" y="-256"/>
      <point x="236" y="-260"/>
      <point x="214" y="-260" type="curve" smooth="yes"/>
      <point x="172" y="-260" type="line"/>
      <point x="172" y="-338" type="line"/>
      <point x="220" y="-338" type="line" smooth="yes"/>
      <point x="272" y="-338"/>
      <point x="311" y="-316"/>
      <point x="321" y="-269" type="curve" smooth="yes"/>
      <point x="345" y="-155" type="line" smooth="yes"/>
      <point x="346" y="-148"/>
      <point x="347" y="-141"/>
      <point x="347" y="-135" type="curve" smooth="yes"/>
      <point x="347" y="-85"/>
      <point x="305" y="-44"/>
      <point x="256" y="-44" type="curve" smooth="yes"/>
      <point x="206" y="-44"/>
      <point x="165" y="-83"/>
    </contour>
    <component base="k" xOffset="6"/>
  </outline>
</glyph>
<glyph name="lcaron" format="1">
  <advance width="612"/>
  <unicode hex="013E"/>
  <outline>
    <contour>
      <point x="414" y="610" type="curve" smooth="yes"/>
      <point x="414" y="550"/>
      <point x="458" y="523"/>
      <point x="502" y="523" type="curve"/>
      <point x="499" y="508" type="line" smooth="yes"/>
      <point x="496" y="491"/>
      <point x="485" y="484"/>
      <point x="466" y="484" type="curve" smooth="yes"/>
      <point x="392" y="484" type="line"/>
      <point x="392" y="406" type="line"/>
      <point x="469" y="406" type="line" smooth="yes"/>
      <point x="521" y="406"/>
      <point x="560" y="428"/>
      <point x="570" y="476" type="curve" smooth="yes"/>
      <point x="594" y="590" type="line" smooth="yes"/>
      <point x="595" y="596"/>
      <point x="596" y="603"/>
      <point x="596" y="609" type="curve" smooth="yes"/>
      <point x="596" y="660"/>
      <point x="554" y="700"/>
      <point x="505" y="700" type="curve" smooth="yes"/>
      <point x="455" y="700"/>
      <point x="414" y="662"/>
    </contour>
    <component base="l" xOffset="-70"/>
  </outline>
</glyph>
<glyph name="Lslash" format="1">
  <advance width="612"/>
  <unicode hex="0141"/>
  <outline>
    <contour>
      <point x="15" y="0" type="line"/>
      <point x="475" y="0" type="line"/>
      <point x="475" y="126" type="line"/>
      <point x="171" y="126" type="line"/>
      <point x="207" y="296" type="line"/>
      <point x="337" y="332" type="line"/>
      <point x="308" y="439" type="line"/>
      <point x="233" y="418" type="line"/>
      <point x="293" y="700" type="line"/>
      <point x="161" y="700" type="line"/>
      <point x="93" y="379" type="line"/>
      <point x="-13" y="350" type="line"/>
      <point x="14" y="243" type="line"/>
      <point x="67" y="257" type="line"/>
      <point x="15" y="12" type="line"/>
    </contour>
  </outline>
</glyph>
<glyph name="lslash" format="1">
  <advance width="612"/>
  <unicode hex="0142"/>
  <outline>
    <contour>
      <point x="144" y="243" type="line"/>
      <point x="218" y="262" type="line"/>
      <point x="186" y="126" type="line" smooth="yes"/>
      <point x="183" y="113"/>
      <point x="182" y="102"/>
      <point x="182" y="91" type="curve" smooth="yes"/>
      <point x="182" y="26"/>
      <point x="232" y="-14"/>
      <point x="291" y="-14" type="curve" smooth="yes"/>
      <point x="318" y="-14"/>
      <point x="347" y="-6"/>
      <point x="373" y="12" type="curve" smooth="yes"/>
      <point x="518" y="110" type="line"/>
      <point x="455" y="204" type="line"/>
      <point x="321" y="112" type="line"/>
      <point x="311" y="119" type="line"/>
      <point x="353" y="296" type="line"/>
      <point x="491" y="331" type="line"/>
      <point x="462" y="442" type="line"/>
      <point x="383" y="422" type="line"/>
      <point x="420" y="574" type="line" smooth="yes"/>
      <point x="423" y="588"/>
      <point x="424" y="598"/>
      <point x="424" y="609" type="curve" smooth="yes"/>
      <point x="424" y="674"/>
      <point x="374" y="714"/>
      <point x="315" y="714" type="curve" smooth="yes"/>
      <point x="288" y="714"/>
      <point x="259" y="706"/>
      <point x="233" y="688" type="curve" smooth="yes"/>
      <point x="88" y="590" type="line"/>
      <point x="151" y="496" type="line"/>
      <point x="285" y="588" type="line"/>
      <point x="295" y="581" type="line"/>
      <point x="248" y="388" type="line"/>
      <point x="115" y="354" type="line"/>
    </contour>
  </outline>
</glyph>
<glyph name="napostrophe" format="1">
  <advance width="612"/>
  <unicode hex="0149"/>
  <outline>
    <contour>
      <point x="104" y="736" type="curve" smooth="yes"/>
      <point x="104" y="678"/>
      <point x="149" y="652"/>
      <point x="192" y="652" type="curve"/>
      <point x="190" y="639" type="line" smooth="yes"/>
      <point x="187" y="620"/>
      <point x="176" y="616"/>
      <point x="154" y="616" type="curve" smooth="yes"/>
      <point x="105" y="616" type="line"/>
      <point x="105" y="538" type="line"/>
      <point x="160" y="538" type="line" smooth="yes"/>
      <point x="212" y="538"/>
      <point x="251" y="560"/>
      <point x="261" y="607" type="curve" smooth="yes"/>
      <point x="284" y="715" type="line" smooth="yes"/>
      <point x="285" y="723"/>
      <point x="286" y="729"/>
      <point x="286" y="735" type="curve" smooth="yes"/>
      <point x="286" y="786"/>
      <point x="244" y="826"/>
      <point x="195" y="826" type="curve" smooth="yes"/>
      <point x="145" y="826"/>
      <point x="104" y="788"/>
    </contour>
    <component base="n"/>
  </outline>
</glyph>
<glyph name="Eng" format="1">
  <advance width="612"/>
  <unicode hex="014A"/>
  <outline>
    <contour>
      <point x="387" y="700" type="line"/>
      <point x="141" y="700" type="line"/>
      <point x="-7" y="0" type="line"/>
      <point x="118" y="0" type="line"/>
      <point x="253" y="634" type="line"/>
      <point x="271" y="634" type="line"/>
      <point x="224" y="0" type="line"/>
      <point x="345" y="0" type="line"/>
      <point x="335" y="-47" type="line" smooth="yes"/>
      <point x="331" y="-68"/>
      <point x="319" y="-80"/>
      <point x="298" y="-80" type="curve" smooth="yes"/>
      <point x="147" y="-80" type="line"/>
      <point x="147" y="-200" type="line"/>
      <point x="326" y="-200" type="line" smooth="yes"/>
      <point x="386" y="-200"/>
      <point x="434" y="-167"/>
      <point x="449" y="-98" type="curve" smooth="yes"/>
      <point x="619" y="700" type="line"/>
      <point x="493" y="700" type="line"/>
      <point x="358" y="66" type="line"/>
      <point x="340" y="66" type="line"/>
    </contour>
  </outline>
</glyph>
<glyph name="scedilla" format="1">
  <advance width="612"/>
  <unicode hex="015F"/>
  <outline>
    <contour>
      <point x="322" y="396" type="curve" smooth="yes"/>
      <point x="373" y="396"/>
      <point x="401" y="374"/>
      <point x="406" y="338" type="curve"/>
      <point x="528" y="370" type="line"/>
      <point x="520" y="427"/>
      <point x="476" y="510"/>
      <point x="338" y="510" type="curve" smooth="yes"/>
      <point x="226" y="510"/>
      <point x="126" y="448"/>
      <point x="126" y="335" type="curve" smooth="yes"/>
      <point x="126" y="258"/>
      <point x="187" y="209"/>
      <point x="283" y="201" type="curve" smooth="yes"/>
      <point x="354" y="195"/>
      <point x="377" y="178"/>
      <point x="377" y="150" type="curve" smooth="yes"/>
      <point x="377" y="113"/>
      <point x="336" y="100"/>
      <point x="290" y="100" type="curve" smooth="yes"/>
      <point x="222" y="100"/>
      <point x="190" y="136"/>
      <point x="186" y="180" type="curve"/>
      <point x="62" y="150" type="line"/>
      <point x="65" y="91"/>
      <point x="109" y="16"/>
      <point x="209" y="-7" type="curve"/>
      <point x="179" y="-92" type="line"/>
      <point x="179" y="-104" type="line"/>
      <point x="276" y="-104" type="line"/>
      <point x="280" y="-96"/>
      <point x="286" y="-90"/>
      <point x="297" y="-90" type="curve" smooth="yes"/>
      <point x="308" y="-90"/>
      <point x="315" y="-97"/>
      <point x="315" y="-109" type="curve" smooth="yes"/>
      <point x="315" y="-128"/>
      <point x="298" y="-138"/>
      <point x="275" y="-138" type="curve" smooth="yes"/>
      <point x="254" y="-138"/>
      <point x="237" y="-132"/>
      <point x="224" y="-123" type="curve"/>
      <point x="187" y="-192" type="line"/>
      <point x="207" y="-204"/>
      <point x="235" y="-212"/>
      <point x="280" y="-212" type="curve" smooth="yes"/>
      <point x="357" y="-212"/>
      <point x="401" y="-170"/>
      <point x="401" y="-102" type="curve" smooth="yes"/>
      <point x="401" y="-52"/>
      <point x="373" y="-24"/>
      <point x="334" y="-24" type="curve" smooth="yes"/>
      <point x="309" y="-24"/>
      <point x="293" y="-34"/>
      <point x="283" y="-46" type="curve"/>
      <point x="271" y="-46" type="line"/>
      <point x="285" y="-14" type="line"/>
      <point x="422" y="-10"/>
      <point x="506" y="61"/>
      <point x="506" y="174" type="curve" smooth="yes"/>
      <point x="506" y="252"/>
      <point x="447" y="294"/>
      <point x="361" y="304" type="curve" smooth="yes"/>
      <point x="284" y="313"/>
      <point x="255" y="324"/>
      <point x="255" y="352" type="curve" smooth="yes"/>
      <point x="255" y="384"/>
      <point x="294" y="396"/>
    </contour>
  </outline>
</glyph>
<glyph name="uni0162" format="1">
  <advance width="612"/>
  <unicode hex="0162"/>
  <outline>
    <contour>
      <point x="100" y="574" type="line"/>
      <point x="286" y="574" type="line"/>
      <point x="144" y="-92" type="line"/>
      <point x="144" y="-104" type="line"/>
      <point x="228" y="-104" type="line"/>
      <point x="232" y="-96"/>
      <point x="238" y="-90"/>
      <point x="249" y="-90" type="curve" smooth="yes"/>
      <point x="260" y="-90"/>
      <point x="267" y="-97"/>
      <point x="267" y="-109" type="curve" smooth="yes"/>
      <point x="267" y="-128"/>
      <point x="250" y="-138"/>
      <point x="227" y="-138" type="curve" smooth="yes"/>
      <point x="206" y="-138"/>
      <point x="189" y="-132"/>
      <point x="176" y="-123" type="curve"/>
      <point x="139" y="-192" type="line"/>
      <point x="159" y="-204"/>
      <point x="187" y="-212"/>
      <point x="232" y="-212" type="curve" smooth="yes"/>
      <point x="309" y="-212"/>
      <point x="353" y="-170"/>
      <point x="353" y="-102" type="curve" smooth="yes"/>
      <point x="353" y="-52"/>
      <point x="325" y="-24"/>
      <point x="286" y="-24" type="curve" smooth="yes"/>
      <point x="261" y="-24"/>
      <point x="245" y="-34"/>
      <point x="235" y="-46" type="curve"/>
      <point x="223" y="-46" type="line"/>
      <point x="233" y="0" type="line"/>
      <point x="296" y="0" type="line"/>
      <point x="418" y="574" type="line"/>
      <point x="604" y="574" type="line"/>
      <point x="604" y="700" type="line"/>
      <point x="100" y="700" type="line"/>
    </contour>
  </outline>
</glyph>
<glyph name="uni0163" format="1">
  <advance width="612"/>
  <unicode hex="0163"/>
  <outline>
    <contour>
      <point x="163" y="126" type="line" smooth="yes"/>
      <point x="160" y="111"/>
      <point x="159" y="104"/>
      <point x="159" y="94" type="curve" smooth="yes"/>
      <point x="159" y="58"/>
      <point x="173" y="29"/>
      <point x="196" y="10" type="curve"/>
      <point x="160" y="-92" type="line"/>
      <point x="160" y="-104" type="line"/>
      <point x="257" y="-104" type="line"/>
      <point x="261" y="-96"/>
      <point x="267" y="-90"/>
      <point x="278" y="-90" type="curve" smooth="yes"/>
      <point x="289" y="-90"/>
      <point x="296" y="-97"/>
      <point x="296" y="-109" type="curve" smooth="yes"/>
      <point x="296" y="-128"/>
      <point x="279" y="-138"/>
      <point x="256" y="-138" type="curve" smooth="yes"/>
      <point x="235" y="-138"/>
      <point x="218" y="-132"/>
      <point x="205" y="-123" type="curve"/>
      <point x="168" y="-192" type="line"/>
      <point x="188" y="-204"/>
      <point x="216" y="-212"/>
      <point x="261" y="-212" type="curve" smooth="yes"/>
      <point x="338" y="-212"/>
      <point x="382" y="-170"/>
      <point x="382" y="-102" type="curve" smooth="yes"/>
      <point x="382" y="-52"/>
      <point x="354" y="-24"/>
      <point x="315" y="-24" type="curve" smooth="yes"/>
      <point x="290" y="-24"/>
      <point x="274" y="-34"/>
      <point x="264" y="-46" type="curve"/>
      <point x="252" y="-46" type="line"/>
      <point x="265" y="-14" type="line"/>
      <point x="269" y="-14" type="line" smooth="yes"/>
      <point x="295" y="-14"/>
      <point x="324" y="-6"/>
      <point x="350" y="12" type="curve" smooth="yes"/>
      <point x="495" y="110" type="line"/>
      <point x="432" y="204" type="line"/>
      <point x="298" y="112" type="line"/>
      <point x="288" y="119" type="line"/>
      <point x="344" y="376" type="line"/>
      <point x="542" y="376" type="line"/>
      <point x="542" y="496" type="line"/>
      <point x="370" y="496" type="line"/>
      <point x="416" y="714" type="line"/>
      <point x="290" y="714" type="line"/>
      <point x="244" y="496" type="line"/>
      <point x="78" y="496" type="line"/>
      <point x="78" y="376" type="line"/>
      <point x="218" y="376" type="line"/>
    </contour>
  </outline>
</glyph>
<glyph name="tcaron" format="1">
  <advance width="612"/>
  <unicode hex="0165"/>
  <outline>
    <contour>
      <point x="163" y="126" type="line" smooth="yes"/>
      <point x="160" y="111"/>
      <point x="159" y="104"/>
      <point x="159" y="94" type="curve" smooth="yes"/>
      <point x="159" y="27"/>
      <point x="210" y="-14"/>
      <point x="269" y="-14" type="curve" smooth="yes"/>
      <point x="296" y="-14"/>
      <point x="324" y="-6"/>
      <point x="350" y="12" type="curve" smooth="yes"/>
      <point x="495" y="110" type="line"/>
      <point x="432" y="204" type="line"/>
      <point x="298" y="112" type="line"/>
      <point x="288" y="119" type="line"/>
      <point x="344" y="376" type="line"/>
      <point x="414" y="376" type="line"/>
      <point x="414" y="496" type="line"/>
      <point x="370" y="496" type="line"/>
      <point x="416" y="714" type="line"/>
      <point x="290" y="714" type="line"/>
      <point x="244" y="496" type="line"/>
      <point x="78" y="496" type="line"/>
      <point x="78" y="376" type="line"/>
      <point x="218" y="376" type="line"/>
    </contour>
    <contour>
      <point x="450" y="606" type="curve" smooth="yes"/>
      <point x="450" y="544"/>
      <point x="496" y="516"/>
      <point x="542" y="516" type="curve"/>
      <point x="535" y="482" type="line" smooth="yes"/>
      <point x="531" y="462"/>
      <point x="520" y="454"/>
      <point x="498" y="454" type="curve" smooth="yes"/>
      <point x="450" y="454" type="line"/>
      <point x="450" y="376" type="line"/>
      <point x="504" y="376" type="line" smooth="yes"/>
      <point x="558" y="376"/>
      <point x="598" y="399"/>
      <point x="609" y="449" type="curve" smooth="yes"/>
      <point x="638" y="585" type="line" smooth="yes"/>
      <point x="639" y="592"/>
      <point x="640" y="599"/>
      <point x="640" y="605" type="curve" smooth="yes"/>
      <point x="640" y="658"/>
      <point x="597" y="700"/>
      <point x="545" y="700" type="curve" smooth="yes"/>
      <point x="493" y="700"/>
      <point x="450" y="660"/>
    </contour>
  </outline>
</glyph>
<glyph name="longs" format="1">
  <advance width="612"/>
  <unicode hex="017F"/>
  <outline>
    <contour>
      <point x="139" y="-74" type="line"/>
      <point x="127" y="-76" type="line"/>
      <point x="83" y="0" type="line"/>
      <point x="-14" y="-59" type="line"/>
      <point x="49" y="-160" type="line" smooth="yes"/>
      <point x="69" y="-193"/>
      <point x="109" y="-212"/>
      <point x="148" y="-212" type="curve" smooth="yes"/>
      <point x="194" y="-212"/>
      <point x="239" y="-185"/>
      <point x="254" y="-120" type="curve" smooth="yes"/>
      <point x="403" y="550" type="line" smooth="yes"/>
      <point x="407" y="569"/>
      <point x="417" y="580"/>
      <point x="436" y="580" type="curve" smooth="yes"/>
      <point x="586" y="580" type="line"/>
      <point x="586" y="700" type="line"/>
      <point x="410" y="700" type="line" smooth="yes"/>
      <point x="353" y="700"/>
      <point x="299" y="655"/>
      <point x="287" y="598" type="curve" smooth="yes"/>
      <point x="265" y="496" type="line"/>
      <point x="98" y="496" type="line"/>
      <point x="98" y="376" type="line"/>
      <point x="239" y="376" type="line"/>
    </contour>
  </outline>
</glyph>
<glyph name="uni0180" format="1">
  <advance width="612"/>
  <unicode hex="0180"/>
  <outline>
    <contour>
      <point x="160" y="72" type="line"/>
      <point x="178" y="72" type="line"/>
      <point x="187" y="26"/>
      <point x="216" y="-14"/>
      <point x="304" y="-14" type="curve" smooth="yes"/>
      <point x="454" y="-14"/>
      <point x="577" y="114"/>
      <point x="577" y="320" type="curve" smooth="yes"/>
      <point x="577" y="434"/>
      <point x="512" y="510"/>
      <point x="410" y="510" type="curve" smooth="yes"/>
      <point x="340" y="510"/>
      <point x="287" y="480"/>
      <point x="253" y="424" type="curve"/>
      <point x="235" y="424" type="line"/>
      <point x="259" y="538" type="line"/>
      <point x="410" y="538" type="line"/>
      <point x="410" y="652" type="line"/>
      <point x="284" y="652" type="line"/>
      <point x="297" y="714" type="line"/>
      <point x="171" y="714" type="line"/>
      <point x="158" y="652" type="line"/>
      <point x="86" y="652" type="line"/>
      <point x="86" y="538" type="line"/>
      <point x="134" y="538" type="line"/>
      <point x="20" y="0" type="line"/>
      <point x="145" y="0" type="line"/>
    </contour>
    <contour>
      <point x="288" y="106" type="curve"/>
      <point x="228" y="106"/>
      <point x="193" y="144"/>
      <point x="193" y="208" type="curve" smooth="yes"/>
      <point x="193" y="310"/>
      <point x="252" y="390"/>
      <point x="344" y="390" type="curve" smooth="yes"/>
      <point x="406" y="390"/>
      <point x="446" y="350"/>
      <point x="446" y="288" type="curve" smooth="yes"/>
      <point x="446" y="190"/>
      <point x="384" y="108"/>
    </contour>
  </outline>
</glyph>
<glyph name="uni018F" format="1">
  <advance width="612"/>
  <unicode hex="018F"/>
  <outline>
    <contour>
      <point x="56" y="380" type="line"/>
      <point x="440" y="380" type="line"/>
      <point x="452" y="438" type="line" smooth="yes"/>
      <point x="456" y="456"/>
      <point x="457" y="471"/>
      <point x="457" y="486" type="curve" smooth="yes"/>
      <point x="457" y="550"/>
      <point x="425" y="594"/>
      <point x="352" y="594" type="curve" smooth="yes"/>
      <point x="258" y="594"/>
      <point x="216" y="522"/>
      <point x="202" y="448" type="curve"/>
      <point x="70" y="448" type="line"/>
      <point x="108" y="628"/>
      <point x="210" y="714"/>
      <point x="372" y="714" type="curve" smooth="yes"/>
      <point x="511" y="714"/>
      <point x="590" y="623"/>
      <point x="590" y="498" type="curve" smooth="yes"/>
      <point x="590" y="476"/>
      <point x="586" y="449"/>
      <point x="582" y="428" type="curve" smooth="yes"/>
      <point x="549" y="272" type="line" smooth="yes"/>
      <point x="506" y="68"/>
      <point x="402" y="-14"/>
      <point x="230" y="-14" type="curve" smooth="yes"/>
      <point x="102" y="-14"/>
      <point x="22" y="65"/>
      <point x="22" y="186" type="curve" smooth="yes"/>
      <point x="22" y="207"/>
      <point x="24" y="229"/>
      <point x="29" y="252" type="curve" smooth="yes"/>
    </contour>
    <contour>
      <point x="254" y="106" type="curve" smooth="yes"/>
      <point x="348" y="106"/>
      <point x="395" y="167"/>
      <point x="413" y="254" type="curve"/>
      <point x="161" y="254" type="line"/>
      <point x="159" y="246" type="line" smooth="yes"/>
      <point x="156" y="232"/>
      <point x="153" y="213"/>
      <point x="153" y="198" type="curve" smooth="yes"/>
      <point x="153" y="147"/>
      <point x="177" y="106"/>
    </contour>
  </outline>
</glyph>
<glyph name="uni01A0" format="1">
  <advance width="612"/>
  <unicode hex="01A0"/>
  <outline>
    <contour>
      <point x="464" y="610" type="curve" smooth="yes"/>
      <point x="464" y="560"/>
      <point x="504" y="526"/>
      <point x="540" y="526" type="curve"/>
      <point x="537" y="510" type="line" smooth="yes"/>
      <point x="533" y="491"/>
      <point x="521" y="480"/>
      <point x="502" y="480" type="curve" smooth="yes"/>
      <point x="438" y="480" type="line"/>
      <point x="446" y="515" type="line" smooth="yes"/>
      <point x="449" y="530"/>
      <point x="451" y="544"/>
      <point x="451" y="558" type="curve" smooth="yes"/>
      <point x="451" y="646"/>
      <point x="389" y="714"/>
      <point x="278" y="714" type="curve" smooth="yes"/>
      <point x="151" y="714"/>
      <point x="84" y="636"/>
      <point x="62" y="529" type="curve" smooth="yes"/>
      <point x="-10" y="185" type="line" smooth="yes"/>
      <point x="-13" y="170"/>
      <point x="-15" y="156"/>
      <point x="-15" y="142" type="curve" smooth="yes"/>
      <point x="-15" y="54"/>
      <point x="47" y="-14"/>
      <point x="158" y="-14" type="curve" smooth="yes"/>
      <point x="285" y="-14"/>
      <point x="352" y="64"/>
      <point x="374" y="171" type="curve" smooth="yes"/>
      <point x="422" y="402" type="line"/>
      <point x="501" y="402" type="line" smooth="yes"/>
      <point x="560" y="402"/>
      <point x="597" y="427"/>
      <point x="609" y="484" type="curve" smooth="yes"/>
      <point x="632" y="592" type="line" smooth="yes"/>
      <point x="634" y="601"/>
      <point x="635" y="609"/>
      <point x="635" y="617" type="curve" smooth="yes"/>
      <point x="635" y="665"/>
      <point x="603" y="700"/>
      <point x="554" y="700" type="curve" smooth="yes"/>
      <point x="505" y="700"/>
      <point x="464" y="659"/>
    </contour>
    <contour>
      <point x="174" y="112" type="curve" smooth="yes"/>
      <point x="140" y="112"/>
      <point x="119" y="133"/>
      <point x="119" y="166" type="curve" smooth="yes"/>
      <point x="119" y="174"/>
      <point x="120" y="179"/>
      <point x="121" y="185" type="curve" smooth="yes"/>
      <point x="192" y="519" type="line" smooth="yes"/>
      <point x="200" y="558"/>
      <point x="217" y="588"/>
      <point x="262" y="588" type="curve" smooth="yes"/>
      <point x="296" y="588"/>
      <point x="317" y="567"/>
      <point x="317" y="534" type="curve" smooth="yes"/>
      <point x="317" y="526"/>
      <point x="316" y="521"/>
      <point x="315" y="515" type="curve" smooth="yes"/>
      <point x="244" y="181" type="line" smooth="yes"/>
      <point x="236" y="142"/>
      <point x="219" y="112"/>
    </contour>
  </outline>
</glyph>
<glyph name="uni01B0" format="1">
  <advance width="612"/>
  <unicode hex="01B0"/>
  <outline>
    <contour>
      <point x="475" y="406" type="curve" smooth="yes"/>
      <point x="475" y="356"/>
      <point x="515" y="322"/>
      <point x="551" y="322" type="curve"/>
      <point x="549" y="312" type="line" smooth="yes"/>
      <point x="545" y="293"/>
      <point x="533" y="282"/>
      <point x="514" y="282" type="curve" smooth="yes"/>
      <point x="416" y="282" type="line"/>
      <point x="462" y="496" type="line"/>
      <point x="336" y="496" type="line"/>
      <point x="269" y="180" type="line" smooth="yes"/>
      <point x="259" y="132"/>
      <point x="235" y="100"/>
      <point x="190" y="100" type="curve" smooth="yes"/>
      <point x="154" y="100"/>
      <point x="133" y="119"/>
      <point x="133" y="153" type="curve" smooth="yes"/>
      <point x="133" y="159"/>
      <point x="133" y="164"/>
      <point x="135" y="174" type="curve" smooth="yes"/>
      <point x="204" y="496" type="line"/>
      <point x="78" y="496" type="line"/>
      <point x="6" y="153" type="line" smooth="yes"/>
      <point x="2" y="135"/>
      <point x="0" y="119"/>
      <point x="0" y="104" type="curve" smooth="yes"/>
      <point x="0" y="22"/>
      <point x="54" y="-14"/>
      <point x="109" y="-14" type="curve" smooth="yes"/>
      <point x="164" y="-14"/>
      <point x="203" y="12"/>
      <point x="222" y="48" type="curve"/>
      <point x="240" y="48" type="line"/>
      <point x="230" y="0" type="line"/>
      <point x="356" y="0" type="line"/>
      <point x="399" y="204" type="line"/>
      <point x="513" y="204" type="line" smooth="yes"/>
      <point x="572" y="204"/>
      <point x="609" y="229"/>
      <point x="621" y="286" type="curve" smooth="yes"/>
      <point x="643" y="388" type="line" smooth="yes"/>
      <point x="645" y="399"/>
      <point x="646" y="405"/>
      <point x="646" y="413" type="curve" smooth="yes"/>
      <point x="646" y="461"/>
      <point x="614" y="496"/>
      <point x="565" y="496" type="curve" smooth="yes"/>
      <point x="516" y="496"/>
      <point x="475" y="455"/>
    </contour>
  </outline>
</glyph>
<glyph name="uni01D6" format="1">
  <advance width="612"/>
  <unicode hex="01D6"/>
  <outline>
    <contour>
      <point x="563" y="854" type="line"/>
      <point x="159" y="854" type="line"/>
      <point x="159" y="752" type="line"/>
      <point x="563" y="752" type="line"/>
    </contour>
    <component base="u"/>
    <component base="dieresis" xOffset="24" yOffset="-16"/>
  </outline>
</glyph>
<glyph name="uni01EB" format="1">
  <advance width="612"/>
  <unicode hex="01EB"/>
  <outline>
    <contour>
      <point x="558" y="310" type="curve" smooth="yes"/>
      <point x="558" y="430"/>
      <point x="468" y="510"/>
      <point x="342" y="510" type="curve" smooth="yes"/>
      <point x="168" y="510"/>
      <point x="33" y="390"/>
      <point x="33" y="184" type="curve" smooth="yes"/>
      <point x="33" y="68"/>
      <point x="115" y="-2"/>
      <point x="219" y="-13" type="curve"/>
      <point x="205" y="-23" type="line" smooth="yes"/>
      <point x="177" y="-44"/>
      <point x="164" y="-70"/>
      <point x="164" y="-95" type="curve" smooth="yes"/>
      <point x="164" y="-135"/>
      <point x="195" y="-170"/>
      <point x="243" y="-170" type="curve" smooth="yes"/>
      <point x="351" y="-170" type="line"/>
      <point x="351" y="-86" type="line"/>
      <point x="304" y="-86" type="line" smooth="yes"/>
      <point x="293" y="-86"/>
      <point x="287" y="-79"/>
      <point x="287" y="-72" type="curve" smooth="yes"/>
      <point x="287" y="-66"/>
      <point x="290" y="-61"/>
      <point x="295" y="-58" type="curve" smooth="yes"/>
      <point x="435" y="39" type="line" smooth="yes"/>
      <point x="512" y="92"/>
      <point x="558" y="186"/>
    </contour>
    <contour>
      <point x="265" y="104" type="curve"/>
      <point x="203" y="104"/>
      <point x="162" y="140"/>
      <point x="162" y="208" type="curve" smooth="yes"/>
      <point x="162" y="303"/>
      <point x="230" y="392"/>
      <point x="326" y="392" type="curve" smooth="yes"/>
      <point x="388" y="392"/>
      <point x="429" y="356"/>
      <point x="429" y="287" type="curve" smooth="yes"/>
      <point x="429" y="189"/>
      <point x="362" y="106"/>
    </contour>
  </outline>
</glyph>
<glyph name="uni0218" format="1">
  <advance width="612"/>
  <unicode hex="0218"/>
  <outline>
    <contour>
      <point x="140" y="-134" type="curve" smooth="yes"/>
      <point x="140" y="-192"/>
      <point x="185" y="-218"/>
      <point x="228" y="-218" type="curve"/>
      <point x="225" y="-237" type="line" smooth="yes"/>
      <point x="222" y="-256"/>
      <point x="211" y="-260"/>
      <point x="189" y="-260" type="curve" smooth="yes"/>
      <point x="140" y="-260" type="line"/>
      <point x="140" y="-338" type="line"/>
      <point x="195" y="-338" type="line" smooth="yes"/>
      <point x="247" y="-338"/>
      <point x="286" y="-316"/>
      <point x="296" y="-269" type="curve" smooth="yes"/>
      <point x="320" y="-155" type="line" smooth="yes"/>
      <point x="321" y="-148"/>
      <point x="322" y="-141"/>
      <point x="322" y="-135" type="curve" smooth="yes"/>
      <point x="322" y="-85"/>
      <point x="280" y="-44"/>
      <point x="231" y="-44" type="curve" smooth="yes"/>
      <point x="181" y="-44"/>
      <point x="140" y="-83"/>
    </contour>
    <component base="S"/>
  </outline>
</glyph>
<glyph name="uni021A" format="1">
  <advance width="612"/>
  <unicode hex="021A"/>
  <outline>
    <contour>
      <point x="112" y="-134" type="curve" smooth="yes"/>
      <point x="112" y="-192"/>
      <point x="157" y="-218"/>
      <point x="200" y="-218" type="curve"/>
      <point x="197" y="-237" type="line" smooth="yes"/>
      <point x="194" y="-256"/>
      <point x="183" y="-260"/>
      <point x="161" y="-260" type="curve" smooth="yes"/>
      <point x="112" y="-260" type="line"/>
      <point x="112" y="-338" type="line"/>
      <point x="167" y="-338" type="line" smooth="yes"/>
      <point x="219" y="-338"/>
      <point x="258" y="-316"/>
      <point x="268" y="-269" type="curve" smooth="yes"/>
      <point x="292" y="-155" type="line" smooth="yes"/>
      <point x="293" y="-148"/>
      <point x="294" y="-141"/>
      <point x="294" y="-135" type="curve" smooth="yes"/>
      <point x="294" y="-85"/>
      <point x="252" y="-44"/>
      <point x="203" y="-44" type="curve" smooth="yes"/>
      <point x="153" y="-44"/>
      <point x="112" y="-83"/>
    </contour>
    <component base="T"/>
  </outline>
</glyph>
<glyph name="uni0265" format="1">
  <advance width="612"/>
  <unicode hex="0265"/>
  <outline>
    <contour>
      <point x="257" y="370" type="line" smooth="yes"/>
      <point x="260" y="383"/>
      <point x="261" y="392"/>
      <point x="261" y="402" type="curve" smooth="yes"/>
      <point x="261" y="469"/>
      <point x="210" y="510"/>
      <point x="151" y="510" type="curve" smooth="yes"/>
      <point x="124" y="510"/>
      <point x="96" y="502"/>
      <point x="70" y="484" type="curve" smooth="yes"/>
      <point x="-5" y="434" type="line"/>
      <point x="58" y="340" type="line"/>
      <point x="122" y="384" type="line"/>
      <point x="132" y="377" type="line"/>
      <point x="92" y="190" type="line" smooth="yes"/>
      <point x="88" y="169"/>
      <point x="85" y="149"/>
      <point x="85" y="131" type="curve" smooth="yes"/>
      <point x="85" y="37"/>
      <point x="144" y="-14"/>
      <point x="226" y="-14" type="curve" smooth="yes"/>
      <point x="288" y="-14"/>
      <point x="337" y="12"/>
      <point x="372" y="68" type="curve"/>
      <point x="390" y="68" type="line"/>
      <point x="333" y="-200" type="line"/>
      <point x="459" y="-200" type="line"/>
      <point x="607" y="496" type="line"/>
      <point x="481" y="496" type="line"/>
      <point x="425" y="232" type="line" smooth="yes"/>
      <point x="408" y="152"/>
      <point x="364" y="100"/>
      <point x="296" y="100" type="curve" smooth="yes"/>
      <point x="248" y="100"/>
      <point x="218" y="128"/>
      <point x="218" y="176" type="curve" smooth="yes"/>
      <point x="218" y="186"/>
      <point x="219" y="194"/>
      <point x="222" y="208" type="curve" smooth="yes"/>
    </contour>
  </outline>
</glyph>
<glyph name="uni0287" format="1">
  <advance width="612"/>
  <unicode hex="0287"/>
  <outline>
    <contour>
      <point x="444" y="370" type="line" smooth="yes"/>
      <point x="447" y="385"/>
      <point x="448" y="392"/>
      <point x="448" y="402" type="curve" smooth="yes"/>
      <point x="448" y="469"/>
      <point x="397" y="510"/>
      <point x="338" y="510" type="curve" smooth="yes"/>
      <point x="311" y="510"/>
      <point x="283" y="502"/>
      <point x="257" y="484" type="curve" smooth="yes"/>
      <point x="112" y="386" type="line"/>
      <point x="175" y="292" type="line"/>
      <point x="309" y="384" type="line"/>
      <point x="319" y="377" type="line"/>
      <point x="263" y="120" type="line"/>
      <point x="65" y="120" type="line"/>
      <point x="65" y="0" type="line"/>
      <point x="237" y="0" type="line"/>
      <point x="195" y="-200" type="line"/>
      <point x="321" y="-200" type="line"/>
      <point x="363" y="0" type="line"/>
      <point x="529" y="0" type="line"/>
      <point x="529" y="120" type="line"/>
      <point x="389" y="120" type="line"/>
    </contour>
  </outline>
</glyph>
<glyph name="uni028D" format="1">
  <advance width="612"/>
  <unicode hex="028D"/>
  <outline>
    <contour>
      <point x="-14" y="0" type="line"/>
      <point x="102" y="0" type="line"/>
      <point x="194" y="370" type="line"/>
      <point x="206" y="424" type="line"/>
      <point x="224" y="424" type="line"/>
      <point x="214" y="376" type="line"/>
      <point x="155" y="0" type="line"/>
      <point x="357" y="0" type="line"/>
      <point x="451" y="376" type="line"/>
      <point x="462" y="424" type="line"/>
      <point x="480" y="424" type="line"/>
      <point x="469" y="370" type="line"/>
      <point x="414" y="0" type="line"/>
      <point x="526" y="0" type="line"/>
      <point x="590" y="496" type="line"/>
      <point x="381" y="496" type="line"/>
      <point x="277" y="60" type="line"/>
      <point x="259" y="60" type="line"/>
      <point x="327" y="496" type="line"/>
      <point x="117" y="496" type="line"/>
    </contour>
  </outline>
</glyph>
<glyph name="uni028E" format="1">
  <advance width="612"/>
  <unicode hex="028E"/>
  <outline>
    <contour>
      <point x="440" y="496" type="line"/>
      <point x="398" y="496" type="line"/>
      <point x="410" y="550" type="line" smooth="yes"/>
      <point x="414" y="569"/>
      <point x="424" y="580"/>
      <point x="443" y="580" type="curve" smooth="yes"/>
      <point x="597" y="580" type="line"/>
      <point x="597" y="700" type="line"/>
      <point x="405" y="700" type="line" smooth="yes"/>
      <point x="351" y="700"/>
      <point x="308" y="664"/>
      <point x="296" y="610" type="curve" smooth="yes"/>
      <point x="272" y="496" type="line"/>
      <point x="230" y="496" type="line"/>
      <point x="-20" y="0" type="line"/>
      <point x="127" y="0" type="line"/>
      <point x="310" y="400" type="line"/>
      <point x="328" y="400" type="line"/>
      <point x="361" y="96" type="line" smooth="yes"/>
      <point x="374" y="-26"/>
      <point x="507" y="-47"/>
      <point x="572" y="36" type="curve" smooth="yes"/>
      <point x="619" y="96" type="line"/>
      <point x="532" y="167" type="line"/>
      <point x="497" y="121" type="line"/>
      <point x="485" y="125" type="line"/>
    </contour>
  </outline>
</glyph>
<glyph name="uni029E" format="1">
  <advance width="612"/>
  <unicode hex="029E"/>
  <outline>
    <contour>
      <point x="438" y="496" type="line"/>
      <point x="397" y="302" type="line"/>
      <point x="374" y="302" type="line"/>
      <point x="284" y="450" type="line" smooth="yes"/>
      <point x="261" y="489"/>
      <point x="229" y="510"/>
      <point x="183" y="510" type="curve" smooth="yes"/>
      <point x="154" y="510"/>
      <point x="121" y="500"/>
      <point x="89" y="476" type="curve" smooth="yes"/>
      <point x="44" y="442" type="line"/>
      <point x="105" y="354" type="line"/>
      <point x="160" y="392" type="line"/>
      <point x="172" y="392" type="line"/>
      <point x="252" y="260" type="line"/>
      <point x="252" y="242" type="line"/>
      <point x="6" y="12" type="line"/>
      <point x="6" y="0" type="line"/>
      <point x="160" y="0" type="line"/>
      <point x="347" y="182" type="line"/>
      <point x="371" y="182" type="line"/>
      <point x="290" y="-200" type="line"/>
      <point x="416" y="-200" type="line"/>
      <point x="564" y="496" type="line"/>
    </contour>
  </outline>
</glyph>
<glyph name="breve" format="1">
  <advance width="612"/>
  <unicode hex="02D8"/>
  <outline>
    <contour>
      <point x="415" y="700" type="line"/>
      <point x="414" y="694" type="line" smooth="yes"/>
      <point x="409" y="666"/>
      <point x="391" y="652"/>
      <point x="363" y="652" type="curve" smooth="yes"/>
      <point x="339" y="652"/>
      <point x="329" y="664"/>
      <point x="329" y="683" type="curve" smooth="yes"/>
      <point x="329" y="690"/>
      <point x="330" y="696"/>
      <point x="331" y="700" type="curve"/>
      <point x="241" y="700" type="line"/>
      <point x="237" y="684"/>
      <point x="236" y="671"/>
      <point x="236" y="664" type="curve" smooth="yes"/>
      <point x="236" y="607"/>
      <point x="283" y="564"/>
      <point x="350" y="564" type="curve" smooth="yes"/>
      <point x="434" y="564"/>
      <point x="484" y="602"/>
      <point x="502" y="686" type="curve" smooth="yes"/>
      <point x="505" y="700" type="line"/>
    </contour>
  </outline>
</glyph>
<glyph name="dotaccent" format="1">
  <advance width="612"/>
  <unicode hex="02D9"/>
  <outline>
    <contour>
      <point x="453" y="643" type="curve" smooth="yes"/>
      <point x="453" y="696"/>
      <point x="410" y="738"/>
      <point x="358" y="738" type="curve" smooth="yes"/>
      <point x="306" y="738"/>
      <point x="263" y="696"/>
      <point x="263" y="643" type="curve" smooth="yes"/>
      <point x="263" y="590"/>
      <point x="306" y="548"/>
      <point x="358" y="548" type="curve" smooth="yes"/>
      <point x="410" y="548"/>
      <point x="453" y="590"/>
    </contour>
  </outline>
</glyph>
<glyph name="ring" format="1">
  <advance width="612"/>
  <unicode hex="02DA"/>
  <outline>
    <contour>
      <point x="198" y="676" type="curve" smooth="yes"/>
      <point x="198" y="616"/>
      <point x="246" y="568"/>
      <point x="306" y="568" type="curve" smooth="yes"/>
      <point x="366" y="568"/>
      <point x="414" y="616"/>
      <point x="414" y="676" type="curve" smooth="yes"/>
      <point x="414" y="736"/>
      <point x="366" y="784"/>
      <point x="306" y="784" type="curve" smooth="yes"/>
      <point x="246" y="784"/>
      <point x="198" y="736"/>
    </contour>
    <contour>
      <point x="276" y="676" type="curve" smooth="yes"/>
      <point x="276" y="693"/>
      <point x="289" y="706"/>
      <point x="306" y="706" type="curve" smooth="yes"/>
      <point x="323" y="706"/>
      <point x="336" y="693"/>
      <point x="336" y="676" type="curve" smooth="yes"/>
      <point x="336" y="659"/>
      <point x="323" y="646"/>
      <point x="306" y="646" type="curve" smooth="yes"/>
      <point x="289" y="646"/>
      <point x="276" y="659"/>
    </contour>
  </outline>
</glyph>
<glyph name="ogonek" format="1">
  <advance width="612"/>
  <unicode hex="02DB"/>
  <outline>
    <contour>
      <point x="293" y="30" type="line"/>
      <point x="251" y="-66" type="line" smooth="yes"/>
      <point x="244" y="-82"/>
      <point x="241" y="-96"/>
      <point x="241" y="-109" type="curve" smooth="yes"/>
      <point x="241" y="-147"/>
      <point x="269" y="-170"/>
      <point x="311" y="-170" type="curve" smooth="yes"/>
      <point x="393" y="-170" type="line"/>
      <point x="393" y="-86" type="line"/>
      <point x="356" y="-86" type="line" smooth="yes"/>
      <point x="343" y="-86"/>
      <point x="337" y="-80"/>
      <point x="337" y="-70" type="curve" smooth="yes"/>
      <point x="337" y="-64"/>
      <point x="338" y="-61"/>
      <point x="340" y="-56" type="curve" smooth="yes"/>
      <point x="379" y="30" type="line"/>
    </contour>
  </outline>
</glyph>
<glyph name="tilde" format="1">
  <advance width="612"/>
  <unicode hex="02DC"/>
  <outline>
    <contour>
      <point x="380" y="681" type="curve" smooth="yes"/>
      <point x="363" y="708"/>
      <point x="338" y="719"/>
      <point x="311" y="719" type="curve" smooth="yes"/>
      <point x="278" y="719"/>
      <point x="248" y="706"/>
      <point x="225" y="679" type="curve" smooth="yes"/>
      <point x="163" y="609" type="line"/>
      <point x="231" y="552" type="line"/>
      <point x="259" y="586" type="line" smooth="yes"/>
      <point x="272" y="602"/>
      <point x="284" y="612"/>
      <point x="300" y="612" type="curve" smooth="yes"/>
      <point x="318" y="612"/>
      <point x="327" y="600"/>
      <point x="335" y="588" type="curve" smooth="yes"/>
      <point x="352" y="561"/>
      <point x="377" y="550"/>
      <point x="404" y="550" type="curve" smooth="yes"/>
      <point x="437" y="550"/>
      <point x="467" y="563"/>
      <point x="490" y="590" type="curve" smooth="yes"/>
      <point x="552" y="660" type="line"/>
      <point x="484" y="717" type="line"/>
      <point x="456" y="683" type="line" smooth="yes"/>
      <point x="443" y="667"/>
      <point x="431" y="657"/>
      <point x="415" y="657" type="curve" smooth="yes"/>
      <point x="397" y="657"/>
      <point x="388" y="669"/>
    </contour>
  </outline>
</glyph>
<glyph name="uni031B" format="1">
  <advance width="612"/>
  <unicode hex="031B"/>
  <outline>
    <contour>
      <point x="232" y="608" type="curve" smooth="yes"/>
      <point x="232" y="552"/>
      <point x="280" y="526"/>
      <point x="324" y="526" type="curve"/>
      <point x="320" y="505" type="line" smooth="yes"/>
      <point x="317" y="487"/>
      <point x="304" y="480"/>
      <point x="285" y="480" type="curve" smooth="yes"/>
      <point x="180" y="480" type="line"/>
      <point x="180" y="402" type="line"/>
      <point x="288" y="402" type="line" smooth="yes"/>
      <point x="341" y="402"/>
      <point x="381" y="423"/>
      <point x="391" y="472" type="curve" smooth="yes"/>
      <point x="415" y="588" type="line" smooth="yes"/>
      <point x="416" y="594"/>
      <point x="417" y="601"/>
      <point x="417" y="607" type="curve" smooth="yes"/>
      <point x="417" y="659"/>
      <point x="374" y="700"/>
      <point x="325" y="700" type="curve" smooth="yes"/>
      <point x="274" y="700"/>
      <point x="232" y="661"/>
    </contour>
  </outline>
</glyph>
<glyph name="pi" format="1">
  <advance width="612"/>
  <unicode hex="03C0"/>
  <outline>
    <contour>
      <point x="201" y="0" type="line"/>
      <point x="281" y="376" type="line"/>
      <point x="387" y="376" type="line"/>
      <point x="330" y="110" type="line" smooth="yes"/>
      <point x="328" y="100"/>
      <point x="327" y="89"/>
      <point x="327" y="80" type="curve" smooth="yes"/>
      <point x="327" y="29"/>
      <point x="360" y="0"/>
      <point x="410" y="0" type="curve" smooth="yes"/>
      <point x="523" y="0" type="line"/>
      <point x="523" y="120" type="line"/>
      <point x="485" y="120" type="line" smooth="yes"/>
      <point x="470" y="120"/>
      <point x="464" y="127"/>
      <point x="464" y="139" type="curve" smooth="yes"/>
      <point x="464" y="142"/>
      <point x="464" y="143"/>
      <point x="465" y="150" type="curve" smooth="yes"/>
      <point x="513" y="376" type="line"/>
      <point x="603" y="376" type="line"/>
      <point x="603" y="496" type="line"/>
      <point x="89" y="496" type="line"/>
      <point x="89" y="376" type="line"/>
      <point x="155" y="376" type="line"/>
      <point x="75" y="0" type="line"/>
    </contour>
  </outline>
</glyph>
<glyph name="uni1E9E" format="1">
  <advance width="612"/>
  <unicode hex="1E9E"/>
  <outline>
    <contour>
      <point x="361" y="700" type="line" smooth="yes"/>
      <point x="238" y="700"/>
      <point x="143" y="632"/>
      <point x="115" y="500" type="curve" smooth="yes"/>
      <point x="115" y="496" type="line"/>
      <point x="41" y="496" type="line"/>
      <point x="41" y="376" type="line"/>
      <point x="89" y="376" type="line"/>
      <point x="9" y="0" type="line"/>
      <point x="141" y="0" type="line"/>
      <point x="245" y="490" type="line" smooth="yes"/>
      <point x="259" y="554"/>
      <point x="301" y="574"/>
      <point x="357" y="574" type="curve" smooth="yes"/>
      <point x="472" y="574" type="line"/>
      <point x="472" y="556" type="line"/>
      <point x="280" y="502" type="line"/>
      <point x="280" y="288" type="line"/>
      <point x="342" y="288" type="line" smooth="yes"/>
      <point x="391" y="288"/>
      <point x="417" y="265"/>
      <point x="417" y="216" type="curve" smooth="yes"/>
      <point x="417" y="152"/>
      <point x="362" y="126"/>
      <point x="308" y="126" type="curve" smooth="yes"/>
      <point x="210" y="126" type="line"/>
      <point x="210" y="0" type="line"/>
      <point x="294" y="0" type="line" smooth="yes"/>
      <point x="464" y="0"/>
      <point x="553" y="102"/>
      <point x="553" y="229" type="curve" smooth="yes"/>
      <point x="553" y="330"/>
      <point x="484" y="400"/>
      <point x="396" y="400" type="curve" smooth="yes"/>
      <point x="380" y="400" type="line"/>
      <point x="380" y="418" type="line"/>
      <point x="573" y="472" type="line"/>
      <point x="573" y="700" type="line"/>
    </contour>
  </outline>
</glyph>
<glyph name="quotedblleft" format="1">
  <advance width="612"/>
  <unicode hex="201C"/>
  <outline>
    <contour>
      <point x="548" y="502" type="curve" smooth="yes"/>
      <point x="548" y="564"/>
      <point x="502" y="592"/>
      <point x="456" y="592" type="curve"/>
      <point x="459" y="608" type="line" smooth="yes"/>
      <point x="463" y="628"/>
      <point x="474" y="636"/>
      <point x="496" y="636" type="curve" smooth="yes"/>
      <point x="566" y="636" type="line"/>
      <point x="566" y="714" type="line"/>
      <point x="490" y="714" type="line" smooth="yes"/>
      <point x="436" y="714"/>
      <point x="396" y="691"/>
      <point x="385" y="641" type="curve" smooth="yes"/>
      <point x="360" y="523" type="line" smooth="yes"/>
      <point x="359" y="516"/>
      <point x="358" y="509"/>
      <point x="358" y="503" type="curve" smooth="yes"/>
      <point x="358" y="450"/>
      <point x="401" y="408"/>
      <point x="453" y="408" type="curve" smooth="yes"/>
      <point x="505" y="408"/>
      <point x="548" y="448"/>
    </contour>
    <contour>
      <point x="322" y="502" type="curve" smooth="yes"/>
      <point x="322" y="564"/>
      <point x="276" y="592"/>
      <point x="230" y="592" type="curve"/>
      <point x="233" y="608" type="line" smooth="yes"/>
      <point x="237" y="628"/>
      <point x="248" y="636"/>
      <point x="270" y="636" type="curve" smooth="yes"/>
      <point x="340" y="636" type="line"/>
      <point x="340" y="714" type="line"/>
      <point x="264" y="714" type="line" smooth="yes"/>
      <point x="210" y="714"/>
      <point x="170" y="691"/>
      <point x="159" y="641" type="curve" smooth="yes"/>
      <point x="134" y="523" type="line" smooth="yes"/>
      <point x="133" y="516"/>
      <point x="132" y="509"/>
      <point x="132" y="503" type="curve" smooth="yes"/>
      <point x="132" y="450"/>
      <point x="175" y="408"/>
      <point x="227" y="408" type="curve" smooth="yes"/>
      <point x="279" y="408"/>
      <point x="322" y="448"/>
    </contour>
  </outline>
</glyph>
<glyph name="quotedblright" format="1">
  <advance width="612"/>
  <unicode hex="201D"/>
  <outline>
    <contour>
      <point x="148" y="620" type="curve" smooth="yes"/>
      <point x="148" y="558"/>
      <point x="194" y="530"/>
      <point x="240" y="530" type="curve"/>
      <point x="237" y="514" type="line" smooth="yes"/>
      <point x="233" y="494"/>
      <point x="222" y="486"/>
      <point x="200" y="486" type="curve" smooth="yes"/>
      <point x="130" y="486" type="line"/>
      <point x="130" y="408" type="line"/>
      <point x="206" y="408" type="line" smooth="yes"/>
      <point x="260" y="408"/>
      <point x="300" y="431"/>
      <point x="311" y="481" type="curve" smooth="yes"/>
      <point x="336" y="599" type="line" smooth="yes"/>
      <point x="337" y="606"/>
      <point x="338" y="613"/>
      <point x="338" y="619" type="curve" smooth="yes"/>
      <point x="338" y="672"/>
      <point x="295" y="714"/>
      <point x="243" y="714" type="curve" smooth="yes"/>
      <point x="191" y="714"/>
      <point x="148" y="674"/>
    </contour>
    <contour>
      <point x="374" y="620" type="curve" smooth="yes"/>
      <point x="374" y="558"/>
      <point x="420" y="530"/>
      <point x="466" y="530" type="curve"/>
      <point x="463" y="514" type="line" smooth="yes"/>
      <point x="459" y="494"/>
      <point x="448" y="486"/>
      <point x="426" y="486" type="curve" smooth="yes"/>
      <point x="356" y="486" type="line"/>
      <point x="356" y="408" type="line"/>
      <point x="432" y="408" type="line" smooth="yes"/>
      <point x="486" y="408"/>
      <point x="526" y="431"/>
      <point x="537" y="481" type="curve" smooth="yes"/>
      <point x="562" y="599" type="line" smooth="yes"/>
      <point x="563" y="606"/>
      <point x="564" y="613"/>
      <point x="564" y="619" type="curve" smooth="yes"/>
      <point x="564" y="672"/>
      <point x="521" y="714"/>
      <point x="469" y="714" type="curve" smooth="yes"/>
      <point x="417" y="714"/>
      <point x="374" y="674"/>
    </contour>
  </outline>
</glyph>
<glyph name="bullet" format="1">
  <advance width="612"/>
  <unicode hex="2022"/>
  <outline>
    <contour>
      <point x="162" y="350" type="curve"/>
      <point x="162" y="271"/>
      <point x="227" y="206"/>
      <point x="306" y="206" type="curve" smooth="yes"/>
      <point x="385" y="206"/>
      <point x="450" y="271"/>
      <point x="450" y="350" type="curve" smooth="yes"/>
      <point x="450" y="429"/>
      <point x="385" y="494"/>
      <point x="306" y="494" type="curve" smooth="yes"/>
      <point x="227" y="494"/>
      <point x="162" y="429"/>
    </contour>
  </outline>
</glyph>
<glyph name="guilsinglright" format="1">
  <advance width="612"/>
  <unicode hex="203A"/>
  <outline>
    <contour>
      <point x="228" y="496" type="line"/>
      <point x="228" y="350" type="line"/>
      <point x="338" y="262" type="line"/>
      <point x="338" y="244" type="line"/>
      <point x="123" y="124" type="line"/>
      <point x="123" y="0" type="line"/>
      <point x="129" y="0" type="line"/>
      <point x="428" y="166" type="line"/>
      <point x="428" y="334" type="line"/>
      <point x="234" y="496" type="line"/>
    </contour>
  </outline>
</glyph>
<glyph name="uni2070" format="1">
  <advance width="612"/>
  <unicode hex="2070"/>
  <outline>
    <contour>
      <point x="421" y="583" type="line" smooth="yes"/>
      <point x="423" y="592"/>
      <point x="425" y="604"/>
      <point x="425" y="614" type="curve" smooth="yes"/>
      <point x="425" y="672"/>
      <point x="383" y="706"/>
      <point x="326" y="706" type="curve" smooth="yes"/>
      <point x="256" y="706"/>
      <point x="217" y="662"/>
      <point x="204" y="601" type="curve" smooth="yes"/>
      <point x="188" y="529" type="line" smooth="yes"/>
      <point x="186" y="521"/>
      <point x="184" y="508"/>
      <point x="184" y="498" type="curve" smooth="yes"/>
      <point x="184" y="440"/>
      <point x="226" y="406"/>
      <point x="283" y="406" type="curve" smooth="yes"/>
      <point x="353" y="406"/>
      <point x="391" y="448"/>
      <point x="405" y="511" type="curve" smooth="yes"/>
    </contour>
    <contour>
      <point x="319" y="634" type="curve" smooth="yes"/>
      <point x="337" y="634"/>
      <point x="346" y="623"/>
      <point x="346" y="607" type="curve" smooth="yes"/>
      <point x="346" y="603"/>
      <point x="346" y="602"/>
      <point x="345" y="596" type="curve" smooth="yes"/>
      <point x="328" y="516" type="line" smooth="yes"/>
      <point x="323" y="493"/>
      <point x="311" y="478"/>
      <point x="290" y="478" type="curve" smooth="yes"/>
      <point x="270" y="478"/>
      <point x="263" y="490"/>
      <point x="263" y="505" type="curve" smooth="yes"/>
      <point x="263" y="508"/>
      <point x="263" y="510"/>
      <point x="264" y="516" type="curve" smooth="yes"/>
      <point x="281" y="596" type="line" smooth="yes"/>
      <point x="286" y="619"/>
      <point x="298" y="634"/>
    </contour>
  </outline>
</glyph>
<glyph name="uni2071" format="1">
  <advance width="612"/>
  <unicode hex="2071"/>
  <outline>
    <contour>
      <point x="216" y="412" type="line"/>
      <point x="468" y="412" type="line"/>
      <point x="468" y="484" type="line"/>
      <point x="390" y="484" type="line"/>
      <point x="433" y="688" type="line"/>
      <point x="433" y="700" type="line"/>
      <point x="261" y="700" type="line"/>
      <point x="261" y="628" type="line"/>
      <point x="343" y="628" type="line"/>
      <point x="312" y="484" type="line"/>
      <point x="216" y="484" type="line"/>
    </contour>
    <contour>
      <point x="350" y="790" type="curve" smooth="yes"/>
      <point x="350" y="756"/>
      <point x="376" y="730"/>
      <point x="410" y="730" type="curve" smooth="yes"/>
      <point x="444" y="730"/>
      <point x="470" y="756"/>
      <point x="470" y="790" type="curve" smooth="yes"/>
      <point x="470" y="824"/>
      <point x="444" y="850"/>
      <point x="410" y="850" type="curve" smooth="yes"/>
      <point x="376" y="850"/>
      <point x="350" y="824"/>
    </contour>
  </outline>
</glyph>
<glyph name="uni2074" format="1">
  <advance width="612"/>
  <unicode hex="2074"/>
  <outline>
    <contour>
      <point x="292" y="700" type="line"/>
      <point x="432" y="700" type="line"/>
      <point x="396" y="530" type="line"/>
      <point x="430" y="530" type="line"/>
      <point x="430" y="460" type="line"/>
      <point x="381" y="460" type="line"/>
      <point x="371" y="412" type="line"/>
      <point x="293" y="412" type="line"/>
      <point x="303" y="460" type="line"/>
      <point x="183" y="460" type="line"/>
      <point x="183" y="547" type="line"/>
    </contour>
    <contour>
      <point x="258" y="539" type="line"/>
      <point x="258" y="530" type="line"/>
      <point x="318" y="530" type="line"/>
      <point x="343" y="648" type="line"/>
      <point x="334" y="648" type="line"/>
    </contour>
  </outline>
</glyph>
<glyph name="uni2075" format="1">
  <advance width="612"/>
  <unicode hex="2075"/>
  <outline>
    <contour>
      <point x="270" y="500" type="line"/>
      <point x="270" y="485"/>
      <point x="279" y="475"/>
      <point x="299" y="475" type="curve" smooth="yes"/>
      <point x="323" y="475"/>
      <point x="335" y="492"/>
      <point x="335" y="512" type="curve" smooth="yes"/>
      <point x="335" y="528"/>
      <point x="327" y="537"/>
      <point x="312" y="537" type="curve" smooth="yes"/>
      <point x="302" y="537"/>
      <point x="294" y="532"/>
      <point x="290" y="526" type="curve"/>
      <point x="198" y="526" type="line"/>
      <point x="235" y="700" type="line"/>
      <point x="426" y="700" type="line"/>
      <point x="426" y="630" type="line"/>
      <point x="298" y="630" type="line"/>
      <point x="288" y="584" type="line"/>
      <point x="297" y="584" type="line"/>
      <point x="308" y="600"/>
      <point x="324" y="608"/>
      <point x="348" y="608" type="curve" smooth="yes"/>
      <point x="388" y="608"/>
      <point x="417" y="580"/>
      <point x="417" y="532" type="curve" smooth="yes"/>
      <point x="417" y="458"/>
      <point x="376" y="406"/>
      <point x="292" y="406" type="curve" smooth="yes"/>
      <point x="225" y="406"/>
      <point x="191" y="445"/>
      <point x="191" y="489" type="curve" smooth="yes"/>
      <point x="191" y="491"/>
      <point x="191" y="494"/>
      <point x="192" y="500" type="curve"/>
    </contour>
  </outline>
</glyph>
<glyph name="uni2077" format="1">
  <advance width="612"/>
  <unicode hex="2077"/>
  <outline>
    <contour>
      <point x="241" y="628" type="line"/>
      <point x="363" y="628" type="line"/>
      <point x="363" y="620" type="line"/>
      <point x="244" y="487" type="line" smooth="yes"/>
      <point x="222" y="462"/>
      <point x="213" y="448"/>
      <point x="209" y="427" type="curve" smooth="yes"/>
      <point x="206" y="412" type="line"/>
      <point x="290" y="412" type="line"/>
      <point x="291" y="419" type="line" smooth="yes"/>
      <point x="294" y="438"/>
      <point x="305" y="450"/>
      <point x="317" y="463" type="curve" smooth="yes"/>
      <point x="437" y="602" type="line"/>
      <point x="437" y="700" type="line"/>
      <point x="241" y="700" type="line"/>
    </contour>
  </outline>
</glyph>
<glyph name="uni2078" format="1">
  <advance width="612"/>
  <unicode hex="2078"/>
  <outline>
    <contour>
      <point x="281" y="406" type="curve" smooth="yes"/>
      <point x="353" y="406"/>
      <point x="399" y="446"/>
      <point x="399" y="500" type="curve" smooth="yes"/>
      <point x="399" y="532"/>
      <point x="381" y="549"/>
      <point x="364" y="557" type="curve"/>
      <point x="364" y="565" type="line"/>
      <point x="397" y="570"/>
      <point x="422" y="595"/>
      <point x="422" y="632" type="curve" smooth="yes"/>
      <point x="422" y="676"/>
      <point x="384" y="706"/>
      <point x="325" y="706" type="curve" smooth="yes"/>
      <point x="258" y="706"/>
      <point x="217" y="666"/>
      <point x="217" y="616" type="curve" smooth="yes"/>
      <point x="217" y="588"/>
      <point x="233" y="574"/>
      <point x="247" y="565" type="curve"/>
      <point x="247" y="557" type="line"/>
      <point x="205" y="546"/>
      <point x="183" y="518"/>
      <point x="183" y="482" type="curve" smooth="yes"/>
      <point x="183" y="430"/>
      <point x="230" y="406"/>
    </contour>
    <contour>
      <point x="291" y="478" type="curve"/>
      <point x="276" y="478"/>
      <point x="264" y="485"/>
      <point x="264" y="499" type="curve" smooth="yes"/>
      <point x="264" y="516"/>
      <point x="279" y="526"/>
      <point x="296" y="526" type="curve" smooth="yes"/>
      <point x="311" y="526"/>
      <point x="322" y="519"/>
      <point x="322" y="504" type="curve" smooth="yes"/>
      <point x="322" y="488"/>
      <point x="307" y="478"/>
    </contour>
    <contour>
      <point x="320" y="636" type="curve" smooth="yes"/>
      <point x="332" y="636"/>
      <point x="340" y="629"/>
      <point x="340" y="618" type="curve" smooth="yes"/>
      <point x="340" y="605"/>
      <point x="329" y="596"/>
      <point x="316" y="596" type="curve" smooth="yes"/>
      <point x="304" y="596"/>
      <point x="295" y="602"/>
      <point x="295" y="613" type="curve" smooth="yes"/>
      <point x="295" y="628"/>
      <point x="307" y="636"/>
    </contour>
  </outline>
</glyph>
<glyph name="uni2079" format="1">
  <advance width="612"/>
  <unicode hex="2079"/>
  <outline>
    <contour>
      <point x="190" y="498" type="line"/>
      <point x="189" y="488"/>
      <point x="189" y="487"/>
      <point x="189" y="484" type="curve" smooth="yes"/>
      <point x="189" y="441"/>
      <point x="220" y="406"/>
      <point x="275" y="406" type="curve" smooth="yes"/>
      <point x="338" y="406"/>
      <point x="382" y="442"/>
      <point x="396" y="508" type="curve" smooth="yes"/>
      <point x="413" y="588" type="line" smooth="yes"/>
      <point x="415" y="598"/>
      <point x="416" y="608"/>
      <point x="416" y="617" type="curve" smooth="yes"/>
      <point x="416" y="672"/>
      <point x="380" y="706"/>
      <point x="324" y="706" type="curve" smooth="yes"/>
      <point x="252" y="706"/>
      <point x="202" y="663"/>
      <point x="202" y="591" type="curve" smooth="yes"/>
      <point x="202" y="548"/>
      <point x="227" y="518"/>
      <point x="268" y="518" type="curve" smooth="yes"/>
      <point x="286" y="518"/>
      <point x="306" y="526"/>
      <point x="317" y="542" type="curve"/>
      <point x="326" y="542" type="line"/>
      <point x="317" y="502" type="line" smooth="yes"/>
      <point x="313" y="486"/>
      <point x="304" y="476"/>
      <point x="286" y="476" type="curve" smooth="yes"/>
      <point x="271" y="476"/>
      <point x="264" y="484"/>
      <point x="264" y="498" type="curve"/>
    </contour>
    <contour>
      <point x="308" y="590" type="curve" smooth="yes"/>
      <point x="294" y="590"/>
      <point x="284" y="597"/>
      <point x="284" y="609" type="curve" smooth="yes"/>
      <point x="284" y="627"/>
      <point x="300" y="634"/>
      <point x="315" y="634" type="curve" smooth="yes"/>
      <point x="330" y="634"/>
      <point x="341" y="628"/>
      <point x="341" y="615" type="curve" smooth="yes"/>
      <point x="341" y="600"/>
      <point x="328" y="590"/>
    </contour>
  </outline>
</glyph>
<glyph name="uni207D" format="1">
  <advance width="612"/>
  <unicode hex="207D"/>
  <outline>
    <contour>
      <point x="384" y="375" type="line" smooth="yes"/>
      <point x="327" y="375"/>
      <point x="295" y="409"/>
      <point x="295" y="459" type="curve" smooth="yes"/>
      <point x="295" y="468"/>
      <point x="296" y="478"/>
      <point x="298" y="488" type="curve" smooth="yes"/>
      <point x="327" y="624" type="line" smooth="yes"/>
      <point x="342" y="694"/>
      <point x="390" y="737"/>
      <point x="461" y="737" type="curve" smooth="yes"/>
      <point x="508" y="737" type="line"/>
      <point x="508" y="809" type="line"/>
      <point x="472" y="809" type="line" smooth="yes"/>
      <point x="362" y="809"/>
      <point x="283" y="752"/>
      <point x="256" y="626" type="curve" smooth="yes"/>
      <point x="229" y="502" type="line" smooth="yes"/>
      <point x="225" y="482"/>
      <point x="222" y="463"/>
      <point x="222" y="446" type="curve" smooth="yes"/>
      <point x="222" y="351"/>
      <point x="286" y="303"/>
      <point x="368" y="303" type="curve" smooth="yes"/>
      <point x="416" y="303" type="line"/>
      <point x="416" y="375" type="line"/>
    </contour>
  </outline>
</glyph>
<glyph name="uni2080" format="1">
  <advance width="612"/>
  <unicode hex="2080"/>
  <outline>
    <contour>
      <point x="363" y="-29" type="line" smooth="yes"/>
      <point x="365" y="-20"/>
      <point x="367" y="-8"/>
      <point x="367" y="2" type="curve" smooth="yes"/>
      <point x="367" y="60"/>
      <point x="325" y="94"/>
      <point x="268" y="94" type="curve" smooth="yes"/>
      <point x="198" y="94"/>
      <point x="159" y="50"/>
      <point x="146" y="-11" type="curve" smooth="yes"/>
      <point x="130" y="-83" type="line" smooth="yes"/>
      <point x="128" y="-91"/>
      <point x="126" y="-104"/>
      <point x="126" y="-114" type="curve" smooth="yes"/>
      <point x="126" y="-172"/>
      <point x="168" y="-206"/>
      <point x="225" y="-206" type="curve" smooth="yes"/>
      <point x="295" y="-206"/>
      <point x="333" y="-164"/>
      <point x="347" y="-101" type="curve" smooth="yes"/>
    </contour>
    <contour>
      <point x="261" y="22" type="curve" smooth="yes"/>
      <point x="279" y="22"/>
      <point x="288" y="11"/>
      <point x="288" y="-5" type="curve" smooth="yes"/>
      <point x="288" y="-9"/>
      <point x="288" y="-10"/>
      <point x="287" y="-16" type="curve" smooth="yes"/>
      <point x="270" y="-96" type="line" smooth="yes"/>
      <point x="265" y="-119"/>
      <point x="253" y="-134"/>
      <point x="232" y="-134" type="curve" smooth="yes"/>
      <point x="212" y="-134"/>
      <point x="205" y="-122"/>
      <point x="205" y="-107" type="curve" smooth="yes"/>
      <point x="205" y="-104"/>
      <point x="205" y="-102"/>
      <point x="206" y="-96" type="curve" smooth="yes"/>
      <point x="223" y="-16" type="line" smooth="yes"/>
      <point x="228" y="7"/>
      <point x="240" y="22"/>
    </contour>
  </outline>
</glyph>
<glyph name="uni2082" format="1">
  <advance width="612"/>
  <unicode hex="2082"/>
  <outline>
    <contour>
      <point x="208" y="-128" type="line"/>
      <point x="211" y="-112"/>
      <point x="227" y="-106"/>
      <point x="282" y="-92" type="curve" smooth="yes"/>
      <point x="345" y="-76"/>
      <point x="376" y="-44"/>
      <point x="376" y="6" type="curve" smooth="yes"/>
      <point x="376" y="61"/>
      <point x="335" y="94"/>
      <point x="276" y="94" type="curve" smooth="yes"/>
      <point x="207" y="94"/>
      <point x="166" y="57"/>
      <point x="155" y="-8" type="curve" smooth="yes"/>
      <point x="154" y="-14" type="line"/>
      <point x="232" y="-14" type="line"/>
      <point x="234" y="10"/>
      <point x="248" y="22"/>
      <point x="268" y="22" type="curve" smooth="yes"/>
      <point x="283" y="22"/>
      <point x="295" y="13"/>
      <point x="295" y="-1" type="curve" smooth="yes"/>
      <point x="295" y="-22"/>
      <point x="277" y="-29"/>
      <point x="237" y="-38" type="curve" smooth="yes"/>
      <point x="176" y="-52"/>
      <point x="141" y="-74"/>
      <point x="128" y="-134" type="curve" smooth="yes"/>
      <point x="114" y="-200" type="line"/>
      <point x="335" y="-200" type="line"/>
      <point x="335" y="-128" type="line"/>
    </contour>
  </outline>
</glyph>
<glyph name="uni2083" format="1">
  <advance width="612"/>
  <unicode hex="2083"/>
  <outline>
    <contour>
      <point x="209" y="-100" type="line"/>
      <point x="205" y="-122"/>
      <point x="219" y="-134"/>
      <point x="239" y="-134" type="curve" smooth="yes"/>
      <point x="263" y="-134"/>
      <point x="273" y="-119"/>
      <point x="273" y="-102" type="curve" smooth="yes"/>
      <point x="273" y="-87"/>
      <point x="262" y="-76"/>
      <point x="243" y="-76" type="curve" smooth="yes"/>
      <point x="232" y="-76" type="line"/>
      <point x="232" y="-4" type="line"/>
      <point x="283" y="9" type="line"/>
      <point x="283" y="18" type="line"/>
      <point x="175" y="18" type="line"/>
      <point x="175" y="88" type="line"/>
      <point x="355" y="88" type="line"/>
      <point x="355" y="-14" type="line"/>
      <point x="303" y="-27" type="line"/>
      <point x="303" y="-36" type="line"/>
      <point x="331" y="-42"/>
      <point x="350" y="-66"/>
      <point x="350" y="-100" type="curve" smooth="yes"/>
      <point x="350" y="-162"/>
      <point x="306" y="-206"/>
      <point x="234" y="-206" type="curve" smooth="yes"/>
      <point x="169" y="-206"/>
      <point x="132" y="-170"/>
      <point x="132" y="-120" type="curve" smooth="yes"/>
      <point x="132" y="-114"/>
      <point x="133" y="-105"/>
      <point x="134" y="-100" type="curve"/>
    </contour>
  </outline>
</glyph>
<glyph name="uni2085" format="1">
  <advance width="612"/>
  <unicode hex="2085"/>
  <outline>
    <contour>
      <point x="211" y="-112" type="line"/>
      <point x="211" y="-127"/>
      <point x="220" y="-137"/>
      <point x="240" y="-137" type="curve" smooth="yes"/>
      <point x="264" y="-137"/>
      <point x="276" y="-120"/>
      <point x="276" y="-100" type="curve" smooth="yes"/>
      <point x="276" y="-84"/>
      <point x="268" y="-75"/>
      <point x="253" y="-75" type="curve" smooth="yes"/>
      <point x="243" y="-75"/>
      <point x="235" y="-80"/>
      <point x="231" y="-86" type="curve"/>
      <point x="139" y="-86" type="line"/>
      <point x="176" y="88" type="line"/>
      <point x="367" y="88" type="line"/>
      <point x="367" y="18" type="line"/>
      <point x="239" y="18" type="line"/>
      <point x="229" y="-28" type="line"/>
      <point x="238" y="-28" type="line"/>
      <point x="249" y="-12"/>
      <point x="265" y="-4"/>
      <point x="289" y="-4" type="curve" smooth="yes"/>
      <point x="329" y="-4"/>
      <point x="358" y="-32"/>
      <point x="358" y="-80" type="curve" smooth="yes"/>
      <point x="358" y="-154"/>
      <point x="317" y="-206"/>
      <point x="233" y="-206" type="curve" smooth="yes"/>
      <point x="166" y="-206"/>
      <point x="132" y="-167"/>
      <point x="132" y="-123" type="curve" smooth="yes"/>
      <point x="132" y="-121"/>
      <point x="132" y="-118"/>
      <point x="133" y="-112" type="curve"/>
    </contour>
  </outline>
</glyph>
<glyph name="uni2086" format="1">
  <advance width="612"/>
  <unicode hex="2086"/>
  <outline>
    <contour>
      <point x="365" y="2" type="line"/>
      <point x="366" y="12"/>
      <point x="366" y="13"/>
      <point x="366" y="16" type="curve" smooth="yes"/>
      <point x="366" y="59"/>
      <point x="335" y="94"/>
      <point x="280" y="94" type="curve" smooth="yes"/>
      <point x="217" y="94"/>
      <point x="173" y="58"/>
      <point x="159" y="-8" type="curve" smooth="yes"/>
      <point x="142" y="-88" type="line" smooth="yes"/>
      <point x="140" y="-98"/>
      <point x="139" y="-108"/>
      <point x="139" y="-117" type="curve" smooth="yes"/>
      <point x="139" y="-172"/>
      <point x="175" y="-206"/>
      <point x="231" y="-206" type="curve" smooth="yes"/>
      <point x="303" y="-206"/>
      <point x="353" y="-163"/>
      <point x="353" y="-91" type="curve" smooth="yes"/>
      <point x="353" y="-48"/>
      <point x="328" y="-18"/>
      <point x="287" y="-18" type="curve" smooth="yes"/>
      <point x="269" y="-18"/>
      <point x="249" y="-26"/>
      <point x="238" y="-42" type="curve"/>
      <point x="229" y="-42" type="line"/>
      <point x="238" y="-2" type="line" smooth="yes"/>
      <point x="242" y="14"/>
      <point x="251" y="24"/>
      <point x="269" y="24" type="curve" smooth="yes"/>
      <point x="284" y="24"/>
      <point x="291" y="16"/>
      <point x="291" y="2" type="curve"/>
    </contour>
    <contour>
      <point x="247" y="-90" type="curve" smooth="yes"/>
      <point x="261" y="-90"/>
      <point x="271" y="-97"/>
      <point x="271" y="-109" type="curve" smooth="yes"/>
      <point x="271" y="-127"/>
      <point x="255" y="-134"/>
      <point x="240" y="-134" type="curve" smooth="yes"/>
      <point x="225" y="-134"/>
      <point x="214" y="-128"/>
      <point x="214" y="-115" type="curve" smooth="yes"/>
      <point x="214" y="-100"/>
      <point x="227" y="-90"/>
    </contour>
  </outline>
</glyph>
<glyph name="uni2087" format="1">
  <advance width="612"/>
  <unicode hex="2087"/>
  <outline>
    <contour>
      <point x="173" y="16" type="line"/>
      <point x="295" y="16" type="line"/>
      <point x="295" y="8" type="line"/>
      <point x="176" y="-125" type="line" smooth="yes"/>
      <point x="154" y="-150"/>
      <point x="145" y="-164"/>
      <point x="141" y="-185" type="curve" smooth="yes"/>
      <point x="138" y="-200" type="line"/>
      <point x="222" y="-200" type="line"/>
      <point x="223" y="-193" type="line" smooth="yes"/>
      <point x="226" y="-174"/>
      <point x="237" y="-162"/>
      <point x="249" y="-149" type="curve" smooth="yes"/>
      <point x="369" y="-10" type="line"/>
      <point x="369" y="88" type="line"/>
      <point x="173" y="88" type="line"/>
    </contour>
  </outline>
</glyph>
<glyph name="uni2089" format="1">
  <advance width="612"/>
  <unicode hex="2089"/>
  <outline>
    <contour>
      <point x="137" y="-114" type="line"/>
      <point x="136" y="-124"/>
      <point x="136" y="-125"/>
      <point x="136" y="-128" type="curve" smooth="yes"/>
      <point x="136" y="-171"/>
      <point x="167" y="-206"/>
      <point x="222" y="-206" type="curve" smooth="yes"/>
      <point x="285" y="-206"/>
      <point x="329" y="-170"/>
      <point x="343" y="-104" type="curve" smooth="yes"/>
      <point x="360" y="-24" type="line" smooth="yes"/>
      <point x="362" y="-14"/>
      <point x="363" y="-4"/>
      <point x="363" y="5" type="curve" smooth="yes"/>
      <point x="363" y="60"/>
      <point x="327" y="94"/>
      <point x="271" y="94" type="curve" smooth="yes"/>
      <point x="199" y="94"/>
      <point x="149" y="51"/>
      <point x="149" y="-21" type="curve" smooth="yes"/>
      <point x="149" y="-64"/>
      <point x="174" y="-94"/>
      <point x="215" y="-94" type="curve" smooth="yes"/>
      <point x="233" y="-94"/>
      <point x="253" y="-86"/>
      <point x="264" y="-70" type="curve"/>
      <point x="273" y="-70" type="line"/>
      <point x="264" y="-110" type="line" smooth="yes"/>
      <point x="260" y="-126"/>
      <point x="251" y="-136"/>
      <point x="233" y="-136" type="curve" smooth="yes"/>
      <point x="218" y="-136"/>
      <point x="211" y="-128"/>
      <point x="211" y="-114" type="curve"/>
    </contour>
    <contour>
      <point x="255" y="-22" type="curve" smooth="yes"/>
      <point x="241" y="-22"/>
      <point x="231" y="-15"/>
      <point x="231" y="-3" type="curve" smooth="yes"/>
      <point x="231" y="15"/>
      <point x="247" y="22"/>
      <point x="262" y="22" type="curve" smooth="yes"/>
      <point x="277" y="22"/>
      <point x="288" y="16"/>
      <point x="288" y="3" type="curve" smooth="yes"/>
      <point x="288" y="-12"/>
      <point x="275" y="-22"/>
    </contour>
  </outline>
</glyph>
<glyph name="uni208D" format="1">
  <advance width="612"/>
  <unicode hex="208D"/>
  <outline>
    <contour>
      <point x="276" y="-237" type="line" smooth="yes"/>
      <point x="219" y="-237"/>
      <point x="187" y="-203"/>
      <point x="187" y="-153" type="curve" smooth="yes"/>
      <point x="187" y="-144"/>
      <point x="188" y="-134"/>
      <point x="190" y="-124" type="curve" smooth="yes"/>
      <point x="219" y="12" type="line" smooth="yes"/>
      <point x="234" y="82"/>
      <point x="282" y="125"/>
      <point x="353" y="125" type="curve" smooth="yes"/>
      <point x="400" y="125" type="line"/>
      <point x="400" y="197" type="line"/>
      <point x="364" y="197" type="line" smooth="yes"/>
      <point x="254" y="197"/>
      <point x="175" y="140"/>
      <point x="148" y="14" type="curve" smooth="yes"/>
      <point x="121" y="-110" type="line" smooth="yes"/>
      <point x="117" y="-130"/>
      <point x="114" y="-149"/>
      <point x="114" y="-166" type="curve" smooth="yes"/>
      <point x="114" y="-261"/>
      <point x="178" y="-309"/>
      <point x="260" y="-309" type="curve" smooth="yes"/>
      <point x="308" y="-309" type="line"/>
      <point x="308" y="-237" type="line"/>
    </contour>
  </outline>
</glyph>
<glyph name="uni20A7" format="1">
  <advance width="612"/>
  <unicode hex="20A7"/>
  <outline>
    <contour>
      <point x="83" y="383" type="line"/>
      <point x="137" y="383" type="line"/>
      <point x="78" y="102" type="line"/>
      <point x="192" y="102" type="line"/>
      <point x="224" y="252" type="line"/>
      <point x="306" y="252" type="line" smooth="yes"/>
      <point x="400" y="252"/>
      <point x="465" y="306"/>
      <point x="491" y="383" type="curve"/>
      <point x="555" y="383" type="line"/>
      <point x="555" y="467" type="line"/>
      <point x="505" y="467" type="line"/>
      <point x="505" y="538"/>
      <point x="453" y="598"/>
      <point x="365" y="598" type="curve" smooth="yes"/>
      <point x="183" y="598" type="line"/>
      <point x="155" y="467" type="line"/>
      <point x="83" y="467" type="line"/>
    </contour>
    <contour>
      <point x="274" y="490" type="line"/>
      <point x="336" y="490" type="line" smooth="yes"/>
      <point x="358" y="490"/>
      <point x="373" y="481"/>
      <point x="380" y="467" type="curve"/>
      <point x="269" y="467" type="line"/>
    </contour>
    <contour>
      <point x="309" y="360" type="curve"/>
      <point x="247" y="360" type="line"/>
      <point x="252" y="383" type="line"/>
      <point x="362" y="383" type="line"/>
      <point x="348" y="369"/>
      <point x="329" y="360"/>
    </contour>
  </outline>
</glyph>
<glyph name="uni20AB" format="1">
  <advance width="612"/>
  <unicode hex="20AB"/>
  <outline>
    <contour>
      <point x="285" y="484" type="line"/>
      <point x="389" y="484" type="line"/>
      <point x="376" y="420" type="line"/>
      <point x="364" y="420" type="line"/>
      <point x="355" y="440"/>
      <point x="329" y="464"/>
      <point x="281" y="464" type="curve" smooth="yes"/>
      <point x="145" y="464"/>
      <point x="72" y="354"/>
      <point x="72" y="224" type="curve" smooth="yes"/>
      <point x="72" y="138"/>
      <point x="131" y="90"/>
      <point x="198" y="90" type="curve" smooth="yes"/>
      <point x="251" y="90"/>
      <point x="287" y="110"/>
      <point x="304" y="139" type="curve"/>
      <point x="316" y="139" type="line"/>
      <point x="308" y="102" type="line"/>
      <point x="422" y="102" type="line"/>
      <point x="503" y="484" type="line"/>
      <point x="551" y="484" type="line"/>
      <point x="551" y="574" type="line"/>
      <point x="522" y="574" type="line"/>
      <point x="529" y="606" type="line"/>
      <point x="415" y="606" type="line"/>
      <point x="408" y="574" type="line"/>
      <point x="285" y="574" type="line"/>
    </contour>
    <contour>
      <point x="116" y="-30" type="line"/>
      <point x="394" y="-30" type="line"/>
      <point x="394" y="66" type="line"/>
      <point x="116" y="66" type="line"/>
    </contour>
    <contour>
      <point x="255" y="198" type="curve" smooth="yes"/>
      <point x="221" y="198"/>
      <point x="191" y="220"/>
      <point x="191" y="260" type="curve" smooth="yes"/>
      <point x="191" y="318"/>
      <point x="231" y="356"/>
      <point x="285" y="356" type="curve" smooth="yes"/>
      <point x="321" y="356"/>
      <point x="347" y="335"/>
      <point x="347" y="298" type="curve" smooth="yes"/>
      <point x="347" y="240"/>
      <point x="309" y="198"/>
    </contour>
  </outline>
</glyph>
<glyph name="Euro" format="1">
  <advance width="612"/>
  <unicode hex="20AC"/>
  <outline>
    <contour>
      <point x="44" y="363" type="line"/>
      <point x="77" y="363" type="line"/>
      <point x="75" y="353"/>
      <point x="73" y="343"/>
      <point x="72" y="333" type="curve"/>
      <point x="17" y="333" type="line"/>
      <point x="17" y="237" type="line"/>
      <point x="79" y="237" type="line"/>
      <point x="105" y="136"/>
      <point x="196" y="88"/>
      <point x="307" y="88" type="curve" smooth="yes"/>
      <point x="429" y="88"/>
      <point x="526" y="156"/>
      <point x="564" y="278" type="curve"/>
      <point x="458" y="304" type="line"/>
      <point x="434" y="250"/>
      <point x="389" y="196"/>
      <point x="307" y="196" type="curve" smooth="yes"/>
      <point x="266" y="196"/>
      <point x="232" y="209"/>
      <point x="211" y="237" type="curve"/>
      <point x="325" y="237" type="line"/>
      <point x="325" y="333" type="line"/>
      <point x="188" y="333" type="line"/>
      <point x="189" y="343"/>
      <point x="190" y="353"/>
      <point x="193" y="363" type="curve"/>
      <point x="352" y="363" type="line"/>
      <point x="352" y="459" type="line"/>
      <point x="246" y="459" type="line"/>
      <point x="275" y="486"/>
      <point x="314" y="504"/>
      <point x="362" y="504" type="curve" smooth="yes"/>
      <point x="452" y="504"/>
      <point x="475" y="444"/>
      <point x="475" y="396" type="curve"/>
      <point x="593" y="422" type="line"/>
      <point x="593" y="533"/>
      <point x="521" y="612"/>
      <point x="373" y="612" type="curve" smooth="yes"/>
      <point x="252" y="612"/>
      <point x="160" y="548"/>
      <point x="111" y="459" type="curve"/>
      <point x="44" y="459" type="line"/>
    </contour>
  </outline>
</glyph>
<glyph name="uni20B2" format="1">
  <advance width="612"/>
  <unicode hex="20B2"/>
  <outline>
    <contour>
      <point x="416" y="672" type="line"/>
      <point x="332" y="672" type="line"/>
      <point x="319" y="610" type="line"/>
      <point x="214" y="599"/>
      <point x="156" y="529"/>
      <point x="130" y="408" type="curve"/>
      <point x="103" y="284" type="line" smooth="yes"/>
      <point x="99" y="264"/>
      <point x="97" y="247"/>
      <point x="97" y="230" type="curve" smooth="yes"/>
      <point x="97" y="142"/>
      <point x="152" y="94"/>
      <point x="208" y="88" type="curve"/>
      <point x="195" y="28" type="line"/>
      <point x="279" y="28" type="line"/>
      <point x="295" y="105" type="line"/>
      <point x="310" y="113"/>
      <point x="321" y="124"/>
      <point x="328" y="136" type="curve"/>
      <point x="340" y="136" type="line"/>
      <point x="332" y="98" type="line"/>
      <point x="434" y="98" type="line"/>
      <point x="489" y="358" type="line"/>
      <point x="349" y="358" type="line"/>
      <point x="377" y="492" type="line"/>
      <point x="388" y="484"/>
      <point x="394" y="471"/>
      <point x="394" y="454" type="curve" smooth="yes"/>
      <point x="394" y="446"/>
      <point x="393" y="441"/>
      <point x="390" y="428" type="curve" smooth="yes"/>
      <point x="388" y="420" type="line"/>
      <point x="502" y="420" type="line"/>
      <point x="505" y="432" type="line" smooth="yes"/>
      <point x="508" y="444"/>
      <point x="509" y="455"/>
      <point x="509" y="467" type="curve" smooth="yes"/>
      <point x="509" y="529"/>
      <point x="470" y="586"/>
      <point x="401" y="605" type="curve"/>
    </contour>
    <contour>
      <point x="217" y="284" type="curve" smooth="yes"/>
      <point x="244" y="410" type="line" smooth="yes"/>
      <point x="253" y="453"/>
      <point x="268" y="481"/>
      <point x="294" y="494" type="curve"/>
      <point x="233" y="208" type="line"/>
      <point x="221" y="217"/>
      <point x="214" y="233"/>
      <point x="214" y="255" type="curve" smooth="yes"/>
      <point x="214" y="264"/>
      <point x="215" y="274"/>
    </contour>
    <contour>
      <point x="361" y="262" type="line"/>
      <point x="352" y="228"/>
      <point x="337" y="211"/>
      <point x="316" y="202" type="curve"/>
      <point x="328" y="262" type="line"/>
    </contour>
  </outline>
</glyph>
<glyph name="uni20B9" format="1">
  <advance width="612"/>
  <unicode hex="20B9"/>
  <outline>
    <contour>
      <point x="132" y="401" type="line"/>
      <point x="327" y="401" type="line"/>
      <point x="313" y="382"/>
      <point x="289" y="372"/>
      <point x="263" y="372" type="curve" smooth="yes"/>
      <point x="106" y="372" type="line"/>
      <point x="106" y="270" type="line"/>
      <point x="262" y="270" type="line" smooth="yes"/>
      <point x="284" y="270"/>
      <point x="293" y="259"/>
      <point x="293" y="243" type="curve" smooth="yes"/>
      <point x="293" y="239"/>
      <point x="293" y="238"/>
      <point x="292" y="232" type="curve" smooth="yes"/>
      <point x="265" y="102" type="line"/>
      <point x="373" y="102" type="line"/>
      <point x="405" y="252" type="line" smooth="yes"/>
      <point x="406" y="258"/>
      <point x="407" y="263"/>
      <point x="407" y="268" type="curve" smooth="yes"/>
      <point x="407" y="292"/>
      <point x="394" y="313"/>
      <point x="365" y="316" type="curve"/>
      <point x="365" y="328" type="line"/>
      <point x="397" y="341"/>
      <point x="429" y="358"/>
      <point x="449" y="401" type="curve"/>
      <point x="516" y="401" type="line"/>
      <point x="516" y="485" type="line"/>
      <point x="459" y="485" type="line"/>
      <point x="459" y="494"/>
      <point x="455" y="503"/>
      <point x="450" y="508" type="curve"/>
      <point x="450" y="514" type="line"/>
      <point x="540" y="514" type="line"/>
      <point x="540" y="598" type="line"/>
      <point x="156" y="598" type="line"/>
      <point x="156" y="514" type="line"/>
      <point x="289" y="514" type="line" smooth="yes"/>
      <point x="317" y="514"/>
      <point x="336" y="503"/>
      <point x="342" y="485" type="curve"/>
      <point x="132" y="485" type="line"/>
    </contour>
  </outline>
</glyph>
<glyph name="uni212E" format="1">
  <advance width="612"/>
  <unicode hex="212E"/>
  <outline>
    <contour>
      <point x="553" y="309" type="line"/>
      <point x="553" y="376" type="line" smooth="yes"/>
      <point x="553" y="480"/>
      <point x="474" y="612"/>
      <point x="306" y="612" type="curve" smooth="yes"/>
      <point x="167" y="612"/>
      <point x="59" y="510"/>
      <point x="59" y="358" type="curve" smooth="yes"/>
      <point x="59" y="352" type="line" smooth="yes"/>
      <point x="59" y="186"/>
      <point x="163" y="88"/>
      <point x="311" y="88" type="curve" smooth="yes"/>
      <point x="443" y="88"/>
      <point x="502" y="154"/>
      <point x="525" y="204" type="curve"/>
      <point x="436" y="253" type="line"/>
      <point x="418" y="213"/>
      <point x="376" y="186"/>
      <point x="312" y="186" type="curve" smooth="yes"/>
      <point x="254" y="186"/>
      <point x="208" y="214"/>
      <point x="191" y="256" type="curve"/>
      <point x="191" y="309" type="line"/>
    </contour>
    <contour>
      <point x="305" y="516" type="curve" smooth="yes"/>
      <point x="362" y="516"/>
      <point x="404" y="490"/>
      <point x="421" y="454" type="curve"/>
      <point x="421" y="405" type="line"/>
      <point x="191" y="405" type="line"/>
      <point x="191" y="454" type="line"/>
      <point x="210" y="490"/>
      <point x="251" y="516"/>
    </contour>
  </outline>
</glyph>
<glyph name="arrowdown" format="1">
  <advance width="612"/>
  <unicode hex="2193"/>
  <outline>
    <contour>
      <point x="562" y="225" type="line"/>
      <point x="481" y="306" type="line"/>
      <point x="384" y="209" type="line"/>
      <point x="356" y="140" type="line"/>
      <point x="339" y="147" type="line"/>
      <point x="363" y="209" type="line"/>
      <point x="363" y="632" type="line"/>
      <point x="249" y="632" type="line"/>
      <point x="249" y="209" type="line"/>
      <point x="273" y="147" type="line"/>
      <point x="256" y="140" type="line"/>
      <point x="228" y="209" type="line"/>
      <point x="131" y="306" type="line"/>
      <point x="50" y="225" type="line"/>
      <point x="206" y="68" type="line"/>
      <point x="406" y="68" type="line"/>
    </contour>
  </outline>
</glyph>
<glyph name="uni2196" format="1">
  <advance width="612"/>
  <unicode hex="2196"/>
  <outline>
    <contour>
      <point x="192" y="620" type="line"/>
      <point x="51" y="479" type="line"/>
      <point x="51" y="257" type="line"/>
      <point x="166" y="257" type="line"/>
      <point x="166" y="395" type="line"/>
      <point x="137" y="463" type="line"/>
      <point x="154" y="470" type="line"/>
      <point x="181" y="409" type="line"/>
      <point x="480" y="110" type="line"/>
      <point x="561" y="191" type="line"/>
      <point x="262" y="490" type="line"/>
      <point x="201" y="517" type="line"/>
      <point x="208" y="534" type="line"/>
      <point x="276" y="505" type="line"/>
      <point x="414" y="505" type="line"/>
      <point x="414" y="620" type="line"/>
    </contour>
  </outline>
</glyph>
<glyph name="product" format="1">
  <advance width="612"/>
  <unicode hex="220F"/>
  <outline>
    <contour>
      <point x="0" y="0" type="line"/>
      <point x="131" y="0" type="line"/>
      <point x="253" y="574" type="line"/>
      <point x="455" y="574" type="line"/>
      <point x="333" y="0" type="line"/>
      <point x="465" y="0" type="line"/>
      <point x="612" y="688" type="line"/>
      <point x="612" y="700" type="line"/>
      <point x="148" y="700" type="line"/>
    </contour>
  </outline>
</glyph>
<glyph name="uni2219" format="1">
  <advance width="612"/>
  <unicode hex="2219"/>
  <outline>
    <contour>
      <point x="186" y="350" type="curve" smooth="yes"/>
      <point x="186" y="284"/>
      <point x="240" y="230"/>
      <point x="306" y="230" type="curve" smooth="yes"/>
      <point x="372" y="230"/>
      <point x="426" y="284"/>
      <point x="426" y="350" type="curve" smooth="yes"/>
      <point x="426" y="416"/>
      <point x="372" y="470"/>
      <point x="306" y="470" type="curve" smooth="yes"/>
      <point x="240" y="470"/>
      <point x="186" y="416"/>
    </contour>
  </outline>
</glyph>
<glyph name="radical" format="1">
  <advance width="612"/>
  <unicode hex="221A"/>
  <outline>
    <contour>
      <point x="18" y="298" type="line"/>
      <point x="106" y="298" type="line"/>
      <point x="106" y="0" type="line"/>
      <point x="338" y="0" type="line"/>
      <point x="672" y="844" type="line"/>
      <point x="672" y="856" type="line"/>
      <point x="550" y="856" type="line"/>
      <point x="244" y="84" type="line"/>
      <point x="226" y="84" type="line"/>
      <point x="226" y="412" type="line"/>
      <point x="18" y="412" type="line"/>
    </contour>
  </outline>
</glyph>
<glyph name="lessequal" format="1">
  <advance width="612"/>
  <unicode hex="2264"/>
  <outline>
    <contour>
      <point x="468" y="136" type="line"/>
      <point x="468" y="255" type="line"/>
      <point x="179" y="333" type="line"/>
      <point x="179" y="350" type="line"/>
      <point x="561" y="442" type="line"/>
      <point x="561" y="564" type="line"/>
      <point x="95" y="448" type="line"/>
      <point x="95" y="240" type="line"/>
    </contour>
    <contour>
      <point x="8" y="0" type="line"/>
      <point x="426" y="0" type="line"/>
      <point x="426" y="108" type="line"/>
      <point x="8" y="108" type="line"/>
    </contour>
  </outline>
</glyph>
